<svg xmlns="http://www.w3.org/2000/svg" xmlns:xlink="http://www.w3.org/1999/xlink" version="1.1" x="0px" y="0px" viewBox="0 0 100 90" style="enable-background:new 0 0 100 100;" xml:space="preserve"><path d="M77.317,63.663c0,0.064,0.258,1.031,0.258,1.031l-0.516,0.644v-0.322l-0.258-0.322c0,0,0,0.773,0,0.838  s-0.322,0.709-0.322,0.709v0.451c0,0-0.322,0.838-0.322,0.902s-2.385,5.156-2.385,5.156l-0.322,0.387l-0.58,0.129l-0.773,0.451  l-0.838-0.451c0,0-0.387-0.773-0.387-0.838s0.193-0.516,0.193-0.516l-0.193-0.451l-0.064-1.031c0,0,0.709-1.031,0.773-1.031  s0.451-0.709,0.516-0.773c0.064-0.064-0.129-0.709-0.129-0.709l-0.064-1.418l0.258-0.387l0.193-0.773l1.869-0.709  c0,0,0.838-0.451,0.902-0.516s0.322-0.773,0.322-0.773l0.387-0.322c0,0,0.387-0.193,0.451-0.258s0.064-0.645,0.064-0.645  s0.322-0.451,0.387-0.451s0.387,0.709,0.387,0.709S77.317,63.599,77.317,63.663z M78.09,40.397l0.129-0.451l-0.322-0.129  l-0.322,0.129l-0.129,0.322l-0.451,0.129l-0.58,0.258l-0.387-0.064l-0.451,0.193h-0.516l-0.58,0.387l-0.258,0.064l-0.645-0.064  c0,0-0.322,0.322-0.387,0.322s-0.58,0.064-0.58,0.064l-0.709-0.58l-0.387-0.322l-0.322,0.064L71.13,40.59l0.709-0.451l-0.387-0.451  l-0.387-0.258l-0.322-0.451l-0.193-0.193l-0.967-0.838l-0.322-0.129l-0.193-0.129l-0.322-0.129l-0.451-0.387l-0.387-0.838  c0,0-0.322-0.773-0.322-0.838s-0.451-0.645-0.451-0.645l-0.258-0.064l-0.387-0.322l-0.258-0.064l-0.193-0.838l-0.129-0.967  l-0.258-0.58l-0.129-0.193v-0.258l-0.645-0.516l-0.258-0.129l-0.258-0.387l-0.064-0.451l0.064-0.193l-0.451-0.387  c0,0-0.516-0.902-0.516-0.967s-0.58-0.838-0.58-0.838l-0.064-0.193l-0.387-0.58v-0.258c0,0-0.709-0.645-0.709-0.709  c0-0.064-0.129-0.451-0.129-0.451l-0.193-0.258l0.193-0.258l0.129,0.451l0.387,0.387l0.064,0.387l0.773,0.58l0.129-0.258v-0.322  l0.193-0.838v-0.387l-0.644-1.096h-0.451l-0.902,0.064l-0.516-0.193l-0.645-0.193l-0.451,0.193l-0.902,0.516l-0.58-0.129  l-1.096-0.258l-0.838-0.129l-0.516,0.064l-0.322-0.387h-0.644l-0.258-0.129l-0.387-0.064l-0.129-0.322c0,0-0.644-0.258-0.709-0.258  s-1.031,0.258-1.031,0.258l-0.58,0.58v0.451l0.193,0.451l-0.451,0.451l-0.516,0.064l-0.709-0.451l-0.838-0.322  c0,0-0.709-0.129-0.773-0.129c-0.064,0-0.322-0.322-0.322-0.322l-0.064-0.451l-0.902-0.387c0,0-0.838-0.064-0.902-0.064  s-1.096-0.322-1.096-0.322l-0.773-0.451l-0.451-0.258l0.064-0.387l0.516,0.064c0,0,0.451-0.516,0.451-0.58s0-0.451,0-0.451  l-0.516-0.516l0.451-0.322l0.258-0.516l-0.516,0.322l-0.258-0.322L43.804,19l-0.58,0.322l-0.838-0.258l-0.387,0.129l-0.387-0.129  l-0.709,0.387c0,0-0.516-0.258-0.58-0.258s-1.16,0.064-1.16,0.064l-1.547,0.129l-0.773,0.451l-0.709,0.064l-0.773,0.516  l-1.289-0.258c0,0-0.58,0-0.644-0.064s-0.451-0.516-0.451-0.516l-0.387,0.193l-0.387,0.644l-0.58,0.645l-1.482,0.58l-0.451,0.516  l-0.064,0.387l-0.387,0.387L28.98,23.64l0.064,0.322l-0.322,0.58l-0.58,0.58l-0.387,0.129l-0.709,0.516l-0.838,0.129l-0.387,0.322  L25.5,26.863l-0.451,0.193l-0.451,0.387l-0.387,0.773l-0.258,0.451l-0.902,0.838L22.6,30.343l-0.516,0.58l-0.064,0.709l0.258,0.516  v0.645l-0.258,0.387l0.258,0.516l-0.064,1.096l-0.58,0.967l-0.129,0.709l-0.58,0.773l0.322,0.838c0,0-0.129,0.967-0.129,1.031  s0.129,0.516,0.129,0.516l0.644,0.451l0.322,0.644l0.322,0.258l0.387,0.58l0.838,1.031v0.709l0.516,0.838l0.709,0.387l0.902,0.902  l0.967,0.773l1.16,0.709l0.387,0.129l1.547-0.58l1.418-0.129l0.902,0.258l0.709,0.322l0.838-0.387l1.547-0.516l0.451-0.322  l1.289-0.129l1.16-0.129l0.967,0.967l0.258,0.773l0.709,0.193l0.773-0.129l0.902-0.064l0.322,0.129l0.322,0.451l0.322,0.193  c0,0,0.387,0.58,0.322,0.644s-0.193,1.353-0.193,1.353l-0.129,1.031l-0.258,0.709l-0.322,0.258l0.322,0.902l0.967,0.967l0.967,1.16  l0.516,0.838l0.129,0.58l0.193,0.516l0.387,0.58l0.387,1.16l-0.193,0.516l0.258,0.902c0,0,0.322,0.709,0.322,0.773  s-0.193,0.967-0.193,1.031c0,0.064-0.258,0.387-0.322,0.387s-0.709,1.031-0.709,1.031l-0.193,1.225l-0.258,0.516l0.064,1.869  l0.773,1.096l1.031,1.933l0.516,0.902v1.031l0.129,0.645l0.258,1.353l0.451,1.289l0.902,1.031c0,0,0.644,1.289,0.644,1.353  s0.58,0.967,0.58,0.967s0,0.58,0,0.645s-0.193,0.322-0.193,0.322l0.322,0.58l0.258,0.129l0.064,0.258l0.322,0.258L51.344,81  l0.258-0.064l0.387-0.258h0.387l0.58-0.064l0.387-0.193h0.516l0.451-0.064l0.709,0.129h0.258l0.193-0.129l0.516-0.193l0.451,0.064  l0.838-0.387l0.967-0.709l0.902-0.773l0.644-0.58l0.58-0.773l0.258-0.451l0.451-0.258l0.387-0.387l0.387-0.902l0.258-0.644v-0.387  l-0.193-0.258l0.193-0.322l0.387-0.193l1.225-0.451l0.516-0.322l0.193-0.451l-0.064-0.193l0.193-0.58l-0.064-0.193l-0.064-0.967  l-0.129-0.258v-0.387l-0.258-0.451l0.064-0.387l0.322-0.129l1.611-1.482l0.773-0.58l0.967-0.322l0.838-0.58l0.258-0.322l0.387-0.451  l0.258-0.709l-0.129-0.451l-0.064-1.611l0.129-0.967l0.064-0.516l-0.258-0.387l-0.387-0.193v-0.193l-0.258-0.773l-0.064-0.451  l0.193-0.322l-0.193-0.451l0.064-0.193l0.258-0.129l-0.516-0.644l-0.193-0.129l0.129-0.451l0.258-0.773l0.516-0.709l0.322-0.773  l0.129-0.516l0.387-0.129l0.387-0.516l0.322-0.193l0.322-0.516l0.129-0.322l0.902-0.967l1.289-1.289l0.773-0.451l0.838-0.773  l0.967-1.353l0.838-1.353l0.129-0.58l0.516-0.967V43.62l0.258-0.322l0.258-0.645l0.193-0.451v-0.773l0.193-0.193l-0.064-0.58  L78.09,40.397z"/></svg>