<svg xmlns="http://www.w3.org/2000/svg" xmlns:xlink="http://www.w3.org/1999/xlink" version="1.1" x="0px" y="0px" viewBox="0 0 100 90" enable-background="new 0 0 100 100" xml:space="preserve"><path d="M75.627,40.703h0.029l0.01-0.006c-0.006,0-0.01,0-0.014,0l-0.307-0.029l0.018,0.014L75.627,40.703z"/><polygon points="76.354,39.379 76.289,39.459 76.379,39.391 "/><path d="M74.734,38.262l0.072,0.01l0.166-0.074l0.039-0.068L75,38.002l-0.131-0.098c-0.014-0.01-0.014-0.027-0.023-0.039  c-0.006-0.008-0.02-0.004-0.025-0.014l-0.178-0.275l0.014,0.23c0,0.006-0.004,0.008-0.004,0.014c0,0.004,0.004,0.008,0.004,0.012  l-0.02,0.32L74.734,38.262z"/><polygon points="76.543,43.162 76.516,43.395 76.633,43.582 76.93,43.682 77.066,43.584 77.148,43.367 77.148,43.184 76.926,42.986   76.65,42.986 "/><polygon points="74.393,36.137 74.453,36.232 74.559,36.08 74.559,35.717 74.449,35.443 74.33,35.365 74.229,35.643 74.229,35.867   74.393,36.135 "/><polygon points="76.582,42.08 76.74,42.002 76.756,41.877 76.654,41.736 76.322,41.674 76.314,41.736 76.311,41.744 76.311,41.752   76.264,41.969 76.383,42.055 "/><path d="M48.013,21.174l0.784-0.641c0.008-0.008,0.019-0.004,0.026-0.01l-0.308-0.127l-0.183,0.025l-0.387,0.193L47.659,21  l-0.015,0.072l0.059,0.102H48.013z"/><polygon points="51.756,19.682 51.596,19.795 51.373,20.146 51.346,20.367 51.512,20.404 52.234,20.152 52.264,20.041   52.055,19.754 "/><path d="M52.035,21.678l0.01,0.07h0.084l0.209-0.209c0.006-0.004,0.012-0.002,0.018-0.006c0.004-0.004,0.004-0.012,0.008-0.014  l0.207-0.148l0.057-0.227l-0.109-0.047l-0.205,0.09l-0.154,0.248L52.035,21.678z"/><polygon points="49.998,68.646 49.998,68.344 49.348,67.998 49.323,68.002 49.593,68.363 49.86,68.631 "/><polygon points="73.107,46.564 73.104,46.557 73.096,46.555 72.434,45.959 72.496,46.047 72.93,46.48 73.229,46.67 73.219,46.65 "/><polygon points="70.732,44.459 70.113,44.166 69.699,44.029 71.705,45.305 71.168,44.822 "/><polygon points="72.689,82.121 72.463,82.219 72.396,82.488 72.496,82.723 72.992,82.889 73.057,82.373 72.795,82.146 "/><path d="M82.27,71.227c0-0.002-0.002-0.002-0.002-0.004l-0.143-1.145l-1.418-0.197l0,0c-0.002,0-0.004,0-0.006,0l-0.633-0.107  h-0.137l-0.287,0.207l-0.898,1.639c-0.002,0.004-0.008,0.006-0.012,0.012c-0.002,0.004,0,0.008-0.002,0.012l-0.92,1.244  c-0.008,0.008-0.02,0.006-0.027,0.014c-0.01,0.01-0.01,0.023-0.021,0.031l-0.701,0.486c-0.012,0.008-0.025,0.006-0.037,0.012  c-0.008,0.002-0.01,0.012-0.018,0.014l-0.844,0.264l-1.469,0.842l-1.086,1.238l-0.043,0.152l3.662,1.238  c0.004,0,0.006,0.006,0.01,0.008c0.002,0,0.006-0.002,0.01,0l0.473,0.215l0.471-0.43l0.742-1.48c0,0,0,0,0-0.002l0.754-1.455l0,0  l0.002-0.004c0.008-0.016,0.025-0.018,0.035-0.029c0.023-0.027,0.043-0.057,0.078-0.068l1.557-0.539l1.158-0.627l-0.25-1.535  C82.268,71.229,82.27,71.229,82.27,71.227z"/><polygon points="74.781,77.629 74.172,77.705 74.172,77.869 74.43,78.092 75.08,78.131 75.145,77.957 74.926,77.736 "/><polygon points="65.453,32.619 65.066,32.643 64.914,32.738 64.881,32.816 64.916,32.895 65.178,33.062 65.664,33.197   66.141,33.148 66.227,33.061 66.234,32.998 66.225,32.99 "/><polygon points="66.176,29.297 66.051,28.996 66.008,29.008 66.203,29.396 "/><path d="M66.312,29.891c-0.018,0.021-0.027,0.049-0.055,0.062c-0.029,0.014-0.059,0.021-0.09,0.021c-0.033,0-0.066-0.01-0.098-0.027  l-0.006-0.002l-0.23-0.131l-0.904-0.072l-0.363,0.061l-0.109,0.152v0.021l0.17,0.215l0.289-0.131c0.004-0.002,0.008,0,0.01,0  c0.004-0.002,0.006-0.008,0.01-0.008l0.467-0.156c0.02-0.008,0.039,0.004,0.061,0.004s0.039-0.012,0.061-0.006l0.508,0.156  c0.02,0.006,0.027,0.025,0.043,0.035c0.018,0.01,0.039,0.01,0.051,0.025l0.174,0.203h0.012l0.125-0.072v-0.014l-0.1-0.354  C66.332,29.885,66.318,29.883,66.312,29.891z"/><path d="M87.635,66.121l-1.99-0.229h-0.453c-0.049,0-0.094-0.021-0.131-0.053c-0.012-0.012-0.016-0.025-0.023-0.039  c-0.014-0.02-0.033-0.035-0.039-0.061l-0.055-0.217l-0.385-0.934l-1.244-1.641l0,0l-0.494-0.604l-0.738-0.422l-1.609-0.283  l0.344,1.293l0.617,0.094c0.014,0.002,0.02,0.016,0.033,0.02c0.014,0.006,0.029,0,0.041,0.008l0.92,0.574  c0.012,0.006,0.014,0.021,0.021,0.029c0.01,0.01,0.025,0.01,0.033,0.02l0.516,0.689c0.01,0.014,0.006,0.029,0.012,0.043  c0.006,0.016,0.021,0.023,0.025,0.041l0.172,0.918c0,0.006-0.006,0.012-0.004,0.018c0,0.008,0.008,0.012,0.008,0.02v0.689  c0,0.02-0.016,0.031-0.021,0.049c-0.008,0.027-0.012,0.049-0.027,0.068c-0.018,0.021-0.037,0.031-0.061,0.045  c-0.016,0.01-0.025,0.027-0.043,0.031l-0.201,0.051l-0.316,0.18l-0.129,0.348l0.043,0.447l1.49,1.27  c0.012,0.01,0.01,0.025,0.018,0.037c0.01,0.01,0.025,0.014,0.031,0.025l0.113,0.229c0.002,0.008-0.002,0.014,0,0.02  c0.01,0.025,0.006,0.049,0.006,0.076c0,0.025,0.002,0.049-0.008,0.072c-0.004,0.006,0,0.014-0.004,0.02l-0.205,0.363l-0.051,0.863  l0.334,0.527l0.266,0.113l0.262-0.113l1-1.775c0.004-0.006,0.01-0.006,0.014-0.01c0.002-0.006,0-0.014,0.004-0.018l0.459-0.574  c0.006-0.008,0.018-0.008,0.025-0.014c0.016-0.016,0.035-0.021,0.057-0.031c0.025-0.012,0.047-0.021,0.074-0.021  c0.01,0,0.016-0.008,0.023-0.008l0.961,0.111h0.098l0.154-0.305v-0.986c0-0.016,0.014-0.027,0.016-0.041  c0.004-0.016-0.004-0.029,0.002-0.043l0.326-0.707v-0.238l-0.283-0.035C87.637,66.121,87.637,66.121,87.635,66.121z"/><path d="M68.109,31.783c-0.008,0-0.01-0.008-0.018-0.01c-0.018-0.004-0.035-0.004-0.051-0.014l-0.527-0.291l-0.521-0.111  l-0.135,0.018l-0.096,0.111l-0.006,0.039l0.129,0.057l1.148,0.354l0.295-0.037v-0.004l-0.078-0.09L68.109,31.783z"/><path d="M64.59,28.303l-0.244-0.152c-0.008-0.006-0.008-0.016-0.016-0.021c-0.006-0.004-0.014-0.002-0.02-0.008l-0.223-0.225  l-0.809-0.1l-0.225,0.113v0.338l0.395,0.396l0.369,0.031l0.555-0.104l0.242-0.17L64.59,28.303z"/><polygon points="95.02,73.764 94.738,73.643 94.281,73.643 93.621,73.783 93.574,73.977 94.104,74.287 95.117,74.479 95.195,74.293   "/><path d="M62.109,28.768c0-0.004-0.002-0.004-0.002-0.008v-0.154l-0.16-0.041l-0.186-0.037c-0.01-0.002-0.014-0.012-0.021-0.014  c-0.018-0.006-0.035-0.006-0.051-0.016l-0.564-0.377l-0.17-0.064l-0.07,0.07l0.045,0.268l0.498,0.268c0,0,0,0.002,0.002,0.004  c0.002,0,0.002-0.002,0.004,0l0.467,0.271l0,0l0.227,0.129l-0.02-0.293C62.107,28.771,62.109,28.77,62.109,28.768z"/><path d="M54.666,24.75l-0.154-0.652l-0.158-0.223l-0.104-0.104c-0.012-0.012-0.01-0.029-0.018-0.043  c-0.004-0.004-0.01-0.008-0.012-0.014l-0.43,0.311l-0.168,0.441c-0.016,0.041-0.045,0.072-0.08,0.096c0,0,0,0.002-0.002,0.002  l-0.307,0.191c-0.012,0.008-0.025,0.008-0.039,0.012c-0.006,0.002-0.01,0.01-0.016,0.012l-1.645,0.42  c-0.016,0.006-0.033,0.008-0.049,0.008h-0.459c-0.027,0-0.055-0.006-0.082-0.018l-0.33-0.146l-0.475-0.137l-0.394,0.08l0.01,0.039  l0.199,0.232c0.004,0.004,0.002,0.01,0.005,0.016c0.004,0.004,0.011,0.004,0.014,0.01l0.359,0.574l0.596,0.398l0.725-0.033  l1.586-0.369l0.799-0.508L54.666,24.75z"/><path d="M34.137,20.295l-0.609-0.152h-0.029l-0.001,0.004l0.109,0.328l0.274,0.104l0.265-0.066l0.093-0.217l-0.003-0.01  c-0.017,0.004-0.031,0.016-0.05,0.016C34.17,20.301,34.154,20.299,34.137,20.295z"/><polygon points="53.354,29.605 53.635,30.111 53.828,30.334 53.85,29.963 53.662,29.723 53.393,29.566 "/><polygon points="45.09,68.455 45.131,68.131 45.124,68.1 45.079,68.1 44.789,68.143 44.592,68.377 44.447,68.814 44.393,69.027   44.505,69.041 "/><path d="M61.57,27.084c0.01,0.002,0.014,0.012,0.021,0.014c0.008,0.004,0.018-0.002,0.025,0.002l0.113,0.057h0.043l-0.014-0.115  L61.75,27l-0.215-0.08c-0.014-0.006-0.018-0.021-0.029-0.029c-0.012-0.006-0.029-0.004-0.039-0.016l-0.031-0.031l-0.414-0.059  l0.25,0.232L61.57,27.084z"/><path d="M58.6,25.787c-0.004-0.004-0.01-0.002-0.014-0.008l-0.469-0.818c0,0,0,0,0-0.002l-0.158-0.254l-0.031-0.016l-0.127,0.049  l-0.043,0.193l0.123,0.395l0.65,0.508c0.029,0.023,0.039,0.057,0.051,0.09c0.008,0.014,0.021,0.021,0.025,0.039l0.115,0.77  l0.043,0.176l0.207,0.033l0.236-0.389l-0.604-0.746C58.6,25.801,58.604,25.793,58.6,25.787z"/><polygon points="56.871,32.457 56.492,32.227 56.949,32.842 56.949,32.844 56.949,32.844 57.17,33.146 57.197,33.104 57.145,32.791   "/><path d="M50.166,70.303c-0.012,0.004-0.024,0.004-0.036,0.006c-0.003,0.002-0.005,0.006-0.008,0.006l-2.055,0.324  c-0.011,0.002-0.021,0.002-0.031,0.002h-1.566c-0.058,0-0.107-0.025-0.144-0.064c-0.001,0-0.004,0-0.005-0.002l-0.446-0.494  l-0.342-0.086l-0.571,0.049l-0.282,0.16l-0.191,0.42l0.726,0.82c0.008,0.008,0.005,0.02,0.011,0.029s0.019,0.014,0.023,0.023  l0.481,1.125l0.522,0.889l0.262,0.305l0.613,0.045l0.922-0.514c0.012-0.006,0.025,0,0.039-0.004c0.012-0.004,0.019-0.018,0.032-0.02  l1.229-0.16l0.333-0.082l0.267-0.533l0.104-1.098c0.002-0.023,0.021-0.039,0.031-0.059c0.01-0.021,0.009-0.047,0.026-0.064  l0.309-0.309l0.342-0.539l0.025-0.197l-0.404-0.066L50.166,70.303z"/><path d="M55.695,50.736l-3.51-4.998l-5.13-4.596c-0.008-0.008-0.007-0.02-0.013-0.027c-0.005-0.006-0.015-0.002-0.019-0.01  l-3.216-4.719c-0.003-0.004-0.001-0.01-0.003-0.014c-0.004-0.008-0.013-0.012-0.016-0.02l-0.322-0.75  c-0.005-0.012,0.002-0.021,0-0.031c-0.004-0.012-0.015-0.02-0.016-0.031l-0.107-1.287c0-0.006,0.005-0.012,0.005-0.018  s-0.005-0.01-0.005-0.016l0.104-1.236l-0.515-1.131c0-0.002,0-0.002,0-0.002c-0.001-0.002-0.002-0.002-0.002-0.002l-0.18-0.422  l-0.513,0.732l-0.104,2.193c0,0.002-0.002,0.004-0.002,0.004c0,0.002,0.001,0.002,0.001,0.004l-0.215,2.572  c0,0.004-0.003,0.006-0.004,0.008c0,0.002,0.002,0.004,0.002,0.006l-0.214,1.395c-0.004,0.025-0.022,0.041-0.033,0.061  c-0.008,0.014-0.005,0.031-0.016,0.043l-0.96,1.066l-0.006,0.006c-0.011,0.012-0.028,0.01-0.041,0.02  c-0.027,0.02-0.053,0.043-0.089,0.047l-2.252,0.215c-0.006,0-0.013,0-0.019,0c-0.038,0-0.075-0.01-0.109-0.031l-2.467-1.609  c-0.001-0.002-0.001-0.004-0.002-0.004c-0.002,0-0.004,0-0.005-0.002l-0.751-0.535c-0.004-0.002-0.003-0.006-0.006-0.01  c-0.028-0.021-0.053-0.049-0.065-0.084l-0.429-1.18c-0.001-0.004,0.002-0.008,0.001-0.012c-0.009-0.025,0-0.051,0.003-0.078  c0.003-0.025,0-0.049,0.012-0.072c0.002-0.004,0-0.008,0.002-0.012l0.851-1.381l0.192-0.385v-0.258l-0.279-0.141L32.491,33.9  c-0.003,0-0.004-0.002-0.006-0.002c-0.022-0.002-0.045-0.006-0.066-0.014l-2.467-1.072c-0.006-0.004-0.007-0.01-0.013-0.014  c-0.007-0.004-0.017-0.002-0.023-0.008l-0.682-0.486l-1.097,0.199c-0.002,0-0.004,0-0.006,0l-1.237,0.207l0.455,0.283  c0.017,0.012,0.02,0.031,0.032,0.045c0.012,0.014,0.031,0.02,0.04,0.035l0.43,0.859c0.006,0.012-0.001,0.025,0.003,0.037  c0.007,0.025,0.009,0.047,0.005,0.074c-0.003,0.027-0.009,0.047-0.022,0.07c-0.006,0.012-0.002,0.025-0.011,0.035l-1.072,1.287  c-0.001,0.002-0.003,0.002-0.003,0.002c-0.002,0.002-0.001,0.004-0.002,0.004l-0.966,1.072c-0.011,0.014-0.028,0.01-0.042,0.02  c-0.015,0.01-0.021,0.029-0.038,0.035l-1.18,0.428c-0.022,0.01-0.046,0.014-0.068,0.014c-0.019,0-0.038-0.004-0.058-0.01  l-2.085-0.625l-1.284,0.395L20.1,37.803c-0.001,0.002-0.003,0.002-0.004,0.002c-0.002,0.002-0.001,0.004-0.003,0.006l-0.645,0.643  c-0.007,0.008-0.017,0.006-0.024,0.01c-0.007,0.006-0.007,0.016-0.015,0.021l-1.072,0.643c-0.032,0.018-0.067,0.027-0.103,0.027  c-0.023,0-0.047-0.004-0.07-0.012l-0.823-0.309h-0.255l-0.26,0.693v0.822c0,0.002-0.002,0.002-0.002,0.004  c-0.001,0.027-0.019,0.047-0.029,0.072c-0.011,0.023-0.014,0.049-0.031,0.066c-0.002,0.002-0.001,0.004-0.003,0.006l-1.18,1.072  l-2.139,2.139c-0.006,0.006-0.014,0.004-0.02,0.008c-0.006,0.006-0.006,0.016-0.013,0.02l-2.145,1.393  c-0.019,0.012-0.039,0.012-0.06,0.018c-0.009,0.002-0.013,0.012-0.021,0.012L8.247,45.58l-1.859,1.754l-0.15,0.301l0.376,0.658  c0.003,0.006,0,0.012,0.002,0.018c0.003,0.006,0.01,0.008,0.012,0.014l0.429,1.18c0.004,0.012-0.004,0.021-0.002,0.033  c0.003,0.014,0.015,0.021,0.015,0.035v0.43c0,0.004-0.005,0.008-0.005,0.012c-0.001,0.004,0.004,0.008,0.003,0.012l-0.107,0.857  c-0.002,0.02-0.018,0.031-0.024,0.047c-0.006,0.014-0.001,0.031-0.01,0.043l-0.679,0.971l1.228,2.252  c0.002,0.004-0.001,0.008,0.001,0.012s0.007,0.006,0.009,0.01l0.857,2.145c0.004,0.008-0.003,0.018,0,0.025  c0.002,0.01,0.012,0.014,0.013,0.023l0.322,2.574c0.001,0.012-0.008,0.02-0.009,0.031c0,0.012,0.009,0.02,0.007,0.031l-0.411,2.154  l0.759,0.855l1.079,0.393l5.523-1.062c0.004,0,0.006,0.004,0.01,0.002c0.004,0,0.005-0.004,0.009-0.004l5.307-0.531l1.993-1.471  c0.009-0.006,0.021-0.002,0.029-0.006c0.01-0.006,0.013-0.018,0.022-0.021l3.002-1.07c0.011-0.004,0.021,0.004,0.03,0.002  c0.011-0.002,0.018-0.012,0.028-0.014l2.467-0.109c0.006,0.002,0.01,0.006,0.016,0.008c0.006,0,0.011-0.006,0.017-0.006l1.823,0.215  c0.013,0.002,0.019,0.014,0.03,0.018s0.024-0.004,0.036,0.002l1.501,0.75c0.018,0.01,0.022,0.029,0.036,0.043  c0.015,0.012,0.034,0.016,0.045,0.031l1.124,1.842l2.42,0.1l2.102-0.945c0.014-0.006,0.028,0.002,0.043,0  c0.015-0.004,0.023-0.018,0.039-0.018h0.429c0.007,0,0.012,0.008,0.019,0.008c0.008,0.002,0.013-0.006,0.021-0.004  c0.021,0.004,0.031,0.023,0.049,0.033c0.023,0.012,0.045,0.021,0.062,0.041s0.021,0.043,0.028,0.068  c0.006,0.02,0.022,0.033,0.022,0.055c0,0.008-0.007,0.012-0.008,0.02c-0.001,0.006,0.005,0.012,0.004,0.02l-0.106,0.535  c-0.005,0.023-0.022,0.037-0.034,0.057c-0.007,0.012-0.004,0.027-0.014,0.037l-0.948,1.053l-0.352,0.705l0.161,0.16h0.775  c0.016,0,0.026,0.014,0.041,0.018s0.028-0.004,0.042,0.002l1.18,0.537c0.023,0.01,0.031,0.033,0.048,0.051  c0.016,0.016,0.038,0.021,0.048,0.041l0.627,1.256l1.693,1.691l1.219,1.016h0.318l0.712-0.303c0.001-0.002,0.003,0,0.004,0  c0.001-0.002,0.002-0.002,0.003-0.004l2.252-0.859c0.014-0.006,0.025,0.004,0.039,0.002c0.018-0.002,0.029-0.018,0.048-0.014  l2.668,0.213h2.32l0.771-0.289l0.795-0.992l0.418-2.096c0.002-0.012,0.014-0.018,0.018-0.027s-0.002-0.021,0.004-0.031l1.502-2.682  c0.002-0.004,0.006-0.004,0.008-0.008c0.004-0.004,0-0.008,0.004-0.012l1.596-2.234l0.518-1.242l0.207-1.234l-0.316-2.309  L55.695,50.736z"/><path d="M41.117,20.631l-0.018-0.072l-0.31-0.078c-0.002,0-0.002-0.002-0.004-0.002c-0.004-0.002-0.009-0.002-0.013-0.002  l-1.545-0.533c-0.007-0.004-0.009-0.012-0.016-0.016c-0.01-0.004-0.021-0.002-0.03-0.008l-0.596-0.396l-0.543-0.045l-1.408,0.502  l-1.293,1.293l-0.521,0.68c-0.005,0.006-0.014,0.004-0.019,0.008c-0.006,0.008-0.005,0.018-0.012,0.023l-0.639,0.531  c-0.037,0.031-0.083,0.047-0.128,0.047c-0.003,0-0.006,0-0.008,0l-1.279-0.053c-0.025,0-0.043-0.02-0.064-0.029  c-0.023-0.01-0.051-0.01-0.069-0.029l-0.479-0.479c-0.011-0.012-0.008-0.027-0.016-0.039c-0.015-0.021-0.033-0.037-0.039-0.064  l-0.16-0.797l-0.351-1.707l-0.213-0.092l-0.148,0.037c-0.017,0.004-0.033,0.006-0.049,0.006h-0.634l-1.367,0.156  c-0.008,0.002-0.015,0.002-0.022,0.002c-0.021,0-0.042-0.004-0.063-0.01l-1.977-0.658l-0.022,0.018l0.011,0.047l0.12,0.158  l0.571,0.518l1.418,1.105l1.632,0.842c0.015,0.008,0.019,0.025,0.03,0.035c0.021,0.018,0.036,0.033,0.048,0.057  s0.015,0.045,0.017,0.072c0.001,0.016,0.014,0.029,0.011,0.047l-0.054,0.318c-0.005,0.027-0.024,0.047-0.039,0.068  c-0.01,0.016-0.012,0.031-0.025,0.043c-0.036,0.035-0.082,0.057-0.133,0.057h-0.6l-0.177,0.076l0.445,0.494  c0.011,0.014,0.008,0.029,0.016,0.043c0.009,0.016,0.025,0.025,0.03,0.043l0.024,0.096l3.291,0.822  c0.004,0.002,0.005,0.006,0.009,0.008c0.004,0,0.007-0.002,0.011-0.002l1.916,0.691c0.005,0.002,0.007,0.008,0.012,0.012  c0.004,0.002,0.009-0.002,0.014,0l0.904,0.48c0.013,0.006,0.016,0.021,0.025,0.031c0.011,0.008,0.026,0.008,0.035,0.018l0.48,0.586  c0.009,0.01,0.005,0.025,0.012,0.037c0.008,0.016,0.023,0.021,0.027,0.037l0.213,0.801c0.003,0.012-0.006,0.021-0.005,0.035  c0.001,0.012,0.012,0.02,0.011,0.031l-0.054,0.691c-0.001,0.02-0.017,0.029-0.022,0.047c-0.005,0.016,0.001,0.031-0.008,0.045  L36.908,27.9c-0.007,0.01-0.021,0.008-0.029,0.016c-0.012,0.014-0.013,0.033-0.028,0.043l-0.391,0.26v0.07l0.192,0.533l0.327,0.488  l1.079-0.375c0.011-0.004,0.021,0.004,0.033,0.002s0.02-0.014,0.032-0.014h0.691c0.021,0,0.034,0.018,0.054,0.023  c0.018,0.004,0.037-0.002,0.054,0.008l0.585,0.373c0.017,0.01,0.02,0.031,0.032,0.045c0.012,0.014,0.031,0.018,0.039,0.035  l0.051,0.102h0.09c0.009,0,0.015,0.01,0.023,0.01c0.009,0.002,0.016-0.006,0.024-0.004l0.189,0.047h0.611l0.496-0.037v-2.312  l-0.107-4.365c0-0.006,0.005-0.008,0.005-0.014s-0.005-0.01-0.004-0.014l0.159-1.428V20.631z"/><path d="M55.609,23.371c-0.004-0.006-0.002-0.012-0.004-0.016c-0.006-0.008-0.012-0.01-0.016-0.018l-0.551-1.098l-0.354-0.225  l-0.387-0.141L54.09,21.84c-0.012-0.002-0.016-0.014-0.025-0.016c-0.02-0.008-0.041-0.008-0.057-0.02l-0.236-0.168l-0.039-0.01  l-0.09,0.053l0.127,0.232l0.482,0.24c0.014,0.006,0.016,0.021,0.027,0.031s0.029,0.01,0.039,0.021l1.223,1.531  c0.004,0.004,0.002,0.008,0.004,0.012s0.008,0.002,0.01,0.006l0.139,0.221l0.188,0.016l0.051-0.199L55.609,23.371z"/><path d="M42.877,29.893l1.186-1.037c0.007-0.006,0.018-0.004,0.024-0.01c0.008-0.004,0.009-0.016,0.018-0.02l0.632-0.316  c0.016-0.008,0.031,0,0.047-0.004s0.026-0.018,0.043-0.018h0.896c0.018,0,0.029,0.016,0.046,0.02s0.032-0.004,0.048,0.004  l1.896,1.002c0.009,0.004,0.01,0.016,0.018,0.021c0.009,0.006,0.02,0.004,0.027,0.01l1.265,1.213c0.001,0,0,0.002,0.001,0.002  c0,0,0.001,0,0.002,0l0.265,0.266l0.446,0.045h0.992c0.004,0,0.008,0.004,0.012,0.004c0.004,0.002,0.008-0.004,0.012-0.002  l1.684,0.211c0,0,0-0.002,0.002-0.002l0.225,0.025l-0.02-0.174l-0.484-0.678l-1.299-1.193l-0.729-0.574  c-0.004-0.002-0.003-0.008-0.006-0.01c-0.004-0.004-0.009-0.002-0.012-0.006l-0.844-0.842c-0.006-0.006-0.004-0.016-0.009-0.023  c-0.004-0.004-0.012-0.002-0.016-0.008l-1.158-1.738c-0.002-0.002,0-0.006-0.002-0.008c-0.002-0.004-0.007-0.006-0.009-0.01  l-0.401-0.752l-0.86-0.658c-0.006-0.004-0.005-0.012-0.01-0.016c-0.005-0.006-0.013-0.004-0.018-0.008l-0.527-0.58  c-0.007-0.008-0.004-0.018-0.009-0.025c-0.009-0.014-0.021-0.02-0.027-0.033l-0.354-0.863L45.29,22.48l-0.806-0.352  c-0.004-0.002-0.005-0.006-0.009-0.008c-0.005-0.004-0.011-0.002-0.016-0.006l-1.363-0.838h-0.001l-0.815-0.461l-0.763-0.164v0.754  c0,0.004-0.004,0.006-0.005,0.01c0,0.004,0.004,0.008,0.004,0.012l-0.159,1.426l0.107,4.35l-0.001,0.002  c0,0.002,0.001,0.002,0.001,0.002v2.346L42.877,29.893z"/><polygon points="55.553,29.537 55.506,29.9 55.566,29.936 55.785,29.855 55.891,29.518 55.838,29.488 "/></svg>