<?xml version="1.0" encoding="UTF-8"?>
<svg width="1200pt" height="1200pt" version="1.1" viewBox="0 0 1200 1100" xmlns="http://www.w3.org/2000/svg">
 <g>
  <path d="m524.34 934.26-0.74219-0.74609-0.375-3.2773-1.125-1.0312-0.83984-2.5547-0.85547-0.75781-0.5625 0.39844v-0.39844l0.66016-1.5938v-1.7773l-2.2422-2.5078h-1.1406l-1.4062-1.332h-0.64844l-1.1367-1.1055-2.5352 0.84375v1.668h-1.6797l-3.1914 3.5625v1.2109l-0.5625 0.58984-1.5977-0.19141-1.7734 1.6914h-4.9688l-1.8008-1.7773h-1.9688l0.46875 3.3711-0.55078 0.56641v2.0625l3.2852 3.4688v1.3086l0.66016 1.7852 1.1172 0.9375v6.8398l-0.74219 0.66016 0.16797 4.2109h1.5117l0.38281 2.3516-1.9688 1.3086 0.5625 3.375-0.85156 0.83984-0.38281 7.0547 1.418 1.2969v0.95703l1.7734 1.8516v1.4258l1.7891 1.4062h5.7227v-1.8008l1.3203-1.2852 0.17969-3.4922 1.6797-1.6914h1.7891l1.6914 2.0859 4.5859 1.5977 2.7344-22.523-1.1289-1.9688v-3l1.4883-1.0312 1.1406-2.7227 1.0312-0.9375z"/>
  <path d="m621.34 984.07v-0.75391l-1.2227 0.38281h-0.85156l-0.64844 0.64844-1.5977 0.28906-0.83984-0.19141-1.0312 1.0312v1.1289l-6.8516-0.75781-3.0977 3.2891-11.449 0.37109-1.9648 1.5977h-2.6172l-1.5977-1.5977h-1.3203l-3.3711-2.3398h-1.1289l-0.83984 0.83984h-2.3516v0.9375l-1.4023 1.4023h-2.0625l-1.9688-1.7773h-2.3516l-1.6797 1.5v6.1836l-1.2383 1.125 2.6523 2.4375h6.1797l1.1172 1.0312 3.2891 1.4062h1.9766l2.0547 3.3828h2.4453l6.1797 3.5625h6.3867l2.3398 0.83984v1.8984l6.9492 4.8711 6.5625 0.53906 0.75391-1.0898-0.66016-3.0273 3.8438-4.3203-1.3086-1.2109v-0.66016l-1.0352-0.66016 0.84375-0.83984-1.5977-1.5938h-1.1172v-0.9375l-0.64844-1.4023v-1.7891l1.3945-1.9688v-1.2109l0.83984-1.7891 0.19141-1.9688 3.3711-6.0938-0.37109-1.1172 1.0312-0.9375z"/>
  <path d="m515.9 882.49-0.83984 2.3398h-0.66016l-1.043-1.332-1.3906 0.19141-2.4375 2.2461h-2.543l-0.83984 0.83984h-0.9375l-1.2227 0.49219-0.46875 3.8516-1.4023 1.6797 1.5 1.5-1.418 1.4141 0.75781 1.9688 2.7344 2.5312-2.7344 1.1172 2.0625 1.7891v1.4023l-1.5 1.4062 0.57812 1.4023h2.793l0.19531 0.9375-0.84375 0.85156v1.0312l2.6289 2.1484h1.5977l0.35938 0.75391 0.75781 0.66016 1.4023 0.46875 3.1914-3 0.74609-9.7539 2.3398-1.9688-0.16797-11.715-0.83984-1.2227-0.28906-8.4609-1.5977-1.5-0.5625 0.66016z"/>
  <path d="m182.91 675.94 1.3203 0.37109 1.1172 1.7891 13.406-2.9062 1.2344-1.5938 3.3711-0.66016-0.17969-1.2148-1.4141-1.125 0.85156-2.2578 1.5938-0.46875 1.2148 0.9375 0.66016 1.8828 1.5938 0.83984 0.9375-0.19141 4.6914-4.6797 2.8086-0.38281 1.4023-1.7773-0.19141-0.83984 3.8633-0.66016 2.1367 0.83984 2.9141-0.37109 1.3203-0.9375 0.74609 0.72266 1.0195-2.7852 2.3633 1.1992 0.74609 1.5 1.125 0.83984 3.0977-0.91016 1.1172-1.5273-0.17969-3.6328 1.9648-1.8008 3.1797-10.031 3-3.1953-0.64453-18.465-3.9375-10.035 2.2422-2.3398 1.4062-0.20312 0.85156 0.55469 3.0977-0.92578 0.93359-3.3711 4.418-0.83984 3.3711-3.8516-1.2109-7.8867-1.418-0.93359-3.7422 0.09375-0.28906-1.4023 1.0312-0.75781 1.2227-0.17969 0.84375-1.1406-1.1406-1.3906-0.074219-1.5-3.1055-2.8203-0.92578-4.7773-3.8633-2.7344-9.3711 2.0625-0.19531-1.1133-5.7109-4.8984-1.4023 1.9805-2.3516 0.75781-1.2266-0.19141-4.7852 1.5938-2.7148-0.5625-1.5 0.28906-3.3711 2.7227-1.5117 4.582 0.28906 1.7891-0.74609 1.0195-3.5742 0.48047-1.5 0.94922 0.19141 1.9688 0.9375 0.63281 5.457 0.94922 1.7656 1.0312-1.8711 2.4492-3.6602 0.83984-2.0781 1.8711 0.38672 3.2891-0.55469 1.5977-0.94531-1.8867-1.4062-1.1289-3.2734-0.37109-1.8867 0.66016-1.4141 1.7773-1.2148-0.9375-0.27344-2.1602-2.8203-0.55078-1.5-1.1406-7.9688 0.38281-0.37109 1.5977 0.83984 4.2109-3 2.3516 8.0625 5.3398-6.1914 2.0781 0.17969 3.3828-2.2422 0.15625-1.1172 1.25-1.4297 3.3711 7.9922 2.8086-0.66016 2.3516 1.1289 0.83984 4.6797 0.66016 3.8516-0.66016 1.6797 0.75391 0.097657 1.2148-1.6914 1.8711-2.2461-0.64844-1.8711 1.0312-3 3.6484 0.17969 1.1289-4.7734 5.4336-0.46875 1.875 2.4336 0.66016 0.9375 1.3086-3.5742 0.47656-3.0977 4.0234 0.097656 2.1836-1.7773 2.793-3.0977-2.4453-4.7852 0.66016-1.7773 1.5938 2.2578 1.8008 7.582 0.28906-0.5625 2.2422-6.4688 1.0312-2.6172 3.5664 2.5312 1.5 0.83984 1.6914 0.66016-0.85156 6.1797-0.83984 0.85547 0.5625-2.4492 2.1602-2.5195 0.37109-2.1602 3 2.0742 0.56641 5.0547-0.75781 1.5-1.8711 1.4141-0.27734 0.17969 0.83984-1.4141 1.875-1.7656 0.66016-2.0742 2.7109 1.4023 1.1289z"/>
  <path d="m253.26 536.09-0.9375 1.1133 1.5977 1.1289 0.37109 1.6914h-1.6797l-1.418-1.0312-1.7734 2.1484 0.17969 1.5 0.93359 1.332 0.20312 1.582-0.5625 1.5977-1.5 1.1172-0.48047 0.67188 1.5 0.5625 8.0664-1.0312-0.19531-4.6094 1.5117-0.19141 3.9375-4.6797 0.46875 6-2.0625 1.1289-3.0977 6.4688 0.19141 1.8828-1.0312 1.582 0.19141 4.418 0.46875 1.1172v3.0938l-1.9688 3.5781-0.20312 1.8594-2.1484 4.2344-0.27734 2.3398 3.1914-0.19141 1.2148-1.5977 0.37109-2.0508-0.17969-1.5938 1.0312-1.9805-0.28906-1.9688 2.4375-3.2773-0.17969-1.5117-1.3203-2.5195 1.3203-1.6914 1.5117 0.93359 0.35938 1.5 1.1406 0.84375 0.16797 1.0312 1.5117 1.7031 4.0195-8.543-0.16797 1.7734 0.35938 1.1289 2.5469 1.7891-1.9688 0.27344-1.6914 2.2578-0.38672 2.0625 0.19141 1.4062 2.8086 4.2227 0.28906 1.6914-0.19141 1.3086-0.56641 0.75781-1.3047 0.83984-6.375 12 0.27734 4.5117 2.6172-0.57813 0.38281-0.46484 2.6172 0.10547 4.8945 4.0312h1.5859l-0.28906-1.6914-0.45703-0.38281-0.28906-2.4375 4.8867 2.2578 0.93359 1.3203 1.2148-0.19141 3.1914-2.1602 1.1406-0.17969 1.7617-0.94922 0.57812-1.9688 1.6914-0.5625 1.8594 0.46875 0.75781 1.3047-2.3555 3.3867 0.10937 1.125-0.75391 1.6953-2.9062 2.7109 0.17969 1.7891 2.2578 2.5312 1.0195 5.3398 1.9805 1.5938 1.3203 2.4258 1.2109-0.15625 0.9375-1.6094 1.5 0.27734 3.1914 2.2422-1.5117 1.9922-0.085938 1.1914-1.2109 0.68359-1.5977 1.9648-0.66016 2.1367 1.5 2.4609-0.37109 0.5625-0.37109 1.875-1.8828 3.0938 1.7852 3.1914 1.8711 1.4062-1.0312 0.17969-3.3828-1.1172 0.66016 2.7109-0.92578 0.28906-1.7852-1.4141-14.172 2.2539-3.6484 3.5664-0.48047 1.5938-6.6484 6.0859 1.5977 0.46875 3.3711-1.0938 1.2227-1.5234 2.2461-0.38281 1.3906 0.94531 0.86328 13.703-1.7891 2.3555-4.2109 1.75-1.1406 1.5234-2.4336 0.27734-5.3516 3.5625-4.5859 0.66016-1.2227 1.5 0.28516 1.5977 1.2148 0.93359 0.19141 1.3086-0.9375 1.3203 0.085938 0.83984 1.0312 0.74609-0.83984 1.2227 4.0312 0.46875 3.7461-0.9375 0.75391-1.0312 2.2461-0.27734 1.1367-1.4141 0.9375 0.66016 2.1602 2.9023 2.0625-0.27344 0.17969 1.3047-2.6133 0.097656-0.9375 1.3086 1.5 1.1289 2.7969-0.27734 1.5117-1.9688 2.0625-0.28906 1.6953 1.3203 0.082032 1.3086 0.75781 0.56641 0.17969 1.2109 2.8203 2.1602 3.0117 1.0547 3.8398-0.58594 0.55078-0.74609 0.10938-1.5938 1.125-1.5 3.1797-0.46875 3.9375-1.9688 1.1289-1.4023 3.1914-1.9805-11.352 13.223-0.27734 1.2227-0.48047 0.57812-5.1602 0.63672-2.3398-2.2227-1.3906 0.25391-2.2695-0.37109-7.5117 1.0312-2.1328 4.8711-1.9805 1.0312-1.5117-1.1289-1.875 3.0977 0.28906 2.2695-5.7109 6.3828-1.8867 0.15625-5.9023 7.5234-4.2344 2.7227-2.0547 0.27734-2.1484 1.0312-0.57422 2.5312 3.4688-0.17969 1.043-1.4141 1.6797-0.27734 2.0664 1.2227 0.28516 2.2461-0.67188 0.19141 1.3203 1.0312 1.4062-0.19141 1.0312-2.0625-0.17969-1.2148 3.1797-2.9141 1.9688-0.27734-0.085938-1.0312 0.9375-1.4023 9.9336-1.6914 0.83984-1.4062 1.332 1.2227 0.55469 1.9688 0.85156-0.09375 0.93359 1.5938 2.4375 1.9688 2.1602 0.27734-0.097656-1.3086 2.0664-1.4062 1.3086-1.7852 0.28516-1.5-0.19141-1.1289 0.66016-3.3711 6.6484-3.3711 7.1406 0.5625 3.2773 2.3398 10.988-0.83984-0.67188-2.1836 9.7578-1.668-0.19141-1.2109 0.83984-1.0586 7.043 1.7148 1.5 1.1172 24.48-1.0312 4.6914-3.1094 1.8828 0.10938 0.92578-1.2344-0.17969-1.4062 3.4688-1.9453 2.543-0.58594 2.2422-1.5-0.46484-3.0977 0.57422-3.0938-1.2344-0.83984-3.6602-0.097656-0.55469 0.74609-8.9258-1.0352-1.3086-0.83984-0.55078-0.93359 0.35938-0.46875 6.3945-1.5977 0.83984-1.125 0.19141-1.9688-1.2344-0.9375-2.5312-0.5625 1.2227-0.085938 1.2109-1.6914 1.8867-0.19141 1.4023 0.38281 0.66016-0.85156 2.4258-0.37109 0.76562-1.7773-1.5117-0.38281-1.957-1.5 4.7773-1.3086 3.1914-2.9023 3-10.598-0.75391-2.3398 0.46875-2.8438-4.2148-4.5-12.574-3.6484-4.5 1.3086-1.1172 2.7344-1.3203 1.2969-2.4336-0.09375-0.27734-0.66016v-1.5859l-1.2227-2.1367-0.097656-1.1523 3.7578-2.5312-2.0664-8.625-1.8828-2.3438-2.6172-1.6797-2.3516-16.809-3.5625-3.1836-1.5859-3-0.20312-1.4023 0.28906-1.3203-3.9375-3-7.2109-2.1602-1.1406-0.83984-2.8086-11.82-1.8828-1.4023-1.2109-5.1484 0.55078-2.8203-0.55078-3.0117-14.547-13.598-7.1289 1.5977-5.1562-0.83984 0.64453-0.83984 3.1094-0.57812 0.27734-1.9648 3.5625-2.2344 2.2578-0.30078 1.1133-1.3086 0.94922-3-7.5977-0.83984 6.1094-3.2852 1.5859-0.19141 5.7109-7.7891 0.37109-2.7969 2.1602-2.9141 1.7031-7.418 2.5312-3.9375 0.375-1.5117 1.2109-1.5-5.1602-5.9023-1.6797 0.37109-1.9688 1.1289-7.9805-0.46875-1.6914 0.66016-6.7422-0.9375-3.6602 1.5859-1.1406 1.2227-2.7969 0.66016-0.94922-0.75391 0.66016-2.5312-0.09375-0.64844 1.9805-2.7266-5.4492-2.5312 1.2109 0.19141 5.2578-4.5938 2.3398-0.67187 7.4141-7.6797 1.1289-2.6289-0.66016-1.5977 1.1289-2.3398-1.1289-1.5938-18.094 3.5625-1.8867-1.6914-2.8086 0.46875-1.0312-0.74609-1.6914-0.48047-1.4023-1.0195-0.66016 1.0195-1.2266 5.918-0.93359 1.6914-1.7773 0.5625-1.3203 4.1172-1.7617 2.5312 3.5508 3.0977-2.4492 1.043-3.8398 0.27734-0.83984-0.57812-2.3516 0.85156 0.5625 3.9375-0.93359 1.2227 1.4023 1.9688-0.37109 1.3203-1.2227 1.0312-0.55469 2.2461 1.3086 1.6914 0.27734 1.1406-1.0312 2.0391 1.2227 4.043-2.3398 2.7266 0.16797 4.5-1.1992 1.4141z"/>
  <path d="m814.37 1040.4-2.8086 2.5312-1.3203-1.5977 0.28906-1.7734-16.883-1.9688-2.8203 2.1484-10.598 0.5625-2.9141-3.5625-5.1367 0.85156-2.0742-2.5312-0.375 2.625-2.3516 0.085938-0.64844 6 22.598 2.6289 3.9492 4.8711 3.6484-2.7109 8.1719-0.28906 3.6602-2.8086h9.082l3.3828-2.7227 0.19141-1.5859z"/>
  <path d="m809.03 917.68h-0.66016l2.6172-0.49219zm-19.043-3.1211 5.4375 2.3398zm-36.395 3.4688v-1.1992l0.097656 2.7852zm-12.844 2.0664 4.1289 0.83984zm-237.04-307.36 3.5742 0.34766zm310.29-80.961-6.8398-4.1289zm-178.31 262.81-0.9375-0.9375v-1.2227 1.2227zm16.031-20.625-1.1289 1.3086zm48.59 35.555h-1.4023l3-0.097656zm361.58-76.262-4.2109-0.74219-10.703-6.7422-3.1914 1.3086-9.7422-4.8711-7.6094 1.5-12.098-11.531-1.7891 1.5-15 2.2578-3.6719-1.3086-2.8906-2.4375-1.3086-0.27734-3.9375 1.1289-4.4141-2.0898-1.1172-1.7539-0.48047-5.832-2.6289-6.3711-4.0312-3-12.289-1.3086-0.66016-2.2578 0.097656-1.6914-1.3086-1.3086-1.1289-4.0312 2.6289-2.7227 0.5625-2.0625-4.5-5.2578-1.1289-2.9023-3-2.8086-13.598-0.83984-3.7578 2.7227h-3.1836l-0.66016-0.74219-3.5625-1.1289-3.5625 5.0625-5.3516 1.4023-2.6172-1.0312h-2.543l0.74219-2.0625v-2.3398l-2.0508-4.3086-1.2344-8.5312-3.2773-5.1836 1.5977-3.3711 14.543 0.46875 3.1914-1.2227 3.2773-3.2773v-1.8711l-4.5977-7.7773-3.0117-1.5977-6.4688-0.27734-0.66016-1.6914 1.3203-3-0.20312-2.6289h-2.3398l-4.5859-2.1602-5.3516-7.7773-0.5625-3-4.5117-4.0312-0.83984-4.6094 3.1914-4.6914-2.9883-3.0977-0.097656-6.5742-3.4688-4.4023-4.7773-3.0977-10.789 0.19141-1.8711 1.6914-5.1719 0.74219-0.74219-0.74219-0.74219-5.0625-0.83984-1.3086-9 1.2227-2.2578-2.2578h-4.7773l-3.2891-2.2578 0.19141-6.4688-0.64844-1.8828-1.2344-1.2109-0.74219-2.0742-3.1914-3.2773-0.35938-2.3398-0.74219-0.66016-2.3398 0.17969v-1.4883l1.8594-1.9688 0.37109-8.9141-5.9023-6-6.4688-0.27734 6.4688 0.27734 0.097656-4.6914 4.3203-4.2227 0.35938-3.3828-3.8398-3.8398 0.9375-12.562-1.4023-2.9023v-2.3398l1.4023-2.0625h1.1289l1.9688-1.5 0.83984-1.9805 1.5-1.4883-0.74219-2.4492 3.2773-2.7969h3.0977l-0.55078-2.7344-2.543-2.6289-0.83984 0.83984-3.8398 1.6914-11.629-0.27734-4.9805-2.2578-5.3398-0.27734-1.3086-0.66016-9.7578-0.9375-2.1602 0.83984h-2.3398l-1.6797-1.1289-2.1602 2.9023h-10.609l-1.5117 1.5h-6l-2.6289 0.9375-1.1172 2.1719-11.27 4.2109-1.0195 1.043v3.1914l1.7656 1.7773-1.2109 1.1172 0.45703 10.141 2.6406 4.3203 2.4375 0.83984h2.9023l1.3086 1.2969 5.3242-2.7773 2.7344 3.1914v1.8828l-2.9023 4.2227v2.9023l1.5 0.37109h-1.8828l-0.27734 6.1914 1.6914 2.9141-0.17969 4.5-3.1094 3.9375-8.2578 4.6914-6.1797-0.66016-17.641-18.672-0.74219 0.74219h-2.1602l-2.3516 1.1289-2.4258 0.27734-1.6914 1.7031-3.9375 0.55078-5.7344 8.1719v4.1289l-1.4023 2.9023-5.3398 5.0625-1.3203 4.1289 2.8203 23.258 1.0312 1.043 0.92578 3.7422-0.55078 1.7773 0.83984 0.9375 0.19141 2.6172-2.7227 0.38281-2.3398 2.1602 0.097656 4.0312-0.5625 1.5977-3.2773 1.5117-11.449 0.26562-0.46875 1.5977 1.8711 5.6289-2.8086 1.0312h-2.4375l-5.8086 5.832-13.32-0.68359-2.7227-1.1055-2.5312-2.4375-1.4023-3.0977v-1.8828l-1.5117-1.8711-12.742-0.17969-26.734 11.258-1.3086 1.2227h-2.2578l-1.1289 1.2227-14.062 3-1.2344 1.1289-6.1094 2.4375-1.2109 1.2227h-2.3398l-3.8398 3.9375-1.6133 0.003906-1.5-1.5977-1.4141-3-2.6172-2.6289h-6.4805l-2.2578-2.1602h-4.3086l-5.2578-5.2578-7.4023 1.2227-4.3203 5.1602-1.7656-0.66016-2.2578 0.5625-1.2969 1.2227-2.4492-1.5977-2.6289 2.4375 0.27734 0.19141-0.66016 1.1289-3.1914 2.2578h-1.7773l-2.2578 1.0312h-2.5312l-1.1289 1.0273v1.5h-1.9688v2.0625h-1.4141l-1.2109-1.1289-3.4805 0.097657-1.6914 1.5-1.8594-2.0625 3.5508-3.1914 0.57422-1.5977v-1.5977l-0.9375-2.1602-2.0742 1.8711-2.8086 0.097656-1.3906-1.2227-3.3828-1.4023h-1.6914l-0.66016 0.46875-0.9375-1.5977h-3.7422l-1.043-6-0.5625-0.49219-0.55078-1.1055-0.097656-1.0547-0.20312-0.19141 0.10938-1.1992 0.27734-0.27734 1.2109-0.12109v0.39453l-0.5625 0.34766 0.37109 0.30078-0.085937 0.83984 1.3086 0.19141 0.19141 0.46875 0.26562 0.27734 0.38281-0.49219-0.19141-0.5625-0.28906-0.27734-0.085937-0.44531 0.17969-0.097656 0.28906 0.27734 0.37109-0.49219 0.085937-0.5625 0.38281 0.39453 0.097656 0.37109h1.2109l0.28906-0.30078h0.19141l0.26562 0.21484h-0.45703l-0.38281 0.37109 0.48047 0.34766h0.19141l0.27734 0.30078 0.5625-0.12109 0.19141-0.19141h0.27734l1.1289-0.34766 0.085937-0.19141-0.55078-2.0625-4.0312-3.1094-2.2578-0.17969-0.46875 0.55078 0.26562 0.28906h0.48047l-0.67188 0.35937 2.4375 1.1406 0.20312 0.46875 0.46875 0.19141 0.83984 0.74219-0.5625 0.37109-0.74219-0.82812-0.5625-0.19141v0.64844l-0.38281-0.085937v-0.83984l-0.35938-0.20312-0.097656-0.26562-0.66016 0.097656-0.38281-0.37109h-0.35938l-0.74219-0.67187 0.17969-0.19141-0.66016-0.35938-0.27344 0.42578h-0.74219l-0.57422 0.19141h-0.74219l0.74219-0.64844 0.57422-0.097656 0.17969-0.10938 0.20312-0.27734-0.20312-0.5625v-0.66016l-0.35938-0.46875h-0.48047v-0.097656l0.57422-0.085938 0.35938-0.38281-0.64844-0.097657 1.3906-1.2227 0.94922 0.27734 0.83984-0.83984 0.27734-0.66016 0.17969-0.097656-0.17969-0.46875v-0.37109l-0.57422-0.46875h-0.55078l-0.28906-0.27734 0.48047-0.5625-0.19141-0.19141-0.47266-3.5547h0.46875l0.37109-0.35937v-0.66016l-0.48047-0.46875-0.19141 0.19141h-1.8594v-0.46875l0.83984-0.27734v-0.28906l0.46875-0.17969 1.0312 0.46875 0.35938-0.38281 1.043 1.1406 0.45703 0.097656 0.9375 1.0312h-0.45703l-0.48047-0.37109-0.55078-0.097657v0.19141l0.83984 0.74219h0.55078l0.097656 0.097656-0.26562 0.27734 0.26562 0.085938 0.28906 0.28906v0.27734l-0.5625 0.37109 0.83984 0.74219 0.92578 0.27734v1.0312l0.28906 0.46875-0.097656 0.27734 0.27734 0.83984-0.097657 0.27734 0.45703 0.46875 0.94922 0.19141v1.3086l0.27734 0.57422v0.82812l0.46875-0.085938v-0.83984l-0.27734-0.28906-0.27734-0.74219 0.27734-0.27734 0.5625 0.37109 0.5625 0.097656 0.5625-0.19141 0.19141 0.19141v0.46875l0.46875 0.48047 0.097656 0.82812-0.27734 0.27734-0.5625 0.097657-0.46875 0.38281 0.19141 0.085938 1.5977 0.19141 0.097657 0.38281h0.46875l-0.097657-0.28906 0.097657-0.45703 0.27734-0.28906 0.74219 0.66016 0.27734 0.097656h0.46875l0.67188 0.5625h0.83984l0.35938 0.28906h0.66016l0.66016 0.27734h0.9375l0.83984-0.74219 2.2578-0.097656 0.48047-0.66016v-0.57422l0.5625-1.5v-3.1914l-0.28906-0.74219 0.19141-0.19141h0.57422l-0.75781-2.0625-1.5977-1.7773-0.26562-1.0312 0.19141-0.28906 0.55078-0.085937 0.10938-0.27734-1.0312-0.9375v-0.74219l-1.043-1.7773-0.085938 0.17188v0.74219l-0.27734 0.19141 0.37109 0.26562v0.94922l-0.46875-0.10938-0.27734 0.28906 0.66016 0.55078-0.17969 0.20312 0.097656 0.46875-0.83984 0.085937-0.38281 0.28906-0.38281 0.10547-0.28906 0.66016h-0.66016l-0.46875-0.46875v-0.57422l0.74219-0.17969 0.46875-0.46875h-0.27344l0.097656-0.27734-0.097656-0.37109 0.74219-0.38281h-0.5625l-0.46875-0.35938h-0.46875l-0.27734-0.38281-0.16406-0.67188-0.38281-0.26562h-0.66016l-1.0312-0.67188-0.097656 0.20312v0.64844h-0.37109v-0.35938l-0.55078-0.097656-5.0742 2.4375-0.19141 0.45703-1.1289-0.097657-0.5625-0.83984-0.27734 0.28906-1.043-0.28906 0.097657-0.66016 0.28906-0.45703 1.2969-0.74219v-0.27734l-0.17969-0.20312-0.83984-0.17969-1.1289 0.097656-0.37109-0.75781-1.5117-1.1172h-0.92188l-0.19141-0.48047h1.4883l2.9023 1.0312 3.0977-1.0312-0.085937-0.45703 0.83984-0.5625 0.085938-0.19141-0.64844-0.28906 0.46875-1.0195v-0.38281l-0.097656-0.27734-1.3203-0.085937-0.83984-0.38281h-0.45703v-0.45703l2.3398 0.17969 0.19141-0.26562-0.93359 0.003906-0.097656-0.28906 0.37109-0.35938h1.8711l0.46875 0.26562 0.097656 0.38281 0.27734 0.35938 0.64844 0.19141v-0.32031l0.28906-0.26562-0.5625-0.57422 0.9375-0.82812 0.38281-0.9375-0.003907-0.75781-0.28906-0.85156 0.37109-0.9375v-0.27734l-0.74219 0.097656 0.83984-0.74219-0.83984-2.5312 0.37109-1.4023 1.4023-1.8711 0.37109-1.1406 0.5625-0.097656 1.2227 0.38281v0.45703l-0.46875 0.67188 0.097657 0.74219-0.55078 0.097657-0.10938-0.27734-0.74219 0.27734-0.097656 1.0312 0.5625 0.74219h0.27734l0.19141-0.37109 0.27734-0.27734 1.5 0.097656 0.19141-0.19141 0.28906-0.74219 0.45703-0.46875 1.2344-0.097656 0.26562 0.19141-0.26562 0.27734v0.37109l-0.28906 0.26562 0.83984 0.83984h0.46875l0.20312-0.085937 0.19141-0.46875-0.10938-0.74219 0.20312-1.043 1.7656-2.7969 0.57422-0.38281-0.097656-1.7656 1.2109-1.4141-1.7656-1.3086-0.28906-0.64844-0.55078-0.28906-0.28906-0.26562-2.9883 0.37109-0.48047 0.45703-1.5 0.097656-1.9688-0.92578h-0.37109l-0.35938-0.67188 0.015625-0.5-0.3125-0.17969-0.45703 0.48047-0.67188 0.26562-0.27734 0.27734 0.097656 0.28906-0.27734 1.3086-0.27734-0.85156 0.19141-1.1289 1.8711-1.9688-0.097657-0.55078-1.4023-1.043-0.37109 0.10938-0.5625-0.20312 1.4023-0.097656 0.27734 0.19141 0.55469-0.63281-0.19141-0.83984-0.5625-0.38281-0.19141-0.66016-0.37109-0.45703 0.37109-5.7344 0.74219-0.27734 1.8711-5.5312 1.1289-0.83984-0.27734-6.2031 0.37109-0.66016-2.0625-1.8594-0.19141-2.0742 0.37109-1.6914 1.0312-1.0312 0.57422-0.20312 1.1172-1.2109-0.19141-0.38281-1.7773 0.57422-2.9023 2.9023-1.0312 0.46875-0.37109 0.46875-4.4023 0.46875-6.5742 10.691-2.3398 1.7031-3.4688 0.9375-2.9023-0.66016-2.0625 0.74219-0.37109 0.5625-3.2773 0.37109-0.83984-0.27734-1.0312 0.83984-0.37109 0.55078-0.097656 0.48047-4.7773 7.2227-0.10938 1.9805 0.48047 0.55078h0.17969l-0.17969-1.7773 1.0195 0.83984v1.4023l2.2578 1.5 0.17969 0.37109 0.57422 0.46875 0.37109 0.9375 0.64844-0.19141 0.38281-0.26562 0.097656-0.85156-0.27734-0.27734-0.20312-0.5625v-0.55078h-0.17969l-0.67188 0.35938-0.17969-0.097656 0.5625-0.5625-0.5625-0.45703-0.097656-1.3203-0.19141-0.35938 0.19141-0.28906v-0.66016l0.26562-0.27734 0.28906-0.097657 0.19141-0.46875 0.35938-0.37109 0.57422-0.27734 0.27734-0.37109v-0.26562l0.27734-0.57422-0.38281-0.27734 1.043-1.4023 1.5-0.097657 0.74219-1.043v-0.45703l0.46875 0.37109 0.37109-0.37109v-0.5625l0.46875 0.27734 0.19141 0.37109h0.46875l0.37109-0.37109 1.7031-0.10938 0.92578-0.74219-0.27734-0.45703-0.74219-0.66016-0.19141-0.9375 0.37109 0.66016 0.83984 0.55078 0.46875 0.67188 0.46875 0.17969 0.097656 0.48047 1.0312 0.74219 0.5625 0.19141 0.38281-0.67188 2.0508-0.82812h0.28906l0.64844-0.37109 0.74219-0.097656v0.46875l1.1406-0.37109 0.17969-0.28906h1.5977l1.5-0.64844 0.28906-0.27734h0.37109l0.5625 0.19141 1.1289 0.83984h-0.37109l-0.5625 0.19141-0.37109 0.27734h-2.4492l-0.45703 0.46875-0.19141 0.83984-0.44922 0.17188-0.28906 0.26562-0.085938 0.38281-0.46875 0.35937 0.097656 0.57422-0.57422-0.5625v-0.26562l0.38281-0.37109v-0.46875l-1.7773-0.37109-2.8086 0.46875-0.75781 1.0195-0.085938 0.28906-0.83984 0.66016-0.28906 1.1289 0.83984 0.74219v0.57422l-0.45703 0.26562v0.9375l0.17969 0.5625h0.19141l0.5625 0.46875 0.097657 0.37109-0.097657 0.57422-0.92578 1.0195-0.20312 0.48047v0.45703l0.46875-0.5625 0.66016-0.37109h0.9375l0.19141 0.19141 0.097656 1.7773-0.46875 0.94922v0.55078l0.67188 0.28906h0.83984v0.46875h-0.48047l-0.66016 0.27734h-0.27734l-0.26562-0.20312-0.20312-0.27734v-1.0195l0.28906-0.74219-0.38281-0.38281-0.19141 0.097657-0.35938 0.37109-1.2344 0.097657-0.83984 0.83984-0.125 0.74609h-0.46875v-0.66016l-0.45703-0.27734 0.55078-0.82812-0.097656-0.28906 0.66016-0.55078 0.27734-0.57422v-0.66016l0.37109-0.35937-0.46875-1.7891-0.27734-0.27734-0.097657-0.35938-0.46875-0.48047-0.9375 0.27734-0.9375-0.27734-1.5977 1.8711-0.27734 0.66016 0.83984 0.19141 0.27734 0.27734-1.8711 0.57422-0.83984 1.5977-0.74219 0.26563h-0.27734l0.17969 1.2227 0.28906 0.46875 0.37109 0.27734 0.19141 1.5117-0.46484 0.34766-1.6914-0.37109 0.66016 0.27734h-0.46875l-0.48047-0.38281v-0.66016l-0.45703-0.45703-0.097657-0.28906 0.097657-0.45703h-0.38281l-0.26562 0.37109h-0.48047l-1.5977-0.67187h-1.5l-0.19141 0.37109h-0.26562l-0.10938-0.66016-0.92578-0.74219 0.19141-0.19141-0.66016-0.17969-0.097657-0.48047 0.19141-0.19141-0.097657-1.3086-0.83984 1.3086-0.10938 1.2227-0.46875 0.83984-0.085937 4.9805 0.35938 0.17969v-0.66016l0.28906-0.35938 1.1172 0.83984-0.74219 0.097656-0.26562 0.27734 2.2578 1.9688 0.097656 0.17969-0.74219 0.75781-0.097657-0.27734v-0.48047l-0.94922 0.097656-0.37109-0.35938-0.74219-0.38281-0.097656 9.6836 0.46875 0.35937 0.20312-0.27734-0.48047-3 2.6289 1.5 0.5625 0.74219 0.10938 1.2227 0.27734 0.5625 0.66016 0.5625 0.097656 0.67188-0.19141 0.55078-1.7031 1.7891-0.83984 0.45703h-0.35938l0.097656-0.83984-0.37109-0.26562-0.37109-2.8203 0.17969 7.9805-0.17969 0.64844-0.75781 0.85156 0.097656 1.6914-0.66016 0.66016 0.5625 0.46875h0.75781l2.6172 2.2578 0.28906-0.37109-0.48047-0.9375-1.5-1.2227 0.67188-0.74219 1.2227-0.097657-0.28906 0.27734 0.38281 0.46875v0.64844l3.0977 2.1719h0.27734l0.66016 0.5625h0.66016l0.5625 1.0312 0.37109 4.5 0.5625 1.3086-0.66016 5.7344 0.66016 0.5625v4.2969l2.1484 1.9922 1.0547 2.2578 0.82813 0.83984v2.0625l-1.5 1.5977h-1.9805l-1.2969 2.8086h2.3398v3.1914l1.3086 1.0312h1.7773l-0.74219 2.3398h-1.2344v1.2227l0.83984 1.4023 1.7773 1.3086h-3.9375l-0.74219-0.66016-2.0625-0.27734v0.9375l-1.6914 1.2227 0.55078 8.7227-1.7656-3.3711-1.4141-1.3086h-1.3086v3.5898l0.94922 0.91016-1.5 0.19141-1.9805-1.7773 0.19141-2.3398-0.64844-2.1602-0.74219-0.66016-11.258 0.9375-1.7773 1.5977v1.5l-1.3086 1.2227 0.64844 2.3398 0.83984 0.83984h1.3203l1.2227 1.1289-1.9688 0.83984-1.1289-0.83984-0.66016 0.097656-0.19141-0.27734-0.5625-0.097657-0.25-0.62109-0.20312-0.19141-0.097656-0.25391-1.957-0.68359v-0.097656l-0.48047-0.27734v-0.27734l-0.45703-1.4023 0.27734-0.37109-0.74219-0.37109-0.097656-0.19141h-0.57422l-0.45703-0.19141-1.4023 0.19141-0.66016 0.37109-3.2773 0.37109-1.043 0.49219-0.19141 0.34766-0.46875-0.34766-0.19141-0.30078h-0.9375v0.37109h0.097657l-0.097657 0.097656h-0.19141l-0.085937 0.097656-0.10938 0.19141 0.19141 0.097656h0.37109l0.19141 0.19141-0.27734 0.27734 0.097656-0.16797v-0.12109h-0.66016l-0.097656-0.19141v-0.46875l0.28906-0.19141h-2.9141l-5.7227 1.9688-3.0977 2.3398-0.48047 1.7773-0.37109 0.5625 0.20312 0.37109v0.21484h-0.27734v0.16797l0.27734 0.76953 0.17969 0.16797-0.085937 0.27734 0.17969 1.0547-0.26562 0.83984 0.17969 0.37109-0.5625 0.070313-0.45703 0.39453 0.83984 0.74219 0.5625 0.070313 0.19141-0.070313h0.26562l0.83984 0.44531h0.67188l0.17969-0.19141 0.94922-0.25391 0.19141 0.16797v0.21484h0.5625l0.27734 0.19141h-0.48047l-0.35938 0.19141-0.94141 1.3164-0.20313 2.1602 0.10938 0.37109 0.74219 0.9375 2.5312 0.16797 1.5-0.44531h0.37109l0.37109-0.19141 0.19141-0.27734h0.5625l0.19141 0.27734-2.8086 0.74219-0.19141 0.63672 0.26562 0.49219 0.097656 1.4023-0.83984 1.5-0.92578 0.46875-0.46875 0.5625-0.46875 0.27734-0.83984 0.19141-1.1406 0.74219-0.097656 0.27734v0.27734l-0.64844 0.74219-0.46875 0.19141h-0.48047l-0.55078 0.19141h-0.37109l-0.074219-0.066406-0.27734-0.097656-0.38281-0.46875h-0.45703l-0.75781-0.66016h-1.5l-1.0312-0.66016h-0.74219v-0.5625l-0.9375-0.19141-0.46875-0.46875 1.3086-0.097656 1.0312-1.3086-0.55078-0.19141-0.097656-0.27734v-0.37109l0.097656-0.30078 0.26562-0.16797v-0.37109l-0.26562-0.27734v-0.9375l-0.48047-0.46875-0.097656-0.66016 0.27734-0.46875 1.9805 0.37109 0.5625-0.37109h0.35938l0.27734-0.19141v-0.39453l0.28906-0.25391h0.35938l0.38281-0.58984v-0.34766l-0.83984-0.74219-1.2344 0.19141-0.46875 0.37109-0.19141-0.21484-0.19141-2.6055-0.66016-1.2461 0.19141-0.44531-1.0312-0.49219-1.3086 1.0547v0.19141l0.20313 0.5625-0.67188-0.21484-0.46875-0.46875h-0.27734l-0.5625-0.63672 0.48047-0.83984-0.94922-0.19141-0.64844 0.27734-2.6406 10.5 1.0312 0.46875-0.9375-0.097656-0.37109 0.27734-3 5.7227-3.7422 3.7422v0.37109l-0.5625 0.46875 0.83984 1.0312h0.35938l1.1406 0.83984h-1.043l-0.64844-0.66016-0.45703 0.015624-0.9375-0.9375h-0.5625l-0.27734 0.19141 0.097656 2.1602 0.45703 0.46875h0.28906l1.1172 0.83984h0.38281l1.2969 1.2227h0.67188l0.46875 0.46875 2.2578 0.9375h1.4023l1.2227-1.0312 0.26562 0.27734h0.28906l0.19141 0.097656h0.37109l0.37109-0.27734 0.097657 0.097657 0.37109-0.27734h0.46875v0.27734l0.5625 0.097656v0.5625l-0.27734 0.19141h-0.9375l-0.19141-0.19141h-0.5625l-0.27734 0.27734h-0.66016l-0.27734-0.097657-0.74219 0.097657-1.0312 0.66016h-0.5625l-0.66016-0.66016-2.6289-0.37109-1.3086-1.1289v-0.19141l-0.27734-0.097656-1.043-0.9375h-0.55078l-0.37109-0.46875h-0.27734l-0.38281-0.37109-0.26562 0.19141h-0.66016l-0.19141 0.19141h-0.66016l-0.48047 0.37109v0.66016h0.38281l0.35938-0.37109 0.38281 0.097656 0.74219-0.097656 0.45703 0.5625v0.5625l0.28906 0.27734 0.19141 0.37109 0.26562 0.27734h0.83984l0.48047 0.46875h0.26563l0.83984 0.66016h1.6094l0.5625-0.46875 0.17969 0.27734-0.44531 0.47656-0.66016 0.27734-0.19141 0.19141-1.9805-0.097656-0.26562-0.27734h-0.66016v0.19141l0.46875 0.46875h0.37109l0.17969 0.19141h0.28906v0.5625l-0.28906-0.19141-0.17969-0.27734h-0.83984l-0.28906-0.27734h-0.27734l-0.35937 0.19141-0.19141 0.19141-0.5625-0.097656-0.27734 0.27734 0.74219 0.74219 0.19141 0.46875 0.45703 0.37109h1.043l0.37109 0.37109h0.5625l0.27734 0.097656h0.46875l0.45703 0.37109v0.66016l-0.35938 0.27734-0.097656 0.19141-2.1602-0.097656-2.1719-2.0625h-0.66016l-0.45703-0.46875-2.4258 0.011718-0.57422 0.37109-1.0312-0.9375 0.10938-0.37109 0.83984 0.83984h0.26562l0.27734-0.19141 1.8828 0.097656 0.5625-0.46875-0.003906-0.27734-0.48047-0.46875-2.8086-0.097656-0.37109 0.27734h-0.66016l-0.26562-0.27734h-0.57422l-0.17969 0.19141-0.57422 0.19141-0.66016 0.5625-0.45703 0.097657-0.10938 0.37109 0.37109 0.37109v0.27734l1.4141 1.5 1.2969 0.097656 0.5625-0.46875v0.46875l0.74219 0.86328h0.48047l0.83984 0.34766 1.1172-0.19141 0.19141-0.16797 0.10938-0.58984 0.35938-0.37109 0.37109 0.097657 0.37109-0.097657 0.37109 0.27734 0.20312 0.27734h0.35938l0.66016 0.5625 1.8828 0.097656 0.46875 0.49219-0.27734 0.16797-0.19141 0.46875v-0.37109h-0.41406l-0.19141 0.19141h-0.66016l-0.20312 0.19141-0.27734-0.27734-0.17969-0.097656h-0.37109l-0.75781-0.83984-0.9375 0.097656v0.74219l-0.83984 0.19141-0.35937 0.27734h-1.043l-0.27734-0.27734h-0.66016l-0.35938 0.27734-1.2344-1.0312h-1.0312l-0.66016-0.66016h-0.37109l-0.83984 0.37109-0.5625-0.097657-1.3086 0.74219h-2.6289l-0.9375 0.83984h-1.3086l-4.7031 3.043-3.2773 0.25391-1.1406 1.2227-9.6602 0.96094-2.4375 1.2852-9.1094 0.46875-4.957 4.1289-0.48047 6.1914-1.4023 1.5234v3.9375l2.1602 2.1602-6.0977 6.0977h-6.1914l-4.5 2.5312h-2.0742l-7.0312 4.9688v2.0625l1.2227 1.2227h2.4492v2.0625h-2.9141l-1.7734 1.8828-20.461 0.16797-2.3398-2.2578-2.2422-5.1602h-10.703l0.74219 5.3398 2.5195 2.5312v5.832l2.7344 2.6055v3.9375l1.6914 1.8008-1.6914 1.7773-12.672 0.19141-1.8711-1.8711-2.6172 1.0312-1.8945 1.8711-7.6797-6.8398-2.7969-0.003906-2.7344 2.7227-1.8711-1.8711-2.9023 2.9023-14.438 0.46875-5.1719 4.3086v3.0977h5.1719l-0.38281 6.6602h-2.0508v2.0625h2.8906l3.2891 2.0625v2.5312h10.691l3.7422 3.6602 4.125 0.003907 2.0742 3.7422h11.16l1.6914 4.5977 4.5-0.46875 2.9141 0.83984-3.2773 3.3945 0.35937 4.1289 7.0312 9.9375 8.2578 2.4375 2.2578 2.3398-2.6289 4.7773 2.8086 9.0977 6 6 0.20312 6-2.0742-2.0625-1.5977-4.5977-1.8594-1.8711h-2.7344l-2.4375 31.801-1.6914 1.5977 0.47266 4.9844-7.1289 9.4688h-12.383l-1.9688-1.9453-2.9141-1.1523h-2.1484l-2.8086 2.3398-5.3516-0.5625-2.5312-2.5312-63.793-1.2148-6.8398-4.7773-8.4375 0.375-3.0977 1.6914v4.9922l-1.8828 1.1992-13.031 2.3398-4.6914 5.3398v1.2383l2.4375 2.8789 3.2773 1.8945 0.83984 1.6914 0.37109 18.84-1.2227 1.2227 0.66016 1.8711v2.0625l1.4141 3.9609v4.1992l1.1172 1.1289 0.9375 6.3008-1.5117 1.5977 0.10938 4.5977-1.2227 3.5625v4.5977l-3 3-0.37109 6.2773-2.3359 2.4375-0.74219 1.9688-2.5312 2.5312 0.097656 1.7773-1.2227 1.2227-1.0312 8.7461 1.0312 1.0312v1.5l2.6172 0.37109 4.7891-4.8008v1.7148l-3.7422 4.9688v2.5312l6.8398 0.37109 0.66016-0.66016-1.3086 1.2852 1.3086 1.2461-1.3086 2.9023-0.37109 12.84 1.0312 2.9023v2.2578l-3.2031 3.1914 0.74219 3.4688 0.75781-0.83984 7.8711-0.83984 4.9805 1.6914h6.5625l0.83984-0.83984 4.4023-2.2578 0.5625-1.6914h10.141l4.9688 4.9688 3.7422 1.0547 1.2227 1.1992v4.5977l0.83984 1.8711 1.2227 1.2227 1.5977 5.832 4.6094 3.5625 2.0625 0.19141 1.2227 1.2227h2.2578l2.5312-1.0312 2.9023-3.0977v-2.2656l3.8398-2.3398 7.2227-0.19141 2.7344-3.7422h1.0312l1.0195-1.0312h9.1094l2.0508-0.86328 9.2891-0.53906 1.2344 1.1992h4.7773l3.0977 1.0312 3.0977-3.0977h1.2227l4.8828 1.5977 4.8711-4.8711 1.4023-6.2773 7.6914-5.3398h6.3828l2.3398-0.83984 0.003907-1.3359 3.1914-3.2773 2.4375-8.1602 6.9375-7.6211h1.5977l4.9688-3.7305-6.8398-8.6523-0.5625-1.6914 1.2109-10.777 13.621-16.777 5.3398-3.0234-1.2227-1.1055v-3.3711l2.4375-1.3086 1.6914-1.8008 8.5312-3.0977h2.4375l1.0312-1.1289h2.0625l4.3203-4.3086h2.4375l2.5312-2.6289 0.66016-1.6914 0.097657-4.4023 1.5-1.5977v-2.0625l1.0312-1.0312v-7.6914l-0.75781-0.37109 0.10938-4.9688-0.37109-1.2227 1.2227-5.1836 3.6602-3.6367 2.2578-1.1523 3.0977-0.19141 9.5625-6 2.1719 0.19141v1.1289l0.48047 0.66016 0.085938 0.58984 3.7422-0.097657 0.66016 0.34766 2.1602 0.097656 0.74219 0.74219 1.1289 0.39453 1.3086 1.1992h0.94922l0.55078-0.44531 4.7773-0.74219 0.57422-1.332 0.46875-0.46875h0.55078l2.0742 1.3086v0.49219l-0.62891 0.55859-2.4258 0.30078v1.0078l5.4375 0.74219 0.37109 0.37109v0.46875l0.5625 1.0547-0.19141 0.37109 1.0195 0.44531h0.48047l3.0117 1.1523h1.2969l0.28906 0.91016 3.3594 1.332 0.66016-0.27734 3.6719 0.37109 0.35938 0.25391 0.9375-0.73047 8.2578-1.3086 0.83984-2.832 1.3203-1.5977 4.2109-2.5078 0.48047-0.83984 0.5625-0.49219 0.82812-0.097657 0.66016-0.66016 2.0742-0.9375v-0.5625l1.3086-1.1992 2.3398-0.12109 1.2969-1.3086 3.2031 0.19141 0.83984-0.83984 8.6289-2.8086 1.5977-3.5625 4.9805-3.6602v-2.4375l5.7969-5.8086h7.043l4.9805 3.6602h5.7227l12 6.2773 2.543 11.184 3.6484 4.5703v4.6211l4.5977 4.4766 0.74219 2.0898 34.332 28.598 4.2227-0.097656 3.1914 3.1914h8.0742l13.031 12.863h5.1602l9.2891 12.277 4.9805 2.5312h2.4258l2.543 2.0625v6.1914l5.3398 1.6914v7.8711l2.8906 2.9023-2.4258 2.4609-1.3086 3.2773h-2.9023v4.2227l-1.5977 3.6602-3.5742 3.5625v2.7227l9.3828 1.5977 8.6289-10.691v-5.0625l3.2773-3.2773 7.8828-2.9023-1.2227-8.2695-9.2891-9.3711v-4.3086l7.5117-7.5977h2.6289l2.9023 3 7.7891-0.83984 3.457 3.5625v3.5625h7.3203l1.2227-4.5977-0.46875-2.9023-27.852-17.363h-0.67187l-16.5-7.5 2.0625-4.2227 3.0977-3.0977-2.6289-3.4688-20.734-0.83984-3.6602-3.7422-8.7227-3.2773-4.3203-4.4023-1.4023-12.215-9.5742-12.84-4.8594-2.5312h-2.1719l-10.691-11.629v-7.0312l2.9023-2.9023v-4.1289l-2.2578-2.2578-1.4883-3.9375-2.4492-1.6914 3.9375-3.9609 2.7344 0.66016 1.9688-0.27734 3-1.5h1.3086l-0.74219-1.4023 0.9375-0.83984 4.9805-0.66016 1.5 0.66016 1.1289-0.27734 0.5625 1.5977h0.74219l1.1289 2.4375 2.4375 1.7773-0.46875 1.3086 0.097656 0.66016 1.2227 1.7773-0.097656 3.0977 6.4688 9.1211 1.7773-1.4023 0.27734-1.0312-0.042969-0.98047 0.74219-1.3086 0.55078-0.49219 2.0625-4.6914v-2.6992l1.5977-0.66016h0.66016l3.0117 1.5 0.83984 1.3086 3.9375 2.9766 0.46875 1.332 0.66016 0.74219 0.83984 7.4023 5.9023 7.6914 0.19141 3 3.8398 3.3711 0.66016 1.3086 9.3828 5.6289 0.17969 2.7227 0.85156 1.0312 2.1602 1.1289 0.66016-0.9375 2.2578-1.0312 12.84 2.5312 26.93 17.93 0.74219 2.0625 14.723 15.277v4.8711l-0.9375 2.8086v7.0312l-1.7773 4.7773v9.2148l12.012 10.598 0.74219 2.3398 1.3086 1.3086 1.4023 4.5 5.4492 4.6914 2.2578-0.27734 5.0508 1.5234 0.83984 1.2852-0.45703 1.4023-7.0312-2.1602 1.5977 3.8398 1.957 1.8945 1.7891 4.3789 0.097656 1.4023 0.74219 1.2461 1.2969 1.0312 1.043 0.25391 1.2227-0.63672 0.19141-0.66016 1.7773 2.2578 2.0625 0.37109 1.4023-0.83984 2.5312 0.46875 1.3086-0.66016h1.1289l0.37109-0.30078 3.1094-0.63672 11.629 3.1914 8.1602 5.5312-0.19141 0.83984-1.9688 0.5625-1.8711-0.5625-1.1172 0.66016 0.17969 0.83984-0.37109 0.83984-0.74219 0.37109-5.8086-3.6602-0.46875-0.74219-6.1094-2.1602-1.5977-1.5977-3.3711-1.5-3 0.9375-0.19141 0.91016-1.2227 0.30078-0.66016 0.46875-2.5312-0.19141-1.5977-0.9375-1.0312 2.1602-0.83984 0.46875-0.097656 1.4023-0.83984 1.0312-2.5312 0.5625-0.46875 1.5977 3.8398 3.1914 0.19141 1.1289 2.5312 1.8711 3.0977 5.2578-0.66016 2.2578-1.8711 1.6914-0.37109 1.4023 0.097656 1.3086 0.83984 1.5 0.9375 0.83984 0.097656 0.9375-0.37109 1.2227 0.37109 0.9375-0.27734 1.332 4.5 0.44531 0.5625-1.0312-0.37109-2.0625 0.19141-1.2227 0.83984-0.74219 1.3203-0.5625 1.2227 0.39453 0.55078 0.63672v1.2227l4.2344 6.4922-1.043 2.9766 0.83984 1.4297 1.5 0.74219 0.48047-1.9688-0.097656-1.1289 2.4375-4.2227 0.66016-0.39453 3 0.58984 0.097656 2.1602 1.1289 1.4766 0.74219 0.12109 0.74219 1.1055 0.19141 0.9375 1.3086 0.74219 0.83984 1.4297 0.67187 0.37109 0.92578-0.83984-2.2578-4.9922 1.1289-3-5.8086-15.469 0.5625-1.7773 1.2227 0.37109 2.1602 1.5977 1.7773 0.46875 1.5 1.6914-0.45703 1.5 0.45703 1.0312 2.3398-1.0312 0.74219-0.66016 0.5625-0.19141 2.4375 0.19141 0.74219-0.37109 0.37109-1.0312-1.9688-1.9688-0.26562-0.9375-0.83984 0.46875-1.7031-0.27734-0.74219-0.74219-1.7773-4.9688-1.5-0.9375 0.19141-0.66016 5.8086-1.6914 5.3516 0.9375 2.5312 2.9023 0.83984 0.37109 2.6289 3.4688 0.9375 0.37109 1.1289-1.2227 0.19141-0.9375-1.4023-7.5977 0.85156-1.0312 0.085938-0.83984-0.83984-1.5-2.7344-0.40625-8.4375-6.4688-0.37109-1.2109-0.75781-1.0312-1.6797-0.46875-0.48047 0.25391-1.5977-0.44531-0.83984-1.4023-7.2227-2.9297-0.66016-0.9375 0.37109-0.74219 6.1914 1.332 1.1289-0.30078 0.75781-1.9453-1.1406-1.8945-0.27734-1.5-2.0625-2.2578 0.28906-1.1289 1.8594-1.1289 0.27734-0.46875 1.1289 0.27734 2.5312 2.1602 0.38281 0.74219 0.9375 0.9375 1.9688 0.37109-0.28906-1.2227-13.223-19.969 2.3398-2.3398 0.27734-3 1.0312-1.1289h1.0312l2.4375-1.8008 2.7344 6.2148 1.6914 1.6914h1.5977l1.5 2.2578v1.2227l3 3.6602 0.9375-1.0312v-2.3398l-1.0312-1.1289v-1.2227l0.83984-0.74219 5.0625 5.1602h2.0625l1.1289-1.2227-3.4688-3.4688-0.74219-2.1602 1.4023-1.4023 4.6914 4.7773 1.7773-1.1289v-1.8711l-6.9375-6.9375 0.26562-3.6602 9.7695 0.46875 3.0977-3.0977h7.0312l0.67188-0.66016h3.6484l0.66016-0.66016 3.7422 2.8086 2.6289-0.86328h4.7891l1.7773 1.4023h3.5508v1.5977l3.1094-3.4453 1.6914-7.0312 2.6406-1.332 1.6797-2.6289-3.7422-7.9688 2.3398-2.3398 10.309-3.5625h2.0742l1.3086 1.3086 10.234 1.1289 1.2969-1.3086-1.8711-3.8398-3.1914-3.1914-1.0312-2.8086 10.883-20.746 3.3711 0.74219 1.5977-0.9375 3-21.191 3.4688-3.5898 0.46875-2.0391-0.46875-2.0625 1.6914-1.6914v-2.832l2.0625 0.21484-0.46484 2.2578 8.5312-0.66016 2.2578-2.6523-0.66016-3.5391 1.8828-1.8945 0.35938-1.1992-1.3906-4.1523v-4.4023h1.3906l5.2578-3.2773 2.7227-0.5625 5.0742-6.4688h1.5l3.5508-6.9375 2.6406-2.6523 9.8398-1.668 2.7344 1.0312h2.7109l2.6406-5.5312 0.45703-3.9375-3.457-3.8633 0.74219-2.8086v2.0625l4.2969 3.5625 0.48047 8.4609 1.0195 1.6914 4.7031-0.19141 2.0625-1.0312h2.3398l-3.0977 3.9375h-7.7031l-1.0195 1.0312-0.28906 2.5312-1.5977 1.5977 32.27 4.7773 1.1289 2.3398-1.3203 1.4023h-2.7109l-15.672 10.309h2.2578l13.031 6.4688 1.3906 1.8008-0.74219 7.5977-2.3398 2.4375 3.4805 1.4023 1.5 2.0625h6.1914l9.0977-6.5625 1.5977-2.7461 7.5117-0.66016 6-3.5391 0.5625-1.4297 4.3203 0.68359 2.9023 1.4023 5.4414-0.003906 4.3086-2.4609h2.7227l2.2578-3.5625v-2.4375l-6.2031-2.1602-2.8906 1.332-7.5117 0.16797-3.2656 1.4297-3.1094-0.76953-8.5312-13.309v-2.8086l3.1914-1.5977 3-3.7422 6.2891-1.1289 5.0625-5.3398 10.871-1.4297 1.4023-1.5 5.9141 0.68359 25.234-9.4922 0.5625-7.1289 2.3398-2.9023 3.9375-1.6914 4.4023-4.1289 16.141-0.5625 0.46875-2.6289 1.7773-2.0625-1.3203-9.6602-1.6797-1.4023-0.097656-2.1602 2.3398-4.7773-1.3203-3.5625 3.1094-2.1602 1.3086-3.0234 0.097656-3.6602z" fill-rule="evenodd"/>
  <path d="m443.39 431.77 4.6094 2.5312h2.0625l-2.9023 0.94922h-4.6914l-2.8203 4.0312 35.641-0.94922 4.2227 1.418 1.9688 1.9648-2.4375 2.5352h-3.0938l-2.0664 1.6797-2.3516-2.3398-22.871-0.9375-7.418 7.2109 1.5 1.5117h2.7266v1.3203l3.3711 1.4062-2.0742 1.9531 1.2344 1.2383 1.8594 0.93359-2.6992 2.8203h-2.543l-4.7891 1.5977v2.6172l2.1602 2.1602 1.4023-1.3203h4.875l2.832 2.9141 3.7422-1.1289 5.918-6.1914h2.8047l3.1094 1.8711-1.332 1.2266h-1.5l-1.1055-1.1289-2.9258 3.0117v2.4258l-4.6797 1.332-4.7891 4.7734 2.0625 1.957 2.1484 0.94922h3.9375l-1.7656 1.7852h-2.0625l-5.3633 5.4375h-2.5312l-5.2344 2.4375 0.9375 0.93359v2.1602h5.2422l4.0469-1.5-0.66016-2.5195 7.125-0.30078 2.8086-2.8086 1.1289 1.1289-3 2.9062-0.9375 2.9023 1.5859 1.5977h-2.0508l-1.707 1.7734-0.92188 4.0352 3.0938 0.47656 1.3203-1.3203h1.957l-4.1289 4.2266h-3.7422l-3.1094-3.0859-1.1172 3.2656-1.9766 1.9805v2.8203l5.2656 5.3398 1.8594 3.6602h4.9922v2.2422l4.6914 2.2578 1.7656-1.7773h3.1094l0.64844 1.0195-3.4805 3.7695h6.8516l1.5117 1.582h12.094l1.5859-1.582 2.8203-0.57813 1.2227-1.2227h4.1289l3.5625-3.5625h1.5l3.4688-3.5664h2.3398l2.0664-1.9688 2.4453-5.5312 3.3867-3.3711h2.2422l2.2422-2.2461v-2.7344l1.5977-1.5 1.957 1.9805h1.5938l2.1719-2.1602h1.875l0.94531-2.4492 4.5859-4.6797-2.4375-2.5195v-2.4492l2.6406-1.3164v-5.0781l2.5195-2.6172 1.5117 1.5117v3.3633l-1.5938 1.5938v3.2891l2.0508 2.0625v5.918l7.6914 1.4883-0.10937 6 0.39844 0.29687 2.8086 13.32 0.75391 1.2148 2.7266 2.2422 0.45312 1.0312 4.0312 3.4805-0.17969 7.7891 2.6289 4.7773v1.6914l4.5 5.9141 1.0312 4.8711 1.1289 1.7656 0.27734 1.5977 5.7227 7.043 1.9688 0.85156 1.9688 1.8828 0.75391 3.457-2.1602 1.8711-2.3398 4.5 1.2266 10.238 3.0938 1.5 1.8594 2.625 2.0781 6.7461 3.1914 1.7891 4.7773-0.19141 1.3047-1.2148 11.535-0.74219 0.5625-4.4297 0.75781-0.74219v-1.4062l-2.0664-2.0508 0.74609-1.5117 2.1602-1.5977v-1.125l1.5938-1.6797 3.7578-0.46875 2.9141-3.3984h1.6797l1.7891-0.63281h10.309l0.48047 1.8711 2.6133 2.6289 2.2578-4.418 1.5-1.5 1.5-3.082 0.38281-2.918 3.1797-3v-1.5977l3.3008-4.3164 0.26562-2.9062 0.83984-0.83984 0.28906-9.4688h0.74219l1.1289-2.4453-0.46875-9.1953-1.2109-2.3398 2.1484-0.19141v-7.5938l1.5-3.0977-1.0352-2.8203-0.46484-0.45703 1.5-1.4141 0.46484-1.4062-1.8594-1.9648 4.5859-0.56641 3-3 2.543 0.46875 4.1172-1.1289 3.0938-3.5742-0.27344-1.8711 0.46484-0.46875 1.2266 0.5625 1.2109 1.5977v1.5938l9.7578-9.2852-2.7266-2.9883-0.66016-2.1719h1.8867v2.625l2.625 1.6953 2.8203-0.46875-1.1406-2.5312-2.2422-1.4883v-1.0586l3.6602-4.1133 3-0.57812 4.4023-6.8398-3.6484-4.6914-2.625-1.2109-4.9805-5.1602 0.19141-1.5977-4.5977-2.0625-2.2422-2.3398h-2.2461l-6.2969-4.5117-5.5352-0.83984v-13.969l-0.65625-1.8711 0.09375-9.9492 3.6602-4.6094-0.66016-2.2422 1.5-1.418v-1.9531l1.7891-1.7891v-3.0977l1.3203-2.1484-2.7266-1.7852 0.92578-5.0781 5.543-0.46875 1.6797-0.93359 1.1289-8.1484-0.92187-2.4492 3.0938 3.3867 4.2969-1.418 2.6406-3.5508 2.5312-1.0469 0.74219-2.1602 2.6289-2.7227 5.7227-1.0195 10.684-8.2578h1.5938l2.7383-2.3516 2.5195-0.64844 3.3828-2.9023 5.1602-2.0742h2.7227l0.27734-1.5859 2.5312-2.5312v-1.3203l11.352-12.758 0.097656-1.2227-0.48047-1.6797-4.4062-4.2109-1.125-2.918h0.94531l1.1172-2.6289 3.8516-3.2852 0.94922-4.7891 1.2969-1.3086 0.37109-2.5312-0.5625-1.1172 1.332-1.3203h2.8047l2.0547-2.1602v-1.7852l1.5117-1.5h2.3398l2.1602-0.9375v-1.5938l1.2109-3.2773 4.9922 0.46875v-1.0352l1.668-1.1133h1.2227l1.4062 1.3906 2.4336 1.1406 25.43-1.2344 2.6172 2.6367h2.2656l1.4062 1.4062 1.6797-0.19141 3.0938 3.3828 3.1914 0.9375 0.48047 4.9648-0.94531 3.7578 0.64844 3.0938 2.1602 2.3438v1.2227l-1.2148 1.8711-0.28516 1.5977h-8.5469l-1.1992 1.1133-1.5977 0.75781-19.414 21.109-2.4375 0.83984-1.043 0.94531-0.17969 1.6914-1.4141 1.3945-1.957-0.19141-2.7383 1.2344-2.6992 5.1602-4.4258 1.2109-1.3086-0.93359-3.2891 3.9336v5.918l-1.0195 1.0312-2.3516 1.1172-10.406-0.17969-1.5 2.6133-0.83984 5.8203-2.4453 0.94922-2.3516 3.7539v11.148l1.9766 1.1289v1.4062l0.48047 1.5v9.1914l2.6055 1.8711 2.0742 7.4141-1.1367 1.2148 0.65625 4.4141-1.1133 1.2266 0.17969 3.9336-1.4062 1.4062-1.4023 8.832 0.83984 2.9844 1.3086 1.4062 4.2227 1.9805 2.0664 2.1484h4.6055l0.92578 0.94531 6.3711 1.8633 0.94922 1.043-1.1289 3.1914 7.1289-0.48047v0.67188l0.83984 0.82812 0.10547 1.0312 4.0234 4.0312 24.766-1.293v-1.2383l4.3203-2.9023 5.4492 0.28906 10.582-4.5 1.3203 0.74219 4.5-0.5625 0.45703-0.45703h1.7031l6.3828-3.2031 2.5234 0.85156 21.477-1.1289 61.348-57.492 3.5625-8.543v-2.5312l-26.918-21.301 6.0117-4.0312 3.5547-6.2773 0.19141-2.1719-9.4805-8.3281v-3.9492l1.1289-1.5v-2.0625l-6.5664-4.3203-1.9648-3.7461 2.9141-3.2852v-1.6914l-0.94922-1.0352 2.0664-13.316 5.4336-0.45703v-5.543l-18.562-29.832 0.085937-1.7773 14.543-18.949 0.93359-2.6289-0.082032-1.3047-13.98-13.227-4.0312-1.043-5.9062-6.0859-1.7031-3.8398v-2.7344l3.3867-3.1797-0.46875-6.4805-1.1289-1.2227 1.3203-2.1484h2.2422l1.5-2.9062h4.1289l4.2383-4.2227 1.8594-4.3086h2.4336l0.94922-0.94922h4.3086l5.6289-6.8398 2.4336-1.5938 4.043 3.0938 4.4883 0.18359 1.1406-1.1289-0.66016-4.0195 2.1602-2.1602-2.4336-2.5352-1.875 1.875-3.7656 0.93359-2.7109-3.0938-2.2578 2.1602h-8.4375v-2.3516l-3.9336-3.8398h-2.1719l-2.7969-2.5352-2.4492-0.28516-4.6914-2.1484 4.043-1.2266 4.0352 1.8867h16.125l6.1914-5.6406h3.0859l3.7422-1.4062h1.6953l-2.3398-2.3398v-3.7539l-9.0859-1.6914-5.7461-4.4883h-12.457l0.38281-2.543-2.1719-2.1484-8.7227-0.30078-4.5859 4.043v2.1484l-4.0312 8.7344v-2.1602l-2.6406-1.2227v-3l-1.1289-1.0312 1.8867-1.8711-0.94922-0.94922h-3.5508v-2.0508l4.5-3.2891 5.2422-1.2109-1.2109-1.2266v-1.8711h-2.8203v-2.832h-3.7539l-2.2461 1.1406-6.0977 0.097656-2.1562 0.93359-1.2266 1.3086-0.27344 2.4492 1.0312 3.8398-4.1172 3.2734-1.7891 3.9492v1.7773l-1.6797-0.097656-0.85156 0.75781-1.3086-0.75781-4.3203 3.0977h-1.8828l0.19141-7.875 1.4062-1.4141 0.28516-8.4375-1.2109 1.6953h-2.0742l-2.6172 2.7227-1.9805-0.19141-13.223 12.945-1.4062 7.2266-1.3086 1.4023-3.9336 0.19141-1.043-1.1406-0.375-2.5312 1.418-1.5v-3.8516l1.3906-1.3906-1.2109-1.5977 2.9141-0.75391 6.6484-7.0312h1.5859l2.1719-5.5352 6.0938 0.097656-5.8203-5.8203h-4.6914l-1.5938 3.0977 1.9805 1.9648-3.5781 1.1289-1.4023 1.418h-2.1484l-2.8203-1.5977v-1.5117h-2.7109l-5.6289 2.4492v1.8594l-1.8828 2.832h1.8828v3.3594h-6.4805l0.57422 5.3516-9.0234 0.57813-1.4883 1.582-1.2227 3.7578-6.6719 3.6445v2.0781l1.9805 2.0508-4.1289 1.3203-4.0312-3.1914v-3l-1.4062-1.4023v-3.3867l-4.3164 2.1602-1.5977 1.5977-3.0859 1.5-4.7031-1.9688-2.4219 1.043-4.0312-1.5117h-5.918v1.7773l4.0312 1.5938 3.4805 3.4688 3.0859 0.28906v2.1602l-2.2461 3.0977v-1.5l-4.3203 0.27344-2.7227-2.8203-3.4688 1.2266-0.5625 4.6914h-3.1914l-1.9805-1.9688-5.4375 6.6602 1.8945 3.2773h-1.9766l-11.547 7.4141 3.2891-3.2891v-1.4883l2.8086-2.543v-2.1484l1.5-1.5v-6.8516l-9.2773 5.2578-1.4023 2.3398 1.4023 1.4023-3.3711 4.5977-2.832 0.93359 0.94922-0.93359 1.5938-8.1484h-8.9141l-1.6914 1.6797-1.2148 3.3711v2.8203l4.0352 4.2227h-2.9062l-3.5625-3.5625-1.5977-3.0977v-5.8164h-4.7773l-2.625 2.625v2.8086l3.3711 2.8203-0.27734 1.8711 3.375 3.4805h-3.375l-1.1406 1.6797-6.9219-7.0312h-3.3945v-1.8828l1.7852-2.8086-6.9336 2.7227-2.3516 2.2461h-2.7148l-3.0938 3.1914-4.2148 1.6914 3.543 3.5508-2.1367 2.1719 1.8711 2.5195 4.7773-0.17969 3.1914-3.2734 3.6719 1.6797-3.3008 3.2734-0.37109 3.7578 1.5938 1.5977 0.74609 2.3516-2.3398 2.2539-5.7227-2.6406-2.6289 2.6406-4.7891 2.3398-1.957 2.0664 1.2148 2.4336 7.6914 1.5 1.3203-1.3086h5.7109l-3.5625 3.5547h-1.2148l-1.3203 1.2227v1.3086l-2.7109-2.2461h-4.0312l-6.3828-2.1562v3.2852l1.9648 2.0664-4.8711 6.1914 0.27734 3.3711-3.0117 0.46875-1.6797-1.6914v-5.9062h-3.6484l-4.0469 4.0312 3.3867 3.7578-2.4375 1.2227h-3.7539l-4.0352-1.8828-2.8164 0.9375-0.9375 0.94531-1.2227 2.5352-3.2773 3.0938 5.8086 0.27734 2.1602-2.1602 5.5312 0.93359 1.8828 1.8867-1.2227 1.2109h-4.3203l-1.3086 1.3086 3.1094 3.0938h2.6992l1.043 2.4375-7.4141-0.55078-4.5-2.0664-1.3945 1.4062-8.0859 2.8086 4.9805 2.8203 18.301 0.5625-8.0664 3.4688h-1.8945l-3.6367-2.1602-7.3438 0.48047-4.5 4.5-4.7773 0.74219-7.5 6.1914 0.9375 0.94922-5.3516 4.8711 1.2227 2.7109-2.8203 2.8203h-3.0938l-0.46875 2.0664 2.6406 2.6289 11.062-0.84375-4.5117 3.9375-10.871 0.9375 1.5938 7.9688-0.94531-0.9375h-3.5547l-3.1797 1.4023v1.6914l-1.9805 1.9688-1.9688 0.46875-1.4141 1.4062 0.9375 3.1055h2.1602l0.93359 3.7578h-1.5938l-2.8203-1.0469h-1.2969l-3.2891 3.1953 2.1602 2.2539h3.3711v2.1484h2.1602l4.5-1.4141-5.4336 6.1055-13.887 0.56641v4.0312l1.5 1.5938-3.5508 1.0312-1.9805 2.0664v1.8711l3.0859 2.8203-2.4375 2.4375-0.64844 2.5312h-3.3828l-2.5312-2.5312h-6.1797l-0.9375 2.5312-2.8203 0.28906-1.043 2.6133-2.3398 2.3516h-2.4375l-2.5312 2.5195 0.9375 2.4492v2.3516h-2.3398l-4.5 4.5 1.7734 1.7773-1.4023 1.3086 1.5 3.7539 2.1602 0.38672 1.3086-1.3203h2.7227l2.1602-2.1602h1.5938l3.3633-1.1289h1.6914l2.543-2.4375-3.2891-3.2852h3.7578l5.5312-4.3086h3.7461l-0.46875 2.3516-3.5547 1.0312-2.1602 2.8203 2.1602 2.1484v1.4023h-4.7852l-3 3 0.46484 1.6914 1.3945 1.4062-0.92578 1.8711-12-0.64844-0.48047 2.3398-1.4023 1.418-3.7422 0.55078v-4.0312l-3.0977-3.0977-2.3516-1.0195-8.543 8.5195v-4.0312l-0.83984 0.94922h-4.9688l-2.5312 4.0312v3.0977h-2.1602l-1.2148 2.1445 5.5469 5.6406-4.9922-1.6914h-2.6172l-1.9688-2.0625h-2.1602l5.8945 5.9023v2.8203l-4.4062-4.4023h-2.7109l-2.5195-2.4492v-2.5312h-2.4375l-1.8945 1.5938h-10.227l-0.45312 2.3398 2.625 2.6289h3.7461l4.9688 2.1602-3.4688 3.4805h-5.5312l-4.418-1.5977-7.6914 1.2148 4.332 3h2.9883l6.1914 7.1289-1.7891 1.6797v-2.7031l-11.805-5.543 1.582 1.7891h-2.4375v4.6797l-1.5938-1.5859-4.1172-0.47656-2.0625 2.0625 4.0312 4.0312-10.5-0.35938-3.3008 3.2773 6.6719 3.2734 1.5977 1.5-14.738 1.5977v2.6289z"/>
  <path d="m948.16 304.22v-21.574l-0.28906 0.28906z"/>
  <path d="m948.16 282.65 1.2109-1.2227z"/>
  <path d="m1146.3 661.13 1.5938-1.5-2.2422 1.5z"/>
  <path d="m1118.6 266.23-0.9375 1.0352 0.27734 2.543 2.4336 2.9883 0.38672 1.4023-0.85547 2.0664-2.8047 0.94531-15.855-2.2539-0.66016 1.3086v1.4141l1.5 0.37109 3.5781 3.0977 2.6992-2.1484 1.332-0.20312 2.2461 1.0312h9.2852l1.7773-0.74219h1.5977l1.3164 1.4023h0.92578l4.3203 4.0312 0.75391 0.20312 2.4375-3.4805 0.38281-1.5938 1.7656-1.8711 5.3516 2.0508h1.3203l3.6484-2.2422 7.9805 0.19141 2.0508 0.74219h2.6406l3.1914-2.5312v-0.64844l-0.66016-1.6914-4.1289-3.3008h-1.6797l-4.1406-1.4883v-0.85156l-3.3711-0.64844-1.5938-1.5938v-1.2266l-0.75781-0.74219-14.242-3.1914-2.4492 0.5625-1.7891 1.6914h-5.1367l-3.0117-2.6289-3.4648-0.85156-1.2266 1.2266-2.1602 0.5625-0.75391 0.85156v2.1484h2.8203z"/>
  <path d="m997.96 238.75 0.09375 1.5938 4.8867-3.1914 7.7852-2.0625 6-4.1289 9.6602 1.2227-0.46875 1.6914-2.5312 1.7773 7.5 1.0312 0.85156 0.82812 1.8867 0.75781 3.8281-0.83984 2.0625 0.75391 5.4375 4.4062 7.8828 1.6914 3.0977-0.56641 1.3164 1.3086 0.56641 1.6914v2.8203l4.0312 3.6602 6.9375-0.10547 3.4648 1.2227 1.3203 1.3203-1.3203 1.8711-2.8047 1.0312-2.2461 2.3398 1.4062 1.418 4.582-0.66016 1.8828-1.1289 16.777 1.5117 1.5117-0.48047 2.4258-2.5312h5.7344l1.4062-1.4023-1.4062-1.418-2.1602-0.55078-1.5938-1.8828-5.6172-1.8633h-3.8516l-1.7891-1.7852v-1.4062l-6.2773-1.3203-2.4453-2.625-3.4688-1.1289-2.9062-2.2578-0.74219-0.27344-0.46875-0.375-7.5-1.9648-1.332-1.2383-9.4688-3.2617h-2.4336l-4.7773-5.2578-5.5312-0.85156-2.4375-1.4883-6.6719-0.86328-2.7227 0.86328-5.4375-0.94922-21.957 6.8516-2.7148 3.4688 1.418 1.4062z"/>
 </g>
</svg>
