<?xml version="1.0" encoding="UTF-8"?>
<svg width="1200pt" height="1200pt" version="1.1" viewBox="0 0 1200 1000" xmlns="http://www.w3.org/2000/svg">
 <path d="m1132.4 569.36c0.71875-0.49219 1.6914-1.5977 2.1602-2.4375 0.45703-0.85156 1.6914-2.4102 2.7109-3.4688 1.043-1.0547 2.8789-1.8359 4.0938-1.7383 1.2109 0.097656 2.4961-0.10938 2.8555-0.46875l1.3086-1.0312 1.8711-0.38281 1.7383-0.26563c0.28906-0.15625 1.3789-0.22656 2.4375-0.15625 1.0664 0.085938 4.8594-2.0273 8.4492-4.6914 3.5898-2.6641 6.5625-5.1719 6.6133-5.5781l-0.46875-1.2617-1.2617-0.61328 0.14453-0.61328 0.23828-1.0781c-0.32422-0.3125-1.7656-0.83984-3.1914-1.1758-1.4297-0.33594-2.125-0.63672-1.5469-0.66016l1.6914-0.32422 1.7773-1.5469 1.1289-2.1602-0.37109-1.6914 0.42188-1.3672 0.98437-1.6328-0.46875-1.7383-1.2227-1.7031c-0.3125-0.5625-2.125-1.6094-4.0312-2.293s-4.2461-1.1172-5.207-0.9375c-0.96094 0.19141-2.1836 0.79297-2.7344 1.3672l-1.8594 1.2109-1.043-0.74219 0.98438-1.9688 1.3555-1.8828-0.13281-1.6914-1.2617-1.7383c-0.49219-0.48047-2.1016-1.0312-3.5742-1.2227-1.4648-0.19141-3.0977-0.25391-3.6133-0.14453s-4.1289 2.0625-8.0273 4.3555c-3.875 2.3047-7.8125 4.4023-8.7227 4.7031-0.88672 0.27734-1.9062 0.97266-2.2578 1.5469-0.32422 0.5625-1.5352 1.4297-2.6758 1.9219-1.1406 0.48047-2.1367 0.68359-2.207 0.42188l0.32422-1.0781 0.46875-1.0938-0.79297-1.2617-1.5-1.0781-1.3086-0.88672-1.3555-0.83984-0.75781-0.5625 0.42188-0.26562c0.25391 0.023437 1.6211 0.61328 3.0703 1.2969 1.4297 0.70703 2.9766 1.2617 3.4062 1.2617l0.79297-0.79297c0-0.43359 1.7383-1.2227 3.8398-1.7383 2.125-0.50391 3.7305-1.4141 3.5625-2.0039l0.046875-1.2617c0.19141-0.12109 4.0195-1.332 8.543-2.7344 4.5117-1.3906 8.6992-2.8438 9.2773-3.2383l0.88672-1.6445c-0.097656-0.51562-1.1875-1.4023-2.3867-1.9688-1.2109-0.57422-3.9102-1.2461-6-1.5-2.1016-0.25391-4.1875-0.85156-4.6445-1.3086l-1.0781-1.5977c-0.13281-0.42188-1.0195-0.99609-1.9688-1.2734-0.96094-0.27734-1.8594-0.35937-2.0156-0.17969-0.16797 0.16797-1.6797 1.1758-3.3828 2.207-1.7031 1.0195-2.4961 1.2734-1.7656 0.5625l1.2227-2.543-0.46875-1.5352-0.38281-0.43359-0.83984-0.19141-1.2617 0.51562-1.2617 1.1758-1.0781-0.70703-1.3086-0.35938-2.293 1.4414-1.0781-0.37109c0.070312-0.51562 0.69531-1.6328 1.3438-2.4844 0.68359-0.83984 1.2344-2.2422 1.2344-3.0977 0-0.83984-0.43359-1.6445-0.98437-1.7656l-1.9219-0.71875-1.4023-1.1289-1.6094-1.0781-1.1172-0.88672-0.80469-1.1719-1.9688-0.83984-1.3672-1.4648-0.875-1.3438-1.3203-0.14453-1.3555-0.14453-0.98438-0.27734 0.51562-0.23828 0.5625-1.0312-1.3555-2.3867-2.4844-2.0273-2.2578-1.5469-0.046875-1.2227 1.8711 0.097656 1.4023 1.0781 1.4141 0.15625 1.5352-1.0781 1.6562-0.88672 1.9688-1.3203 0.27734-1.7383c-0.33594-0.38281-1.5234-1.3789-2.6289-2.207-1.1172-0.81641-2.2188-1.9062-2.4492-2.3867l-0.88672-1.2617-1.4531-0.37109c-0.53906 0-0.19141-0.55078 0.80469-1.2227 0.97266-0.67188 1.6328-1.7539 1.4414-2.3867l-1.4414-1.8711-2.125-0.70703-0.70703-0.50391v-1.5977c-0.15625-0.60156-1.8359-1.043-3.7422-0.99609s-2.8789-0.12109-2.1602-0.37109l2.207-1.3555 0.88672-1.3203-0.27734-1.3086c-0.15625-0.50391-1.0664-1.0195-2.0156-1.1758-0.96094-0.15625-1.9062-0.38281-2.1133-0.51562l0.23828-0.80469c0.32422-0.30078 0.61328-1.3438 0.61328-2.293 0-0.96094-0.625-1.7773-1.3555-1.8359l-1.3555-1.0781-0.66016-1.6445-0.85156-1.1758-0.17969-0.99609-0.99609-0.98438-1.8125-1.5-1.7031-1.5977-0.88672-1.3086-0.26562-1.0312-0.5625-0.61328-0.57422-1.3086-0.98438-1.5-0.51562-1.4531-0.3125-1.3203-1.7891-0.50391c-0.67188-0.10938-1.2344-1.5-1.2617-3.0977-0.023438-1.5977-0.38281-3.2539-0.79297-3.6953l-1.5469-0.61328-0.097656 0.83984v1.2617l-1.1289 1.7031-1.0312 1.5977c-0.32422 0.27734-0.82812 1.5-1.0781 2.7227-0.25391 1.2109-0.97266 2.207-1.5977 2.207l-1.9336 1.1758 0.058593 1.9219 1.3555 1.4531c0.27734 0.38281-0.39453 1.5234-1.5 2.5312-1.1172 1.0078-1.5859 2.5195-1.0312 3.3828 0.52734 0.85156 0.57422 1.7383 0.097656 1.9688l-1.9688 0.60156-1.0781 0.51563-1.0938 0.94922-0.79297 1.3555 1.1289 1.5977 0.33594 2.0625-1.1406 1.8828-0.60156-0.75781-0.23828-2.1602-0.57422-1.3086-1.0781-1.2227-1.4023-0.66016c-0.34766 0-1.1641 1.0664-1.7773 2.3516-0.61328 1.2852-1.5352 2.5195-2.0625 2.7227l-2.1133 0.37109c-0.64844 0-1.9336 0.61328-2.8555 1.3672-0.92578 0.75781-2.1953 1.4648-2.8086 1.5977h-2.3047l-1.8594 0.46875-0.32422-0.66016c0.20312-0.74219 0.17969-2.0508-0.058593-2.9023-0.22656-0.85156-0.79297-1.4297-1.2617-1.2617-0.45703 0.15625-1.1406 1.3555-1.5 2.6641-0.34766 1.3203-0.94922 2.9531-1.3086 3.6133-0.34766 0.67188-2.4492 2.0625-4.6445 3.0977-2.1953 1.0312-2.2695 0.875-0.19141-0.33594 2.1016-1.2227 3.9727-2.4102 4.1875-2.6758 0.20312-0.25391 0.63672-1.332 0.97266-2.3867 0.33594-1.0547 0.21484-3-0.27734-4.3086-0.48047-1.3086-1.3906-2.9297-2.0156-3.5625-0.625-0.63672-2.6641-1.1055-4.5352-1.0312-1.8945 0.085937-4.5 0.94922-5.7734 1.9219-1.2852 0.98438-2.9531 1.4648-3.7188 1.0781l-2.1016-1.4648 0.13281-0.74219 1.5469-1.0781 1.2227-0.69531 1.5586 0.75781h1.5977l0.70703-0.99609 0.50391-1.6914 0.42188-1.7383 0.33594-1.4141-0.83984-0.88672-2.207-1.5-0.51563-1.6914 0.74219-0.98438-0.097656-1.8711-0.88672-1.7891c-0.3125-0.30078-3.2539-0.9375-6.5273-1.4023-3.2656-0.46875-4.0664-0.66016-1.7656-0.43359 2.2812 0.23828 4.6914 0.13281 5.3398-0.22656l1.7773-0.64844c0.32422 0 0.875-0.88672 1.2227-1.9805 0.32422-1.0781 0.28906-2.5781-0.10938-3.3242l-0.35938-2.6758 1.4023-2.8086 0.9375-2.6758-0.70703-1.5469-2.0625 0.55078-2.3984 0.66016-1.1758-0.79297-0.88672-0.94922-1.5469-0.17969-1.9219 0.23828-2.1602-0.46875-2.207-0.61328c-0.5625-0.070313-2.0898-0.64844-3.3711-1.2617-1.2852-0.625-2.832-1.5977-3.4219-2.1602l-1.4531-1.7773-0.14453-1.5977 0.23828-1.5469c0-0.39453-0.91016-0.76953-2.0156-0.85156-1.1172-0.070312-2.1484-0.45703-2.3047-0.83984l-0.26562-1.5469c0-0.46875-0.76953-1.043-1.7031-1.3086-0.9375-0.26562-1.9062-0.10938-2.207 0.32422l-1.3086 0.74219-0.22656-0.79297c0.30078-0.40625 0.46875-1.6445 0.35938-2.7227s-0.76953-1.9805-1.5-1.9805c-0.71875 0-2.8906-0.97266-4.8242-2.1484s-3.9609-2.3047-4.5-2.4844c-0.55078-0.17969-2.7227 0.68359-4.8359 1.9219-2.1016 1.2461-3.9492 2.3516-4.0664 2.4844-0.13281 0.13281-1.043-0.12109-2.0156-0.55078-0.98438-0.44531-3.2266-0.82812-4.9805-0.83984-1.7539-0.023437-3.6602 0.13281-4.2109 0.35938l-0.85156-0.35938c0.097657-0.44531-2.293-1.6328-5.3398-2.6289-3.0469-1.0078-7.0547-1.8945-8.9141-1.9688-1.8477-0.070313-3.9844 0.10938-4.7383 0.42188l-2.5781 1.5469-1.9219 2.3047c-0.38281 0.71875-0.66016 2.1953-0.61328 3.2773 0.046875 1.0781 0.33594 2.6641 0.66016 3.5156 0.30078 0.85156 0.85156 1.8359 1.2227 2.207l1.3555 1.0312 1.1758 0.83984 0.42188 1.2109-0.74219 1.6914c-0.38281 0.52734-0.70703 1.7656-0.70703 2.7734 0 1.0078-0.68359 2.6758-1.5 3.707-0.82812 1.0195-1.4414 2.1836-1.3555 2.5664l1.2617 1.3086c0.625 0.33594 1.6328 1.3672 2.2578 2.293s0.91016 2.1953 0.67188 2.8086l-0.20312 1.5586 0.32422 1.4883c0.035156 0.60156 0.73047 1.9805 1.5469 3.0469 0.82812 1.0781 1.5234 2.293 1.5469 2.6758l-0.45703 1.4023-0.33594 1.8242-0.46875 0.70703-1.6445-0.42188-1.6914 1.2617-0.70703 1.8242c0 0.3125-0.19141 1.2852-0.42188 2.1602-0.23828 0.875-1.2344 2.0508-2.207 2.6172-0.98438 0.5625-1.8242 1.2461-1.8711 1.5l-0.46875 1.2227-1.2344 1.0312c-0.45703 0.15625-0.875 1.1172-0.92578 2.1602-0.058594 1.0312 0.097656 2.0625 0.32422 2.293l1.5352 0.51562c0.625 0.046876 1.9336 0.89844 2.9141 1.8711 0.97266 0.98438 2.7852 2.293 4.0312 2.9141 1.2461 0.61328 3.1914 2.1367 4.3203 3.3711 1.1406 1.2344 3.3828 5.5312 5.0156 9.5625 1.6211 4.0195 2.8672 9.3945 2.7617 11.965-0.10938 2.543-0.48047 5.2305-0.85156 5.9531-0.34766 0.71875-3.8984 4.2617-7.8711 7.8711-3.9609 3.6133-11.172 8.2578-15.996 10.309-4.8242 2.0742-8.1602 4.3438-7.4023 5.0742 0.74219 0.71875 1.7773 2.0742 2.293 3 0.52734 0.92578 0.94922 2.0391 0.94922 2.4844l1.2969 0.51563c0.73047-0.15625 1.2461 0.50391 1.1875 1.4531-0.085937 0.94922 0.15625 2.1016 0.50391 2.5312l-0.13281 1.6445c-0.44531 0.46875 0 3.5156 0.98438 6.7422 0.97266 3.2539 1.7773 6.3125 1.7773 6.8047 0 0.49219 0.73047 2.207 1.6445 3.8047 0.89844 1.5977 1.4531 3.0586 1.2109 3.2656-0.22656 0.21484-1.1289 1.5117-2.0039 2.9023s-1.7148 3.0977-1.8359 3.7578l0.74219 2.1016 0.9375 1.7891-1.4414 1.4414-2.207-0.22656-1.3672-1.6914-1.1758-0.88672-1.2227 0.35938-1.1758 1.1406-0.70703 1.6914 0.046876 1.9219 0.70703 1.8242 0.625 1.8711c0.046875 0.57422-0.74219-0.023437-1.7539-1.3086-1.0078-1.2852-2.4844-2.6289-3.2773-2.9531-0.79297-0.32422-2.9883-0.13281-4.8711 0.46875-1.8828 0.60156-2.8789 0.52734-2.2188-0.14453l1.5117-1.7773 0.27734-0.98438c0-0.23828-0.21484-1.2344-0.46875-2.207-0.25391-0.98438-1.0195-2.0625-1.6914-2.3867-0.68359-0.33594-1.9453-1.332-2.8203-2.2188-0.875-0.86328-2.2422-1.9922-3.0352-2.4844-0.80469-0.49219-2.4102-1.1758-3.5742-1.5-1.1641-0.32422-1.6211-0.79297-1.0312-1.0195l0.98438-1.1758c-0.046875-0.42188-0.53906-1.5586-1.0664-2.543-0.55078-0.98438-1.9219-2.6875-3.0586-3.793-1.1406-1.1055-2.2188-2.5195-2.3867-3.1445s0-2.207 0.42188-3.5273c0.40625-1.2969 0.78125-3.0234 0.83984-3.793 0.058593-0.76953-0.53906-3.4219-1.3086-5.8906-0.76953-2.4844-1.3789-5.0273-1.3555-5.6406l0.66016-2.2578c0.32422-0.625 0.57422-2.2578 0.51563-3.6602-0.058594-1.4023-0.34766-3.0586-0.66016-3.707-0.3125-0.66016-2.2578-1.0547-4.3086-0.89844-2.0625 0.16797-4.1172 0.085938-4.5586-0.17969-0.43359-0.25391-1.8477-0.45703-3.1328-0.42187-1.2969 0.011718-2.6523-0.42188-3.0117-0.99609-0.35937-0.5625-3.5508-0.96094-7.0781-0.875-3.5391 0.070312-7.0664 0.97266-7.8242 2.0156-0.78125 1.0312-1.1758 1.1289-0.89844 0.22656 0.28906-0.89844 0.44531-2.1602 0.32422-2.7969l-1.6797-2.6289c-0.82812-0.79297-6.3008-2.8672-12.156-4.6094-5.8555-1.7383-11.016-3.4922-11.449-3.9375-0.43359-0.43359-1.1289-1.4883-1.5352-2.3398-0.42188-0.85156-3.5625-3.3242-6.9961-5.4844-3.4336-2.1836-7.7656-4.3438-9.6602-4.8359-1.8828-0.48047-4.4141-0.9375-5.6289-0.98438-1.2227-0.046875-3.168-0.82812-4.3203-1.7383-1.1523-0.91016-3.4062-1.6094-5.0156-1.5469-1.6094 0.046874-6.5898 1.3086-11.074 2.8086-4.4883 1.5-7.9219 2.4844-7.6445 2.207 0.27734-0.27734 1.0664-1.9219 1.7539-3.6602 0.66016-1.7383 1.0938-3.625 0.92578-4.2227-0.15625-0.58984-0.74219-1.7891-1.3086-2.6758-0.57422-0.875-1.5117-2.9766-2.1133-4.6445-0.60156-1.6797-1.2852-3.2031-1.5469-3.3711l-0.46875-1.2227-0.5625-2.0156c-0.3125-0.625-0.69531-1.8477-0.83984-2.7227-0.16797-0.875-0.40625-1.7773-0.5625-2.0156l-1.7383-0.79297c-0.79297-0.20312-2.9531-0.30078-4.7773-0.22656-1.8359 0.070312-3.5508 1.5703-3.8047 3.3242-0.25391 1.7539-0.68359 3.5391-0.9375 3.9844-0.25391 0.44531-0.45703-0.44531-0.45703-1.957 0-1.5234-0.17969-3.168-0.37109-3.6719l-1.1406-1.8711-0.97266-1.8828-1.2734-1.8242-1.0312-1.5 0.51562-1.5469 0.46875-2.3047-0.26562-2.2578c-0.14453-0.51563-0.085937-2.6641 0.13281-4.7773 0.21484-2.125 0.3125-4.3555 0.23828-4.9805l0.23828-1.4531 0.15625-1.5469-0.66016-1.2109-0.42188-0.89844 0.92578-1.1172c0.51562-0.13281 2.293-2.4961 3.9375-5.2578 1.6562-2.7617 3.0117-5.4961 3.0117-6.0977l0.66016-2.1953c0.35938-0.625 1.4023-1.6094 2.3398-2.207 0.92578-0.58984 2.2188-1.7148 2.8555-2.4844l0.83984-1.7383-0.32422-1.1758 0.83984-1.9219 2.0625-1.1172 1.7383-0.66016 0.88672-1.4648-0.37109-1.1758 0.14453-0.42188 1.2617-0.42188 0.83984-0.99609 0.88672-1.0195 0.32422-1.0781c-0.058594-0.39453 0.74219-0.68359 1.7773-0.66016 1.0312 0.023438 2.3984-0.070312 3.0586-0.22656l0.45703-1.1289-1.6328-0.99609-1.043-0.88672c-0.046876-0.40625 1.0547-0.74219 2.4375-0.74219 1.3906 0 2.9648 0.14453 3.4805 0.33594 0.50391 0.17969 1.6445 0.35938 2.5195 0.42188 0.875 0.058594 2.3633-0.49219 3.2891-1.2109 0.92578-0.73047 2.2422-1.4297 2.9023-1.5469l1.6562-0.66016c0.22656-0.22656 0.46875-1.5586 0.55078-2.9531 0.070313-1.3906-0.99609-3.0352-2.3867-3.6602-1.3906-0.61328-2.8906-1.1172-3.3242-1.1172-0.44531 0-2.0508-1.0078-3.5625-2.2578-1.5234-1.2461-3.6133-1.668-4.6562-0.94922-1.0195 0.71875-2.6758 1.3555-3.6602 1.4141-0.97266 0.035156-1.1875-0.52734-0.45703-1.2734l0.66016-1.5352-1.2344-0.19141c-0.30078 0-1.7773-0.51562-3.2773-1.1758-1.5-0.66016-3.4922-0.94922-4.4531-0.64844-0.96094 0.27734-2.125 0.39453-2.5781 0.27734l-1.8242-0.98438-0.42188-1.0781 0.5625-1.6914 0.61328-0.61328 1.8711 1.1758 1.4883 0.74219c0.14453 0.17969 1.0664 0.44531 2.0742 0.5625 1.0078 0.12109 2.832 0.71875 4.0938 1.3086 1.2344 0.60156 2.7461 1.1875 3.3594 1.3086 0.61328 0.12109 1.8711 0.20312 2.7617 0.14453 0.91016-0.058594 3.4336 0.52734 5.6289 1.3086 2.207 0.78125 4.3203 1.7891 4.7539 2.2578l1.7773 0.83984 2.2578-0.51562 2.207-0.51562 1.6445-0.13281 1.6445-1.4141 0.98438-2.2422-0.23828-1.6914 0.33594-1.0312 0.035156-0.83984-0.085937-1.3555 1.4414-0.83984 1.4141 0.74219 0.875 1.2617c0.28906 0.27734 1.3438 0.43359 2.3398 0.32422 1.0078-0.10938 3-0.046875 4.4023 0.14453 1.4297 0.17969 3.9961-0.14453 5.7344-0.70703 1.7383-0.5625 3.6367-1.4141 4.2227-1.8711l1.1289-2.0625c0.035156-0.67188 0.80469-1.8945 1.7383-2.7227 0.9375-0.82812 2.2578-2.2578 2.9141-3.1914 0.66016-0.9375 1.7266-2.0391 2.3398-2.4844l1.7656-1.8359 0.80469-2.2578-0.9375-2.1133c-0.60156-0.49219-5.2422-1.2109-10.32-1.5977-5.0742-0.38281-10.141-1.3789-11.258-2.207-1.1172-0.81641-2.5078-2.0625-3.0977-2.7617-0.60156-0.69531-2.832-2.1484-4.9805-3.2383-2.1367-1.0781-6.0586-2.0742-8.7227-2.207-2.6641-0.13281-1.8594-0.30078 1.7891-0.37109 3.625-0.070312 7.0195-0.3125 7.5469-0.51562l2.2812-0.046875c0.74219 0.17969 4.8477 2.5312 9.1094 5.2578 4.2617 2.7227 9.6836 4.8945 12.059 4.8359 2.3633-0.046875 5.4258-1.2109 6.793-2.5781 1.3672-1.3672 2.9023-2.6641 3.4219-2.8555l1.4023-1.0781 0.83984-1.7773 1.3086-1.3086 1.5469-1.6914 0.46875-2.3984c-0.070313-0.51562-0.82812-1.2109-1.6914-1.5352-0.83984-0.33594-1.9062-1.0312-2.3398-1.5586l-1.0156-1.7109 0.79297-1.0781c0.5625-0.13281 2.2695-0.23828 3.793-0.23828 1.5234 0 3.2148 0.13281 3.7578 0.27734l2.0156-0.70703 1.3906-0.64844 0.85156 1.4648c0.25391 0.61328 1.4531 1.7539 2.6758 2.5195 1.2109 0.76953 3.2539 1.5117 4.5469 1.6445 1.2852 0.13281 2.3047-0.37109 2.2578-1.1289l0.35938-0.88672 1.8828 0.74219 2.293 0.88672 2.0742 0.66016 1.0664-1.0781c-0.046875-0.61328-0.80469-1.8008-1.6914-2.6172-0.875-0.82812-1.6797-1.8008-1.7773-2.1602s-1.8359-1.9453-3.8516-3.5156c-2.0039-1.5703-4.2344-2.8555-4.957-2.8555l-0.61328-0.61328c0.38281-0.33594 1.7148-0.61328 2.9531-0.61328 1.2344 0 2.4609 0.22656 2.7227 0.48047l0.5625 1.5 1.3555 1.6445 2.0156 0.61328 0.98438 0.22656c0.13281 0.12109 0.68359 0.99609 1.2344 1.9219 0.52734 0.92578 1.8594 2.375 2.9414 3.2383 1.0781 0.85156 4.2344 0.070312 6.9961-1.7383 2.7461-1.8008 5.3516-3.2891 5.7617-3.2891l1.4023-0.64844c0.35938-0.35938 1.043-1.3672 1.5-2.2578 0.46875-0.875 1.7148-1.6562 2.7617-1.7266 1.0664-0.085938 2.1016-0.33594 2.293-0.5625 0.21484-0.22656 1.0312-2.0039 1.8242-3.9375s-0.52734-5.3516-2.9531-7.6094c-2.4102-2.2305-5.1016-5.6172-5.9531-7.5-0.85156-1.8828-2.1484-3.7188-2.8555-4.0781l-1.3203-1.5469c0-0.49219 1.2344-0.80469 2.7344-0.70703 1.5 0.097656 3.4805 0.058593 4.4023-0.097657 0.92578-0.15625 1.8594-0.45703 2.0625-0.66016l1.3203-0.75781 1.6914-1.0195 1.2617-1.5469-0.28906-1.5977-1.9219-0.79297-2.1602-0.70703-0.66016-0.99609 1.4141-0.79297 1.7656-1.2617 0.79297-1.5469-0.27734-1.1289c-0.17969-0.23828-1.2344-0.63672-2.3398-0.88672-1.1172-0.26562-2.8086-0.46875-3.793-0.46875-0.97266 0-2.4102-0.69531-3.1914-1.5586-0.76953-0.83984-2.3984-2.0039-3.6133-2.5664-1.2227-0.5625-1.4297-1.1172-0.46875-1.2227 0.94922-0.097656 1.6328-0.71875 1.5-1.3555-0.13281-0.64844-3.1797-1.3906-6.7422-1.6562-3.6016-0.25391-7.5-0.9375-8.6875-1.5s-3.4336-1.1055-5.0156-1.2109c-1.5703-0.10938-3.3711 0.046875-3.9961 0.35938-0.61328 0.3125-1.9219 0.60156-2.8906 0.66016-0.98438 0.046874-1.7891 0.71875-1.7891 1.5l-0.35938 2.3867c-0.21484 0.53906-0.23828 2.0625-0.058594 3.3828 0.19141 1.3086 1.1406 2.9648 2.125 3.6602 0.97266 0.69531 2.4727 1.5352 3.3125 1.8711 0.85156 0.33594 1.0078 1.1406 0.33594 1.7773l-1.6914 1.8711 0.5625 1.5 0.83984 0.98438-1.1406 0.19141c-0.51562 0-2.0039 0.37109-3.3125 0.83984s-2.9414 2.3867-3.6133 4.2734c-0.68359 1.8711-1.2461 3.9492-1.2734 4.5859l-0.70703 2.3398c-0.35938 0.64844-1.6328 2.2422-2.8086 3.5156-1.1875 1.2852-2.2578 3.2539-2.375 4.3672-0.14453 1.1055-0.50391 2.5195-0.80469 3.1445-0.3125 0.625-1.3555 1.2852-2.3398 1.5-0.98438 0.20312-2.4609 1.0547-3.2773 1.9219-0.82812 0.83984-2.0508 1.8594-2.7227 2.2422l-1.7891 0.14453-0.32422-1.7891-0.61328-2.5781c-0.45703-0.74219-2.4258-2.9141-4.3555-4.8242-1.9336-1.9062-3.625-4.1289-3.7422-4.9219-0.13281-0.80469-0.15625-2.6406-0.046875-4.0781 0.10938-1.4414 0.5625-2.375 1.0312-2.0625l2.207 0.5625 1.4023-1.4531c0.035156-0.80469-0.14453-2.207-0.37109-3.0977-0.22656-0.91016-0.42187-2.1953-0.42187-2.8555 0-0.67188-0.74219-2.2188-1.6445-3.4219-0.89844-1.2227-2.4102-2.4844-3.3711-2.8203-0.94922-0.32422-2.5547-1.4531-3.5625-2.4844-1.0078-1.0312-2.3281-1.8359-2.9531-1.7773l-2.207 0.5625-1.9688 1.4531-1.3203 2.4961c-0.22656 0.82812-0.88672 2.3281-1.4883 3.3359-0.60156 1.0078-1.2109 2.9531-1.3672 4.3086-0.15625 1.3672-0.78125 2.9766-1.4023 3.5625l-2.1133 0.98438c-0.53906-0.046875-1.3086-0.88672-1.7383-1.8828-0.40625-0.97266-0.74219-2.5195-0.74219-3.4219 0-0.91016-0.25391-2.7617-0.55078-4.1289-0.3125-1.3672-0.82812-2.9883-1.1406-3.6133s-1.7266-1.9062-3.1445-2.8555c-1.4297-0.96094-1.7266-1.7266-0.66016-1.6914 1.0547 0.023438 1.9219-0.15625 1.9219-0.42188l1.0938-0.9375 1.7656-1.1289 0.15625-0.83984c-0.3125-0.10938-2.1602-0.22656-4.0938-0.28906-1.9336-0.046874-3.5156-0.55078-3.5156-1.1289 0-0.57422-0.94922-0.79297-2.1133-0.51562-1.1641 0.28906-2.5312 0.73047-3.0586 0.98438-0.51563 0.26562-2.7617-0.33594-5.0156-1.3086-2.2422-0.98437-4.0195-2.0156-3.9375-2.293l1.5-1.8828 2.7617-2.0625 1.4023-1.1289-1.1172-0.74219-1.1406-1.1758 0.66016-1.0781c0.35938-0.13281 1.9219-0.097656 3.4688 0.058594 1.5586 0.15625 2.8086-0.19141 2.8086-0.74219 0-0.5625-0.71875-1.2109-1.5977-1.4141-0.875-0.20312-1.9336-1.0938-2.3398-1.9688s-0.74219-1.9219-0.74219-2.3047l-0.9375-1.6445-2.1016-1.4023c-0.66016-0.25391-2.2578-1.332-3.5742-2.3867-1.3086-1.0547-2.0898-2.2188-1.7383-2.5781 0.35938-0.35938 0.68359-1.8711 0.70703-3.3828 0.035156-1.5-0.79297-3.6016-1.8242-4.6914-1.0312-1.0781-2.7227-2.4375-3.7578-3-1.0195-0.5625-2.0039-1.3672-2.1953-1.7773-0.19141-0.40625-1.1172-1.1992-2.0742-1.7383-0.94922-0.53906-2.5547-1.0195-3.5508-1.0781-1.0078-0.046875-2.0273-0.30078-2.2578-0.5625-0.25391-0.25391-1.8008-0.58984-3.4805-0.74219-1.6797-0.15625-4.5234 0.44531-6.3242 1.3086-1.8125 0.875-3.707 2.1836-4.2227 2.9141l-0.32422 1.9219 1.7773 0.61328 1.2617 0.9375-0.66016 1.5977-1.5469 0.66016-2.1602-0.88672-2.0156-0.74219-1.3555 0.79297-1.4648 2.0625c-0.40625 0.76953-0.70703 3.2383-0.66016 5.4844 0.058594 2.2422 1.1758 4.4648 2.4961 4.9219 1.3086 0.46875 2.3633 1.1406 2.3398 1.5l-1.3555 0.66016-1.8828 1.1289-1.4531 2.1953-0.875 2.5781 0.97266 3 2.0156 1.9688 1.1758 1.0195 1.3203 1.5586c0.64844 0.52734 3 1.5977 5.2578 2.3398 2.2422 0.74219 4.8945 1.3555 5.9023 1.3555 1.0078 0 2.2188 0.16797 2.6758 0.37109l1.5 1.0312 1.6914 1.1172 1.8359 0.51562c0.43359 0.023437 1.5352-0.085938 2.4258-0.23828 0.91016-0.15625 2.1133-0.17969 2.6875-0.046874l1.5 1.3086c0.25391 0.58984-0.27734 1.5859-1.1758 2.207-0.91016 0.625-1.8945 0.78125-2.207 0.37109l-1.9336-0.74219-1.7266 0.70703 0.17969 1.4531 0.37109 1.5977c-0.097657 0.46875-0.875 1.5352-1.7266 2.3984-0.85156 0.83984-1.6562 2.0273-1.7773 2.6172l0.875 1.2617c0.625 0.10938 1.8242-0.22656 2.6758-0.74219 0.85156-0.51563 1.6211-1.3789 1.6914-1.9336l0.71875-1.5469 1.0312-0.23828 1.0312 1.3203c0.30078 0.52734 0.37109 2.0742 0.14453 3.4219-0.23828 1.3438-0.13281 2.7344 0.23828 3.0977 0.34766 0.37109-0.57422 1.1875-2.0742 1.8359-1.4883 0.64844-2.8789 1.5117-3.0977 1.9219-0.20312 0.42188-1.7383 1.8711-3.4062 3.2383-1.6914 1.3789-4.2461 2.4492-5.6875 2.3867-1.4414-0.046875-2.9414 0.12109-3.3242 0.37109-0.38281 0.25391-1.2344 1.6562-1.8711 3.0977-0.66016 1.4531-0.34766 3.3711 0.64844 4.2617 1.0078 0.91016 1.8359 2.0273 1.8359 2.4961l0.66016 2.293 0.32422 2.3047c-0.17969 0.46875-0.38281 1.6914-0.48047 2.7227-0.070313 1.0312-0.50391 2.1367-0.97266 2.4375-0.46875 0.3125-1.8711 0.60156-3.1445 0.66016-1.2617 0.058594-2.0039 1.1055-1.6445 2.3398 0.34766 1.2461 0.26562 1.9688-0.20312 1.5977l-1.1172-1.3086c-0.16797-0.37109-1.1406-1.4414-2.1602-2.3867-1.0312-0.96094-1.6797-1.9688-1.4141-2.2578l1.5-0.50391 1.2344-0.28906 0.66016 0.097657c0.25391 0.21484 1.5586 0.40625 2.8906 0.46875 1.3438 0.046874 2.4492-0.70703 2.4492-1.6914s-0.50391-1.8477-1.1289-1.9219l-1.1758-0.60156-0.37109-1.0312-1.3086 0.19141-1.8711 0.35938-0.88672-1.3086-1.0781-1.4141-1.8711-1.5977c-0.44531-0.61328-0.15625-2.1836 0.64844-3.4805 0.80469-1.2734 1.7539-3.4336 2.125-4.7773 0.34766-1.332 0.50391-2.6406 0.32422-2.9023l-1.2227-0.42188-1.5469 0.55078-1.2227 0.74219-0.99609 0.23828-0.79297-1.0312-0.70703-1.4531-1.4414-0.5625c-0.63672-0.085937-1.7148-0.96094-2.3984-1.9688-0.70703-1.0078-2.7461-2.0156-4.5469-2.2578-1.8125-0.22656-3.5898 0-3.9375 0.50391l-1.9219 1.5469c-0.70703 0.33594-1.957 0.44531-2.8203 0.23828-0.83984-0.21484-1.4531 0.085938-1.3555 0.64844l0.83984 1.5 0.37109 1.1289-0.27734 1.5977 0.89844 1.3555c0.48047 0.22656 2.5547 0.42188 4.5977 0.42188 2.0391 0 4.0195 0.28906 4.4023 0.66016l1.3555 0.66016 0.9375 1.1758 0.27734 2.1484c0 0.53906-0.875 1.0078-1.9688 1.0312-1.0781 0.011719-2.6055-0.10938-3.3828-0.27734-0.75781-0.19141-2.8555-1.5-4.6328-2.9141-1.7773-1.4141-3.625-2.4258-4.0938-2.2422l-0.22656 0.9375 0.27734 1.1758-1.5586 1.8359c-0.66016 0.69531-5.2812 0.67188-10.262-0.058594-4.9805-0.71875-10.105-0.97266-11.398-0.55078-1.2852 0.40625-4.3789 0.875-6.8867 1.0312s-7.4141-0.625-10.922-1.7539c-3.5156-1.1055-6.8516-2.5078-7.4141-3.1445-0.5625-0.61328-3.707-0.9375-6.9844-0.70703-3.2773 0.23828-6.6367-0.42187-7.4531-1.4531-0.81641-1.0312-2.832-2.3867-4.4648-3-1.6211-0.625-3.2539-2.3398-3.6133-3.8398-0.34766-1.5-1.5469-3.5625-2.6289-4.5977-1.0781-1.0195-2.5781-1.9805-3.3242-2.1133-0.74219-0.13281-3.1211 0.25391-5.2578 0.83984-2.1484 0.60156-4.5352 1.4648-5.3047 1.9219-0.76953 0.45703-3.9375 1.2344-7.0312 1.6914-3.0977 0.46875-7.0938 2.1367-8.8555 3.707-1.7773 1.5586-2.0039 3.2656-0.51562 3.7422 1.4883 0.50391 3.9258 0.89844 5.3867 0.89844 1.4648 0 2.8789-0.40625 3.1445-0.89844l1.6914-1.3086 1.5117-0.14453c0.15625 0.15625 2.1836-0.20312 4.4883-0.79297 2.3281-0.58984 4.9453-1.6914 5.8203-2.4492 0.875-0.74219 2.3633-1.5117 3.3125-1.7266 0.97266-0.21484 2.2578-0.38281 2.8672-0.38281 0.61328 0 1.0781 0.78125 1.0312 1.7539-0.046875 0.94922-1.1875 1.9219-2.5312 2.1484-1.332 0.22656-2.9883 0.91016-3.6602 1.5l-2.7227 1.9336c-0.81641 0.46875-3.3125 1.2461-5.543 1.7266-2.2188 0.49219-4.7266 1.3789-5.5664 1.9688-0.86328 0.60156-1.7891 1.8594-2.0742 2.8086-0.27734 0.96094 0.32422 2.6289 1.3555 3.707 1.0312 1.0781 2.1133 2.375 2.3984 2.8555l0.55078 2.1133 0.67188 2.1953 1.3438 1.7031 1.2734 2.1953-0.38281 1.5-1.1758 0.32422-0.9375 0.42188-0.83984 0.83984-0.085937 1.4648 0.74219 1.6445 0.92578 1.8242-0.26563 0.64844c-0.3125-0.13281-1.957-1.5977-3.6719-3.2773-1.7031-1.6797-3.3828-3.0352-3.7422-3.0352l-0.98438-0.89844-1.1758-1.7383c-0.46875-0.45703 0.10938-0.79297 1.2617-0.74219 1.1641 0.035156 2.1719-0.39453 2.2578-0.99609l0.046875-1.9219c-0.058594-0.46875-1.3555-1.8828-2.9023-3.1445s-3.1562-2.0391-3.5625-1.7266l-1.8242 0.9375-1.5-1.0312-0.42188-2.5312c0-0.625-1.7773-1.5469-3.9375-2.0625-2.1836-0.51563-4.4531-1.6094-5.0742-2.4492l-2.5312-1.5352c-0.76953-0.023437-2.207 0.28906-3.1914 0.69531-0.98438 0.42188-2.4375 1.2227-3.2383 1.7891-0.80469 0.5625-3.8164 1.2852-6.707 1.5977s-5.9023 0.44531-6.7188 0.28906c-0.79297-0.15625-2.3516 0.085938-3.4688 0.55078-1.1172 0.46875-4.2461 0.88672-6.9844 0.94922-2.7461 0.046875-5.8789-0.25391-6.9844-0.66016-1.1172-0.40625-4.8008-1.0195-8.2188-1.3555-3.4062-0.33594-6.6367-1.0312-7.1875-1.5586-0.52734-0.50391-0.35938-1.9219 0.38281-3.1445 0.74219-1.2109 1.7773-2.375 2.293-2.5664l1.5-0.83984c0.30078-0.25391 2.0625-0.50391 3.8867-0.51562 1.8242-0.023437 3.5898-0.32422 3.8867-0.64844l0.51562-1.5c-0.023438-0.49219-2.7969-2.8555-6.1914-5.2578-3.3711-2.3984-8.2695-4.4766-10.871-4.5977-2.6172-0.13281-4.8828 0.058594-5.0625 0.43359l-0.83984 1.1758c-0.28906 0.27734-4.4023-0.20312-9.1562-1.0781s-10.812-2.832-13.5-4.3555c-2.6875-1.5234-7.2461-2.8906-10.141-3.0469-2.8906-0.15625-7.9336-1.8242-11.219-3.7188-3.2656-1.8711-7.9805-3.9258-10.453-4.5352-2.4727-0.625-7.0078-0.91016-10.094-0.66016-3.0586 0.26562-5.7461 0.96094-5.9531 1.5469l-1.1172 1.8711c-0.42187 0.44531-1.1641 1.5586-1.6562 2.4844-0.49219 0.9375-1.2461 1.9453-1.6914 2.2578-0.43359 0.3125-2.4102 0.53906-4.4023 0.51562-1.9922-0.011719-3.9727-0.60156-4.4023-1.2617l-0.23828-1.7266 1.3086-1.8828 1.1289-1.7383-1.0938-0.88672-1.9219-1.0312c-0.25391-0.27734-0.48047-1.5977-0.50391-2.9023-0.035156-1.3086-0.33594-2.4102-0.71875-2.4375l-1.4531 0.55078-0.78125 1.0781-0.23828 0.83984-0.89844 0.79297-0.5625 1.6445-0.46875 1.2344-1.7383 0.46875-1.5977 1.0664 0.38281 1.4141 0.22656 1.4141-0.32422 1.3555-0.22656 1.1758-1.2344 0.42188c-0.40625 0-1.5859-0.45703-2.5781-1.0195-1.0078-0.5625-2.0742-1.0312-2.3867-1.0312l-1.5469-0.46875-2.1602-1.8359-2.0156-1.9688-1.7383-1.9688-0.94922-2.1602c-0.023438-0.44531-1.2617-2.375-2.7617-4.3086-1.4883-1.9453-3.0703-3.7578-3.5156-4.0312l-1.9219-1.6914-2.0156-1.6445-1.9219 0.097656-1.3086 1.5c-0.15625 0.51562 0.82812 1.6797 2.207 2.5664 1.3672 0.91016 2.2305 1.8125 1.9219 2.0273-0.3125 0.20312-1.7539 0.625-3.2383 0.9375-1.4883 0.3125-2.9141 1.043-3.2383 1.6445l-0.5625 1.7383-0.83984 0.94922c-0.45703 0.15625-1.7539 1.0078-2.8555 1.9219-1.1172 0.89844-2.6172 1.5703-3.3359 1.5l-1.5352-0.98438c-0.14453-0.46875-2.2578-0.35938-4.6914 0.23828-2.4609 0.60156-6.3594 2.6406-8.6875 4.5469-2.3281 1.9062-4.7539 3.1562-5.3984 2.7617-0.63672-0.38281-2.7344-0.66016-4.6445-0.60156-1.9062 0.035156-3.8633 0.58984-4.3555 1.2109-0.49219 0.625-1.668 1.7266-2.6289 2.4375-0.94922 0.73047-2.6523 1.6562-3.7422 2.0742-1.1172 0.39453-2.2578 1.2227-2.5312 1.8242l0.14453 1.2734 1.4531 0.9375c0.44531 0.42188-0.60156 0.81641-2.293 0.88672-1.7031 0.085937-3.1445 0.53906-3.2031 1.0312l-0.64844 0.88672-1.5469-0.42188-1.0312-1.0312 0.3125-1.3555 1.3672-1.7383 1.5352-1.0664 1.3203-0.43359 1.0781-0.64844 0.66016-1.1289 0.83984-1.1758 1.1289-0.28906c0.32422 0.058594 1.4023-0.44531 2.3867-1.1289 0.97266-0.66016 2.3047-1.8828 2.9531-2.7109l2.6289-2.0156c0.79297-0.28906 3-0.64844 4.8711-0.79297 1.8828-0.15625 6.7812-1.8242 10.883-3.707 4.1055-1.8828 7.7266-3.7188 8.0625-4.0781l0.88672-1.4531c0.16797-0.44531-0.43359-0.83984-1.3086-0.89844-0.875-0.058594-2.543 0.12109-3.707 0.37109-1.1641 0.26563-3.0586 0.34766-4.2227 0.19141-1.1641-0.15625-3.0703 0.13281-4.2227 0.66016-1.1641 0.51562-2.6406 1.6328-3.2891 2.4844-0.63672 0.85156-1.4648 1.332-1.8125 1.0781-0.35938-0.26562-2.4609 0.3125-4.6562 1.2617-2.1953 0.94922-4.8594 1.7266-5.9531 1.7266s-1.9922 0.28906-2.0156 0.66016c-0.035156 0.35938-0.88672 0.68359-1.9219 0.70703-1.0312 0.023437-2.3164 0.33594-2.8555 0.70703l-1.1289 2.0156-1.5977 1.3555c-0.79297 0-2.2422 0.25391-3.1914 0.5625-0.96094 0.30078-2.0156 0.82812-2.3516 1.1758l-1.5977 0.88672c-0.53906 0.15625-1.8242 1.0781-2.8555 2.0508-1.0312 0.98438-2.1719 2.2305-2.5312 2.7734-0.35938 0.53906 0.035156 2.0625 0.88672 3.3711 0.85156 1.3086 0.67188 2.2305-0.42187 2.0156-1.0781-0.21484-2.375-0.78125-2.8555-1.2617-0.49219-0.50391-1.9062-1.0664-3.1445-1.2734-1.2461-0.20312-2.6406-0.070312-3.0977 0.28906l-0.046875 2.1133c0.43359 0.79297-0.80469 0.60156-2.7734-0.42188-1.957-1.0312-8.0508-2.7852-13.547-3.8867-5.4961-1.1172-12.238-3.0977-14.965-4.4141-2.7344-1.3086-5.6641-3.1562-6.5156-4.0781-0.85156-0.9375-2.1484-1.957-2.8555-2.293l-1.8711-0.046875c-0.3125 0.3125-4.8125 0.035156-9.9961-0.60156-5.1836-0.64844-9.7422-1.2969-10.141-1.4648l-1.7266-1.2734c-0.57422-0.52734-3.875-2.1602-7.3672-3.6133-3.4805-1.4531-8.1602-2.7109-10.414-2.8086-2.2305-0.097656-4.5977 0.10938-5.2422 0.46875-0.66016 0.37109-2.1953 0.52734-3.4336 0.37109-1.2344-0.15625-2.8086-0.023438-3.5156 0.28906-0.69531 0.3125-2.9766 0.60156-5.0625 0.66016-2.0898 0.058594-5.6758-0.67187-7.9688-1.5977-2.293-0.9375-7.8828-1.9062-12.434-2.1602-4.5352-0.25391-9.0977-0.94922-10.129-1.5469-1.0312-0.60156-3.5742-1.4023-5.6289-1.7891-2.0625-0.38281-4.3438-1.0547-5.0742-1.5-0.71875-0.44531-4.1992-0.53906-7.7383-0.22656-3.5391 0.3125-7.2617 0.32422-8.293 0.035156-1.043-0.27734-3.2539-0.10938-4.9336 0.38281-1.6797 0.49219-3.4219 0.68359-3.8867 0.42188-0.45703-0.25391-1.5352-0.46875-2.3867-0.46875-0.85156 0-1.8359-0.14453-2.207-0.33594l-1.4023-1.1289c-0.40625-0.44531-1.7656-0.79297-3-0.79297-1.2461 0-2.1719-1.1172-2.0625-2.4844 0.097656-1.3555-0.57422-2.4844-1.5-2.4844-0.92578 0-2.7344-0.25391-3.9961-0.5625-1.2461-0.3125-3.2266-0.5625-4.3555-0.5625-1.1289 0-2.7734 0.27734-3.6484 0.61328-0.875 0.33594-2.7461 0.58984-4.1406 0.55078-1.3906-0.011719-2.9766-0.21484-3.5156-0.42188l-1.4141-1.8242-1.1289-1.9688-1.3906-0.23828c-0.39453 0.15625-1.5117 0.097656-2.4844-0.13281-0.98438-0.23828-2.1719-0.046875-2.6289 0.42188l-0.85156 1.2227-0.88672 1.1289-1.6445 1.1289-1.4023 0.37109-1.6445-0.37109-0.98438-1.2617c0-0.50391 0.79297-1.1172 1.7773-1.3672 0.98438-0.25391 1.957-0.78125 2.1602-1.1758l0.37109-1.2617c0-0.3125-0.81641-0.91016-1.8242-1.3086-1.0078-0.42188-2.9648-0.81641-4.3555-0.89844-1.3906-0.085937-2.543-0.57422-2.543-1.1172l-0.69531-0.99609c-0.38281 0-3.1211 1.9805-6.0586 4.4023-2.9414 2.4375-8.1367 4.9062-11.531 5.4961-3.3945 0.58984-7.0547 0.86328-8.1133 0.61328-1.0664-0.26562-2.3633-0.46875-2.9141-0.46875-0.52734 0-2.1602 0.64844-3.6133 1.4531-1.4414 0.80469-2.1602 1.9453-1.5977 2.5312l1.9688 1.5469-0.55078 1.2227-1.5117 1.6914-0.98438 0.83984-1.2266-1.3086-0.14453-2.1602-0.23828-0.9375c-0.25391 0-2.5312 1.1992-5.0625 2.6758-2.5312 1.4648-5.2305 2.8438-6.0117 3.0352-0.76953 0.21484-2.5781 0.42188-4.0312 0.48047-1.4414 0.058594-2.6172-0.21484-2.6172-0.61328 0-0.38281-2.7461 1.7656-6.1094 4.7891-3.3477 3.0117-6.793 7.1523-7.6445 9.1914-0.85156 2.0391-2.1133 4.4648-2.7617 5.3984-0.68359 0.92578-2.5781 2.3633-4.2344 3.1914s-3.8281 1.5352-4.8711 1.5977c-1.0195 0.046875-2.2695 0.25391-2.7617 0.46875-0.49219 0.21484-4.3438 0.49219-8.5781 0.61328-4.2344 0.12109-7.7773 1.1641-7.8828 2.293-0.097656 1.1289-0.38281 2.4258-0.66016 2.8555-0.25391 0.44531-0.69531 1.5117-0.97266 2.3867-0.28906 0.875-0.52734 1.7383-0.52734 1.9219 0 0.17969 5.1836 3.3008 11.496 6.9492 6.3125 3.6484 12.551 8.375 13.824 10.547 1.2969 2.1602 2.6875 3.9375 3.0977 3.9375 0.42188 0 1.7148 0.28906 2.8555 0.66016 1.1758 0.35938 3.6836 0.74219 5.5938 0.88672 1.9062 0.13281 3.707-0.27734 3.9844-0.88672l1.3086-0.33594c0.44531 0.44531 1.9453 1.043 3.3242 1.3555 1.3906 0.3125 2.9141 0.81641 3.3711 1.1289l0.097657 0.83984-1.2461 0.94922-0.51562 1.5469 0.89844 2.1602 1.7383 1.7383c0.46875 0.25391 1.5859 0.25391 2.4727 0 0.91016-0.25391 2.0039-0.75781 2.4375-1.0781l2.1719-0.046875 2.1602 0.43359 2.0625-0.097657 1.6445 0.83984 0.57422 1.0312-0.94922 1.2734-2.3398 1.3086-2.3125-0.003907-1.9688-0.83984-1.6914-0.83984h-1.6289l-0.90234 0.78125 1.0938 1.0195 1.7383 1.2227 0.23828 1.1289-0.71875 0.097656-1.2109-0.42188h-1.7383c-0.46875 0.046875-1.5703 0.78125-2.4375 1.6445-0.875 0.83984-2.4492 1.5586-3.4805 1.5977-1.0312 0.011719-2.5938 0.23828-3.4688 0.46875-0.875 0.22656-1.9688 0.046875-2.4375-0.42188-0.45703-0.46875-3.3477-0.85156-6.4219-0.85156-3.0703 0-5.9141-0.38281-6.3242-0.83984l-1.5977-0.83984-0.33594-0.51562 0.83984-1.4023 0.88672-1.5 0.625-1.4531-0.20313-1.6797c-0.13281-0.46875-1.668-0.74219-3.4219-0.61328-1.7539 0.13281-4.1641 0.75781-5.3398 1.4023-1.1875 0.64844-3.5742 1.4766-5.293 1.8359-1.7266 0.35938-3.793 0.99609-4.6094 1.4023l-1.2734 1.7188 0.67188 1.5-0.27734 0.61328-1.8828-0.23828c-0.61328-0.17969-2.1133-0.28906-3.3242-0.23828-1.2109 0.046876-3.4922 1.0547-5.0625 2.2578-1.5703 1.1992-3.4688 2.2422-4.2227 2.3516l-2.8242 0.73828-2.1133 1.2227-1.8242 0.66016-1.4609 0.9375c-0.15625 0.51562 3.6367 2.0273 8.3984 3.3711 4.7656 1.3438 8.8438 2.8438 9.0469 3.3359l-0.79297 1.1172-1.6914 0.66016-1.4023 0.17969-1.3906 0.32422 0.26562 1.4648 1.8242 1.6445 1.0312 1.4141-0.19141 1.3086 0.37109 1.2734 1.043 1.4023c0.25391 0.44531 3.5391 1.0312 7.2969 1.3086 3.7695 0.28906 7.2734 0.64844 7.7891 0.80469 0.51562 0.14453 1.6797-0.085937 2.5781-0.51562 0.89844-0.43359 3.5625-0.83984 5.9023-0.88672 2.3516-0.046874 4.5469 0.17969 4.8828 0.51563l1.1172 0.89844 1.5117 0.27734 1.0195-1.2227c0.035156-0.67187 0.78125-0.44531 1.7031 0.51563 0.89844 0.94922 1.957 1.7773 2.3398 1.8242l1.5469-0.32422 0.83984-0.9375 0.42188-0.51563 1.0781-0.9375c0.35938-0.51562 1.6328-1.2734 2.8086-1.6914 1.1992-0.40625 2.4375-1.0195 2.7617-1.3555 0.33594-0.33594 1.4414-0.64844 2.4492-0.66016 0.99609-0.023437 2.2422-0.22656 2.7617-0.42188l1.5-1.1289 1.4531-0.5625 0.98437 0.69531 0.69531 0.83984 0.80469 1.1289 0.19141 1.4648-1.4141 1.8359-2.1016 1.1758-1.1289-0.42188-0.79297 0.085938-0.33594 0.98437 1.0938 1.0312 2.207 1.8359 1.4023 2.1953 0.82812 2.0742 0.625 2.1953c0 0.58984-0.37109 1.7773-0.83984 2.6289-0.44531 0.83984-1.4531 2.125-2.2305 2.8438-0.76953 0.73047-2.6406 1.4023-4.1406 1.5-1.4883 0.097656-3.4062-0.085938-4.2617-0.42188-0.83984-0.33594-2.125-0.51562-2.8086-0.42188-0.68359 0.097656-2.0898 1.1641-3.0977 2.3398-0.99219 1.1914-2.6133 2.7656-3.5625 3.4844-0.96094 0.71875-3.4805 1.5-5.6289 1.7383-2.1484 0.23828-3.8281-0.13281-3.7578-0.79297l-0.66016-1.7383-1.9531-0.52734-2.3398 0.33594-1.7891 1.2617-0.60938 1.6445-1.4531 0.83984-1.7383 0.88672-0.46875 2.1133c-0.10938 0.74219 0.61328 1.3555 1.5977 1.3555s1.5469 0.44531 1.2734 0.99609l-0.52734 1.8594-0.64844 0.89844-1.5977-0.33594-2.2109-0.023437c-0.69531 0.15625-2.2422 1.0938-3.4219 2.1016-1.1719 1.0078-2.457 2.2422-2.8047 2.7578-0.35938 0.51563-0.76953 1.6562-0.89844 2.5312-0.13281 0.875-0.085937 1.9062 0.10938 2.293 0.17969 0.38281-0.625 1.5703-1.7891 2.6289-1.1523 1.0547-1.7031 2.1836-1.2227 2.4844l1.1406 1.8359 1.0781 2.1602 1.2227 2.1133 1.7266 0.79297c0.75781-0.22656 1.5977-1.2969 1.8828-2.3516 0.27734-1.043 1.5117-2.6875 2.7227-3.6133 1.2109-0.92578 2.2422-1.3203 2.293-0.88672 0.046875 0.44531-0.53906 1.5703-1.3086 2.5195-0.76953 0.96094-1.4297 2.2422-1.4531 2.8555-0.023438 0.625 0.23828 1.8359 0.5625 2.6758 0.33594 0.85156 0.80469 1.8242 1.0312 2.1602 0.23828 0.33594 2.5781 0.64844 5.207 0.70703 2.6289 0.046876 5.5195-0.26562 6.4219-0.70703 0.89844-0.44531 1.668-0.3125 1.7031 0.27734l0.50391 1.7031 0.37109 1.4531-0.875 1.2617-1.1758-0.28906-1.1875-1.3086c-0.43359-0.33594-1.5703-0.21484-2.5312 0.27734-0.94922 0.49219-1.7383 0.49219-1.7383 0l-0.70703-0.88672-2.0156-0.55078-2.6172-0.33594-1.5586 0.70703c-0.13281 0.25391-0.96094 1.2852-1.8242 2.293-0.875 0.99609-0.98437 2.0039-0.23828 2.1953l1.3906 1.0781 1.5586 1.4141 2.1602 0.69531 1.3555 1.0781 2.0625 2.2578 1.8242 2.1602c0.25391 0.52734 1.332 1.1758 2.3984 1.4023 1.0547 0.22656 3.2266 0.33594 4.8242 0.22656 1.5977-0.097656 3.8281-0.71875 4.9688-1.3555 1.1406-0.63672 2.6172-1.1758 3.2773-1.1758s1.1406-1.3203 1.0312-2.9531c-0.09375-1.5938 0.86719-4.1133 2.1289-5.5547 1.2461-1.4531 2.8086-2.5781 3.457-2.5195 0.66016 0.046876 0.19141 1.2852-1.0195 2.7617-1.2227 1.4648-2.1953 3.2031-2.1719 3.8398s1.3086 3.5508 2.8555 6.4688c1.5469 2.9141 2.4844 5.7734 2.0742 6.3359l-1.2227 2.207c-0.25391 0.64844 0.25391 1.7891 1.1406 2.5312 0.86328 0.74219 1.3555 2.3164 1.0664 3.4805-0.27734 1.1523-1.2852 2.6055-2.2422 3.2383-0.96094 0.61328-0.27734 1.043 1.4883 0.98438 1.7891-0.070313 3.5391-0.58984 3.8867-1.1172 0.37109-0.55078 1.9453-1.5586 3.5273-2.2578 1.5703-0.69531 3.1094-1.2617 3.4219-1.2617l1.8711-0.87109 1.7891-0.83984 1.0312 0.88672c0.3125 0.50391 1.4648 1.3203 2.5938 1.8359 1.1055 0.50391 2.3867 0.58984 2.8438 0.14453l2.207 0.17969c0.74219 0.53906 1.8594 1.7383 2.4961 2.6758 0.625 0.92578 1.6445 2.0391 2.293 2.4844l1.5938 0.37109 0.88672-0.42188c0.25391 0 0.46875-1.0547 0.46875-2.3516 0-1.2852 0.67187-3.1094 1.5-4.0312 0.81641-0.9375 1.3086-2.2188 1.0781-2.8555l0.19141-0.66016 1.5977 0.9375 1.4023 1.0781 0.98438 1.2266-0.74219 0.42188-2.0273 0.65625 0.19141 1.9805 1.9219 1.6328c0.57422 0.25391 4.1875-1.0938 8.0156-3 3.8398-1.9062 6.4922-2.6289 5.8555-1.5977-0.61328 1.0312-1.1406 2.1836-1.1758 2.5781-0.011718 0.38281-1.1055 1.7031-2.3867 2.9023-1.2852 1.2227-2.375 2.6992-2.4375 3.2891l0.88672 2.0625-0.26562 1.2617-1.5938 1.3711c-0.19141 0.58984-0.34766 2.0039-0.38281 3.1445-0.023438 1.1406 0.058593 2.5781 0.19141 3.2383l-1.0312 1.1758c-0.69531 0-3.0859 1.6094-5.293 3.5625-2.207 1.957-4.5234 4.4023-5.1133 5.4375-0.60156 1.0312-1.6562 1.8711-2.3398 1.8711l-2.3516 0.32812-1.8711 1.1406c-0.44531 0.43359-3.0586 2.1133-5.8203 3.707-2.7461 1.5977-5.207 3.4922-5.4375 4.2227l-0.19141 2.1836-0.046875 2.0508-0.83984 0.625-1.5117-0.32422-1.3906 0.70703-1.0781-0.66016c-0.33594-0.625-1.7148-1.2461-3.0586-1.4023-1.332-0.15625-3.1328-0.14453-3.9844 0.046875-0.83984 0.19141-2.0508 0.67188-2.6641 1.0781l-2.2578 1.0781-2.125 1.5117-1.2617 2.0508-0.98438 1.8242-0.37109 2.0742 1.1406 2.1953 1.5977 0.57422 1.7656-0.625 2.2578-1.3906 1.8594-2.6406 1.0781-1.8711 0.80469-0.74219 0.98828 0.007813 0.42188 0.70703-0.37109 1.1758 0.79297 1.2617 1.4531 0.046875 1.7656-1.2227c0.70703-0.34766 2.2422-0.61328 3.4336-0.5625 1.1875 0.058594 2.2578-0.33594 2.3867-0.88672 0.13281-0.52734 1.0195-1.1289 1.9688-1.3086 0.94922-0.17969 1.9688-0.5625 2.2578-0.83984l1.5-0.51563 1.5977 0.98438c0.33594 0.53906 1.4766 0.12109 2.5312-0.9375 1.0664-1.0547 2.2578-1.9219 2.6289-1.9219l1.7891-0.51562 1.6914-1.0781 1.9688-0.5625 2.3398-0.42187 1.1289-1.1758 0.035157-1.9219-0.46875-1.4883 0.42187-1.1758 1.8242-0.80469 1.7383-0.69531c0.38281-0.38281 1.8359-1.2461 3.2383-1.9219 1.3906-0.68359 2.543-1.3438 2.543-1.5117 0-0.15625 0.92578-0.44531 2.0508-0.66016 1.1406-0.20312 3.4453-1.1758 5.125-2.1602 1.6797-0.97266 3.0469-2.4102 3.0469-3.1914l0.74219-2.293c0.40625-0.49219 4.3555-3.0859 8.7617-5.7617 4.4141-2.6875 8.7109-5.0508 9.5273-5.2578l2.0625-0.35938 1.1289-0.33594 1.3555-1.0781 0.79297-1.5977 0.19141-1.6914 0.9375-1.6445 1.4023-0.9375 1.2617-0.14453 1.3555-0.50391 1.1406-1.5977 1.0664-1.7773-0.37109-1.1758-1.9219-1.3203c-0.45703-0.45703-1.8711-0.875-3.1328-0.9375-1.2617-0.046875-2.3633-0.9375-2.4492-1.9688-0.070312-1.0312 0.53906-2.3047 1.3555-2.8086l1.7773-1.6914 0.83984-1.2617c0.30078-0.28906 1.3438-0.70703 2.293-0.94922 0.94922-0.22656 2.0898-0.39453 2.4844-0.37109l1.4023-0.37109 0.61328-0.99609-0.51562-1.1758 0.48047-0.61328 1.957-0.23828 1.4023-0.22656 0.9375-0.66016 0.61328-1.3672c0.035156-0.38281-0.64844-1.4141-1.5-2.293-0.83984-0.875-0.92578-1.4531-0.17969-1.2617l2.0156 0.32422 1.2617-0.5625 0.61328-1.4531 0.83984-1.7891 1.8242-1.4023c0.52734-0.27734 1.6797-1.1758 2.5312-1.9688 0.85156-0.79297 1.5469-1.6914 1.5469-1.9688l0.5625-1.5977c0.30078-0.60156 1.4648-1.2461 2.5781-1.4648 1.1172-0.21484 3.5039-1.3438 5.293-2.5312 1.8125-1.1758 3.4922-1.957 3.7422-1.7266l1.7891 0.64844 2.1133 0.66016c0.43359 0.23828 1.957-0.58984 3.3711-1.8242 1.4141-1.2344 3.0469-2.2305 3.6133-2.207l1.0312 0.70703-0.79297 1.4531-0.88672 2.207 0.23828 2.1016c0.19141 0.39453 1.1289 1.1523 2.1133 1.6914 0.98438 0.53906 1.2969 0.98438 0.70703 0.98438-0.58984 0-2.0898-0.25391-3.3242-0.5625-1.2344-0.3125-2.832-0.48047-3.5742-0.37109h-2.4375l-2.0039-0.60156-2.293 0.22656-2.7734 1.6914-2.7617 1.6914-1.3906 1.7773 0.22656 2.0156-0.45703 2.3672c-0.38281 0.80469-1.6797 2.4727-2.8555 3.7188-1.1875 1.2344-2.3047 2.8203-2.4844 3.5156l-0.27734 2.2422c0.023437 0.55078 1.1406 1.1172 2.4844 1.2734 1.332 0.15625 2.6758 0.046876 2.9648-0.23828l1.0664 0.046875-0.94531 1.918c-0.81641 0.74219-2.3633 1.5977-3.4219 1.8711-1.0547 0.28906-2.0508 0.76953-2.207 1.0781l0.085937 1.4023c0.21484 0.46875 1.1289 0.83984 2.0273 0.83984s2.1953-0.19141 2.8555-0.42188c0.67188-0.22656 2.0273-0.3125 3-0.19141 0.98438 0.13281 2.0625-0.12109 2.3984-0.5625l1.5-1.4023 1.4023-1.2617 1.6914-1.1758 1.5352-0.88672 0.89844-0.38281 1.5977-0.46875 1.8242-1.1289 1.0781-1.2227 0.5625-0.55078 1.4531-0.70703 2.3398-1.0312 2.4375-0.17969c0.73047 0.070313 2.0391 0.035157 2.9023-0.097656 0.875-0.13281 1.8711-0.37109 2.2188-0.51562l2.0508-1.7383 1.4648-2.2578 0.79297-1.4531 1.1289-1.5977c0.17969-0.51562-0.74219-1.0195-2.0156-1.1406-1.2852-0.097656-2.0156-0.51562-1.5977-0.9375l-0.42188-1.3086-1.5586-0.99609 0.70703-0.74219 1.7891-1.3555 0.60156-2.1602 0.83984-1.1289 2.3047-1.2227 1.3555-0.83984-0.42188 1.3086-1 1.6367-0.28906 1.2734 1.2344 0.88672 2.3867-0.51562c0.81641-0.44531 2.293-0.70703 3.2773-0.61328 0.97266 0.097656 2.0391-0.058594 2.3398-0.37109l1.7539-0.5625c0.63672 0 2.0039-0.40625 3.0469-0.88672 1.0195-0.50391 2.2305-0.69531 2.6641-0.43359 0.44531 0.26562 0.023438 0.875-0.92578 1.3672-0.96094 0.49219-1.6445 1.2461-1.5117 1.6914 0.13281 0.44531 1.1523 0.94922 2.2578 1.1289 1.1055 0.17969 2.4102 0.51562 2.8906 0.74219l0.71875 0.88672 1.2461 1.6914 2.125 2.1484c0.34766 0.51562 1.4766 1.1992 2.4844 1.5 1.0078 0.30078 3.3477-0.70703 5.2188-2.2578 1.8359-1.5469 3.3242-2.4375 3.2656-1.9688l-0.79297 1.8359-1.0312 2.4375 0.046875 2.3398 1.8711 0.88672 2.293 0.38281 1.4023 1.0664 1.7031 0.99609c0.58984 0.15625 3.8281-0.011719 7.2227-0.37109 3.3711-0.37109 8.9883-0.22656 12.469 0.32422 3.4922 0.52734 6.7422 0.57422 7.2344 0.097656l1.7383-0.23828 0.66016 1.7383 1.0312 1.8242c0.67188 0.42188 3.5625 0.85156 6.4219 0.99609 2.8672 0.13281 5.3984 0.046875 5.6289-0.19141l1.2734-0.9375 1.3086-0.99609c0.25391-0.25391 1.2461-0.66016 2.207-0.88672 0.94922-0.22656 2.1367-0.33594 2.6289-0.22656l1.5977 0.51562 1.0781 0.69531-0.42188 0.89844-1.5 1.3086-0.71875-0.085937-0.42188-1.8242-1.2461 0.085938-0.88672 1.9336-0.25391 1.4531-0.875 1.2617c-0.39453 0.39453 2.7852 2.3867 7.0781 4.4141 4.2969 2.0273 9.1797 5.0898 10.883 6.793 1.7031 1.7031 3.6602 3.2383 4.3555 3.4219 0.69531 0.19141 2.6992 1.3438 4.4414 2.5781 1.7656 1.2344 3.6484 2.1484 4.1875 2.0156l1.1289-0.83984 0.32422-0.83984c0.10938-0.13281 1.0312-0.15625 2.0625-0.058594 1.0312 0.10938 1.957-0.085937 2.0742-0.42188l-0.99609-2.1016-1.9219-1.5-1.1289-0.88672-0.88672-1.3672c-0.27734-0.25391-1.3086-0.51562-2.293-0.5625-0.98438-0.046874-1.7773-0.71875-1.7773-1.5l1.4023-0.94922 2.207 0.48047 1.9219 1.1758 1.7773 1.1758 1.1758-1.3555 1.4023-0.14453 0.66016 1.6445c-0.13281 0.22656 0.13281 1.2461 0.5625 2.2578 0.44531 0.99609 0.81641 2.1836 0.83984 2.6289 0.035156 0.44531 0.82812 1.0195 1.7773 1.3086 0.96094 0.27734 2.1836 0.86328 2.7344 1.3086l1.7773 0.80469 1.0781-0.51562 0.26562-1.6914c0-0.64844-0.92578-3.5742-2.0625-6.5156-1.1289-2.9414-2.0156-5.7227-1.9688-6.1914l0.74219-1.5 0.67188 0.79297c0 0.80469 0.28906 2.2578 0.66016 3.2383 0.35938 0.97266 1.2461 2.4727 1.957 3.3242 0.73047 0.85156 1.332 1.8828 1.3672 2.293l0.64844 1.5469 0.80469 1.3086 1.0781 1.2617c0.49219 0.42188 1.8945 1.1758 3.1445 1.6914 1.2461 0.51562 2.6172 0.63672 3.0469 0.27734l1.5-1.7891 1.0781-1.1289 0.37109 0.74219-1.0781 1.6445-1.0781 2.1133 0.9375 1.5977 1.4023 0.37109 0.48047 1.4141 0.64844 1.4023 1.1758-0.32422 1.1289-0.42188 1.0938 0.37109 0.45703 0.83984-0.875 0.51562c-0.50391 0.070312 0.070312 1.1289 1.2617 2.3398 1.1875 1.2109 1.668 2.207 1.0781 2.207l-1.5977 0.88672 0.42188 1.5469 0.66016 0.83984-1.0781 0.27734-0.79297 0.74219 0.70703 1.1289c0.38281 0.25391 1.5703 0.55078 2.6172 0.66016 1.0664 0.10938 2.1602 0.44531 2.4375 0.74219l0.89844 1.5469c0.20312 0.55078 2.6641 3.2773 5.4375 6.0977 2.7852 2.8086 4.6445 5.3633 4.1289 5.6875l-1.0781 0.9375-0.23828 1.4531-0.61328 1.5469-1.0312 1.2617-0.51562 1.5469 0.46875 1.5 1.3555-0.27734 1.1758-1.6445 0.42188-1.5469 0.98438-1.5c0.46875-0.3125 2.0273-0.69531 3.4805-0.83984 1.4414-0.15625 3.2383 0.61328 3.9727 1.6914 0.74219 1.0781 1.4531 2.3164 1.5586 2.7617 0.10937 0.43359 0.14453 1.7383 0.097656 2.8555-0.058594 1.1406-0.28906 2.3516-0.51562 2.7344l-0.15625 1.1172 1.1406 0.10938 1.5469-1.0938 1.0781-0.37109-0.32422 1.043-1.3555 1.1289-1.1758 1.0195-0.52734 1.4141 0.42188 1.0195 1.7031 0.27734 2.0156-0.50391 1.8242-1.8359 1.5469-2.3867 0.46875-1.5977-0.60547-1.7461-0.66016-2.293 0.5625-2.375 1.0781-1.8828 0.79297-0.32422 0.37109 1.0312-0.23828 1.5469-0.32422 1.5977 0.23828 1.7773 0.79297 0.5625 0.98438-0.79297 0.9375-0.19141 0.42187 1.8242-0.98437 3-0.66016 1.8359 1.2227 0.70703-0.046876 0.70703-1.9688 0.98438-1.4531 1.3906-0.27734 1.4141-0.37109 0.88672-0.57422 0.74219 0.71875 0.78125 1.1289 0.625c0.21484 0.17969 0.43359 1.043 0.50391 1.9219 0.097656 0.875 0.78125 1.5977 1.5586 1.5977l2.207 0.32422-0.26562 0.9375-1.4141 1.4531-1.0781 0.83984-0.83984 0.37109-0.097656 1.0312c0 0.35938 0.74219 1.332 1.6445 2.1602 0.89844 0.82812 2.125 2.207 2.7227 3.0469 0.60156 0.85156 1.3906 1.4531 1.7773 1.3203l0.61328-1.2734c-0.046875-0.5625 1.3672-2.3984 3.1445-4.0781 1.7773-1.6797 3.4336-3.0469 3.6719-3.0469l0.51562 0.66016-0.27734 1.0312 0.37109 0.74219 0.92578 0.5625-0.085937 0.46875-1.0312 0.5625-0.74219 0.88672 0.23828 1.1406 0.5625 0.88672c0.17969 0.20312 1.1992 0.45703 2.2422 0.55078 1.0664 0.10938 2.2578 0.3125 2.6406 0.46875l1.1758 0.85156 0.37109 1.2227-1.1758-0.27734-2.0625-0.79297-1.7031 0.64844-1.2969 0.15625-1.3555-0.33594-0.79297 0.71875 0.17969 1.0312 1.4648 1.2227c0.67187 0.46875 1.4023 1.5352 1.6445 2.3867 0.23828 0.83984 0.74219 1.7031 1.1289 1.8594l1.7773 0.33594 1.1758 1.0781-0.27734 1.9688-0.37109 1.6914 0.9375 0.37109 1.5-0.42188 0.42188 1.1758 0.37109 1.5c0.27734 0.19141 2.3516-1.1992 4.5977-3.0352 2.2578-1.8594 4.1055-2.7461 4.1406-1.9805l-0.625 1.9219-0.875 1.1758c-0.13281 0.35938 0.64844 0.69531 1.7266 0.74219 1.0938 0.058594 2.1719 0.20312 2.3867 0.32422l-0.085938 0.70703-0.51562 1.1289-0.32422 1.3555-0.51562 0.15625-0.85156-0.99609-1.8711-0.46875-2.1602 1.2617-1.6914 1.5469-1.7383 0.88672-1.4531 1.4141-0.32422 2.0508 0.66016 1.8828 0.83984 0.23828 0.5625-0.74219 0.27734-1.1758 0.46875-1.1758 1.4531-0.43359 1.1406 0.70703c0.046874 0.39453 1.4141 0.60156 3.0352 0.46875 1.6328-0.13281 2.8438 0.10938 2.7227 0.52734l-1.2617 1.1289c-0.5625 0.20312-1.8008 0.42188-2.7617 0.46875-0.94922 0.046875-1.9219 0.28906-2.1484 0.55078l-1.8359 1.2734-0.5625 1.1289c0.46875 0.19141 1.668 0.30078 2.6758 0.27734 1.0078-0.023438 1.7148 0.085937 1.5469 0.23828-0.15625 0.15625-0.99609 0.49219-1.8711 0.74219-0.875 0.25391-1.5703 0.81641-1.5352 1.2617l0.55078 0.98438c0.28906 0.10938 1.9688 0.10938 3.7422 0 1.7773-0.10938 3.2539-0.058594 3.2539 0.097656l-1.1758 0.66016c-0.66016 0.21484-1.9219 0.37109-2.8203 0.37109s-1.7266 0.25391-1.8242 0.5625c-0.097656 0.3125 0.60156 0.71875 1.5586 0.88672 0.94922 0.19141 2.4844 0.30078 3.4219 0.27734 0.92578-0.023438 2.375-0.22656 3.2383-0.42188 0.86328-0.19141 1.7656-0.37109 2.0625-0.37109l1.0195 0.5625 0.71875 1.5 0.61328 1.3555h1.5l1.8594-1.3555 0.99609-1.6914 0.70703-1.2617 0.79297-0.23828 0.23828 1.4414-0.46875 1.8945-0.9375 1.1758-1.5977 0.78125-1.5977 0.9375c-0.27734 0.33594 0.32422 0.625 1.3555 0.625s1.8711-0.17969 1.8711-0.38281l0.74219-0.35938 1.0312 0.69531 1.2227 0.70703c0.51563 0 1.7031-0.37109 2.6406-0.83984 0.92578-0.46875 1.668-1.5859 1.6328-2.4844-0.023438-0.89844 0.10938-1.7891 0.28906-1.9688l0.51563-0.32422 0.42187 0.27734c0.12109 0.15625 0.23828 1.0547 0.23828 2.0156s-0.46875 2.2812-1.0312 2.9531l-0.5625 1.7031 1.3555 0.46875 1.5-0.51562 1.2227-0.52734 0.22656 0.5625-0.74219 1.7383c-0.20312 0.64844-0.38281 1.9805-0.42188 2.9531-0.011719 0.99609 0.52734 2.1367 1.2344 2.543l1.957 0.83984 1.7539-0.28906 1.2617-1.2227 1.2227-2.293 1.1758-0.69531-0.046876 1.8125-0.9375 2.1719c-0.38281 0.60156 0.22656 1.4141 1.3555 1.8125 1.1406 0.42188 1.1992 0.89844 0.14453 1.0938-1.0664 0.17969-1.8125 0.73047-1.6914 1.2227 0.12109 0.49219 0.97266 0.92578 1.8711 0.98438 0.89844 0.046875 2.1953-0.35938 2.8555-0.88672l2.0156-1.2344 0.46875 1.1406 0.097656 1.7773c0.23828 0.23828 1.1875 0.23828 2.1133 0 0.9375-0.23828 1.3906-0.058593 1.0312 0.37109l-1.3906 1.1758-0.80469 1.0781 0.5625 1.3086 1.5 0.9375 1.2617 1.0781 1.8828 2.207c0.81641 0.79297 1.8828 3.4805 2.3867 5.9648 0.49219 2.4727 0.74219 6.0117 0.5625 7.8594-0.19141 1.8711-0.55078 3.9609-0.80469 4.6562-0.25391 0.70703-1.0781 2.0391-1.8242 2.9531-0.74219 0.9375-1.7773 1.6914-2.293 1.6914l-1.3555-1.1172 0.14453-1.6562 1.3086-0.51562 1.5977-0.26562c0.46875-0.16797 0.88672-1.0938 0.9375-2.0742 0.058594-0.97266-0.13281-2.2188-0.42188-2.7617l-1.5 0.058594-1.5352 2.0508-1.043 1.5-0.88672-0.035156-0.085938-1.3672c0.16797-0.46875 1.0938-1.6914 2.0508-2.7227 0.96094-1.0195 1.7383-2.3633 1.7383-2.9531l-0.51562-1.9219c-0.27734-0.46875-3.9375-0.98438-8.1133-1.1758-4.1875-0.19141-8.0273-0.58984-8.543-0.89844l-1.6797-0.55078c-0.42188 0-0.74219 0.92578-0.74219 2.0508 0 1.1406 0.37109 2.4492 0.82813 2.9141 0.46875 0.45703 1.3789 2.4727 2.0156 4.4531 0.66016 1.9805 1.5469 4.1641 1.9805 4.8359l1.5 1.8125 1.1289 0.85156-0.74219 1.3555-0.9375 2.0156c0.13281 0.49219 0.21484 1.6211 0.19141 2.4961-0.035156 0.85156 0.17969 1.8828 0.46875 2.2305 0.27734 0.37109 1.8125 0.86328 3.4219 1.0938 1.6094 0.23828 3.1562 0.69531 3.4688 1.043 0.3125 0.32422-0.60156 0.46875-2.0156 0.30078-1.4141-0.14453-3-0.13281-3.5156 0.058594s-1.1992 7.3906-1.5 16.043c-0.3125 8.6406-1.6211 18.086-2.9023 21-1.2852 2.9297-1.9688 5.9883-1.5 6.8047 0.46875 0.82812 0.75781 2.4258 0.64844 3.5625-0.097656 1.1406-0.070313 2.3398 0.058594 2.6758l0.5625 0.98437 0.66016 0.57422 0.46875 0.45703 0.17969 0.48047 0.058594 0.32422 0.035156 0.26562 0.058594 0.32422 0.046875 0.38281 0.046875 0.45703 0.09375 0.84375 0.40625 1.4141c0.25391 0.625 0.22656 3.3242-0.035156 6.0352-0.25391 2.7227-0.74219 5.3281-1.0781 5.832l-0.80469 1.6797c-0.097657 0.44531-0.14453 1.5117-0.085938 2.3867 0.046875 0.875 1.2734 2.9297 2.7227 4.5586 1.4414 1.6094 2.6055 3.6484 2.5664 4.4883-0.011718 0.85156 0.21484 2.3633 0.52734 3.3242 0.30078 0.99609 0.63672 2.6523 0.70703 3.6719 0.070312 1.0312 1.668 3.3711 3.5156 5.207 1.8477 1.8359 3.6016 4.0547 3.8398 4.9336 0.25391 0.875 0.97266 2.1602 1.5977 2.8438l2.0156 0.9375 1.5117-1.2617c0.32422-0.50391 2.2578-0.94922 4.2617-0.98438 2.0039-0.023438 4.1641 0.39453 4.7773 0.94922 0.625 0.53906-0.71875 0.9375-2.9531 0.875-2.2578-0.046874-4.1641 0.22656-4.2617 0.61328l0.78125 1.8828 0.99609 2.1602-0.74219 0.74219-1.5117-1.043-1.3438-1.0195c-0.33594-0.13281-0.50391 0.55078-0.37109 1.5 0.13281 0.94922 0.55078 2.3633 0.92578 3.1328 0.39453 0.79297 2.0156 2.3398 3.625 3.4805 1.5977 1.1406 2.9531 2.4609 3 2.9531l-0.625 2.0156-0.50391 2.3047c0.10938 0.64844 0.94922 1.7773 1.8711 2.5312 0.92578 0.75781 2.0625 2.0508 2.5312 2.9023 0.45703 0.83984 1.9453 2.6289 3.2773 3.9375 1.332 1.2969 2.6523 2.8203 2.9141 3.3711l1.1172 1.7539 0.9375 1.5977c0.16797 0.45703 0.32422 1.8828 0.38281 3.1914 0.046875 1.2734 0.52734 2.5195 1.0781 2.7617 0.52734 0.21484 2.8555 0.58984 5.1484 0.78125 2.293 0.22656 4.6211 0.52734 5.1719 0.71875l2.3867 1.7266 2.4375 1.9219c0.5625 0.28906 1.9062 0.52734 3 0.52734s4.8594 2.1836 8.3867 4.8711c3.5391 2.6758 6.6836 5.4609 6.9961 6.2031l0.5625 2.7969c0 0.81641 1.2109 3.8398 2.6758 6.707 1.4766 2.8672 2.8203 5.9531 3 6.8516 0.19141 0.88672 0.96094 2.3047 1.7383 3.0977 0.76953 0.80469 1.7031 2.1602 2.0625 3 0.35938 0.86328 0.99609 2.0156 1.4141 2.5938l0.875 2.5195 1.2344 2.5938 1.1758 2.3398c0.046875 0.69531 0.42188 2.2188 0.83984 3.3711 0.40625 1.1523 2.2578 3.0703 4.0781 4.2617 1.8359 1.1875 5.4961 4.5977 8.1602 7.6094 2.6641 2.9766 4.9219 6.0234 5.0156 6.7422l-0.31641 1.8438-0.23828 1.7539 1.1289 1.5977 1.043 1.4414-0.33594 1.0781-1.3555-0.69531-2.2578-1.1406c-0.67187-0.22656-2.1367-0.42188-3.2266-0.42188-1.1289 0-2.0273 0.38281-2.0273 0.83984 0 0.48047 0.61328 1.5703 1.3555 2.4609 0.74219 0.85156 2.6523 2.3516 4.2227 3.3008 1.5703 0.96094 3.3242 2.4258 3.8984 3.2539l2.1602 1.6914h2.3398l1.9688-0.9375 0.74219 0.27734c0 0.5625 2.2578 3.0352 5.0156 5.4961 2.7461 2.4492 5.2695 4.8711 5.5781 5.375 0.3125 0.53906 0.58984 2.207 0.625 3.7305 0.011719 1.5117-0.19141 3.2266-0.48047 3.7812l-0.51563 1.9219c0 0.50391 2.0273 2.4844 4.5117 4.4141 2.4727 1.9219 5.207 3.793 6.0977 4.1289 0.875 0.32422 3.3828 2.3984 5.5781 4.5977 2.1953 2.1836 4.2344 4.8008 4.5469 5.8086s1.0781 2.2812 1.7031 2.8555h2.3398c0.66016-0.57422 1.6562-1.7266 2.1953-2.5938 0.53906-0.83984-0.085938-3.3242-1.4023-5.5312-1.3086-2.1836-3.2383-4.332-4.2617-4.7773-1.0312-0.43359-2.4727-0.68359-3.1914-0.55078l-2.207-0.71875c-0.49219-0.50391-0.9375-1.9688-0.98438-3.2383-0.058594-1.2617-2.6289-7.2734-5.7227-13.355-3.0977-6.0859-7.7656-13.691-10.367-16.883-2.6055-3.1914-5.0273-6.875-5.3867-8.1602-0.35938-1.2969-4.4531-6.6719-9.1094-11.965-4.6445-5.293-8.6758-10.078-8.9531-10.645-0.27734-0.57422-0.64844-2.4727-0.79297-4.2344-0.15625-1.7539-0.76953-4.1992-1.3555-5.4492-0.58984-1.2227-1.0078-3.7188-0.9375-5.5312 0.070312-1.7891-0.097656-3.7422-0.37109-4.2969l-0.27734-1.2617c0.12109-0.13281 1.8594 0.78125 3.8398 2.0508 1.9922 1.2617 4.1289 2.1836 4.7539 2.0156l2.1484-0.26562 2.3516 1.3086c0.71875 0.71875 2.3633 1.7539 3.6484 2.293 1.2969 0.53906 2.3633 2.3047 2.3984 3.8984 0.023438 1.5977 0.78125 3.8984 1.6914 5.1133 0.91016 1.2109 1.9062 3.3828 2.2578 4.8125 0.33594 1.4414 4.4414 7.5703 9.1445 13.609 4.7031 6.0352 8.9141 10.703 9.3828 10.367l2.0625 0.13281c0.67188 0.42188 1.0078 1.5234 0.74219 2.4375-0.25391 0.9375 0.37109 2.5312 1.4023 3.5156 1.0312 1.0078 2.7617 2.1016 3.8398 2.3984 1.0938 0.3125 2.2305 1.2852 2.5312 2.1719 0.3125 0.875 1.332 1.8359 2.2578 2.1602 0.91016 0.28906 2.0508 0.9375 2.5195 1.3906l1.4141 2.3398-0.42188 2.5781-1.1289 2.4375 1.0195 2.2578c0.66016 0.49219 2.0898 1.1523 3.2031 1.4648 1.1055 0.28906 2.4844 1.0938 3.0469 1.7656 0.57422 0.67188 2.0625 1.8125 3.3242 2.5312 1.2617 0.74219 2.5547 1.7773 2.8672 2.3398 0.28906 0.57422 0.67188 1.7891 0.83984 2.7227 0.14453 0.92578 2.2305 3.0703 4.6328 4.7383 2.3984 1.6914 5.7734 4.8711 7.5117 7.0938 1.7266 2.2305 4.0938 4.7773 5.2578 5.7227 1.1641 0.94922 3.0859 3.1562 4.2617 4.9336 1.1875 1.7656 2.6523 4.8711 3.2383 6.8867 0.60156 2.0039 1.5234 4.043 2.0742 4.5l1.4414 1.957c0.25391 0.63672 0.32422 1.8477 0.15625 2.7344-0.19141 0.875-0.74219 2.3047-1.2344 3.1914-0.48047 0.875-0.35938 1.8711 0.27734 2.207 0.66016 0.34766 0.23828 1.4297-0.9375 2.4375-1.1641 1.0078-1.4141 3.1914-0.55078 4.8359 0.83984 1.6445 2.8906 4.3555 4.5352 6 1.6562 1.6562 4.5 3.4453 6.3359 3.9844 1.8242 0.53906 5.1016 2.7617 7.2617 4.9219 2.1719 2.1719 7.2344 4.7656 11.258 5.7734 4.0195 1.0078 9.5273 3.5273 12.238 5.6172 2.7227 2.1016 6.3242 4.1992 8.0273 4.7031 1.7031 0.49219 4.5586 1.7539 6.3711 2.8086 1.8008 1.0664 5.4102 2.3047 8.0273 2.7617 2.6055 0.46875 5.3164 1.3789 6.0469 2.0156 0.71875 0.64844 2.9297 2.0156 4.9062 3.0469 1.9922 1.043 6.5898 2.6055 10.234 3.4805 3.6367 0.875 7.1875 1.5703 7.8828 1.5352 0.69531-0.011718 3.9844-1.1523 7.2969-2.5195 3.3359-1.3789 6.3945-2.8438 6.8047-3.2773l1.4648-1.2617 1.8125 0.42188c0.625 0.46875 2.4961 1.0664 4.1875 1.2617 1.6797 0.20313 3.4688 0.58984 3.9844 0.83984 0.50391 0.25391 2.6055 1.9219 4.6445 3.6953 2.0391 1.7773 4.7539 2.7461 6.0469 2.1719 1.2969-0.57422 2.8203-1.5586 3.4219-2.1719 0.60156-0.58984 5.1953-1.5117 10.234-2.0508 5.0273-0.55078 9.8398-1.2969 10.691-1.7031 0.85156-0.38281 1.5469-1.0781 1.5469-1.5352 0-0.45703-2.2578-2.9531-5.0156-5.543-2.7617-2.5781-4.3555-4.6914-3.5625-4.6914l2.0625-1.2617 0.37109-2.3398-0.23828-2.3047c0-0.66016 4.0664-1.2109 9.0586-1.2109 4.9688 0 9.3711-0.34766 9.793-0.74219 0.40625-0.42188 1.8008-0.74219 3.0977-0.74219s2.6055-0.78125 2.9023-1.7539c0.3125-0.94922 1.1641-1.8242 1.8711-1.957l1.3086-1.4648 0.23828-1.9219 1.3086-0.69531c0.60156 0 1.0781 0.69531 1.0781 1.5352 0 0.85156 0.27734 1.8242 0.61328 2.1602l0.61328 1.0938 0.625-0.15625c0.32422-0.32422 1.1406-2.1484 1.7656-4.0312 0.64844-1.8828 1.2461-5.1484 1.3203-7.2734 0.070312-2.1016 0.38281-4.4297 0.69531-5.1484 0.3125-0.73047 0.67188-2.0156 0.80469-2.8555 0.13281-0.85156 0.50391-1.9805 0.83984-2.4844l1.4531-1.7773 1.5-1.8828 1.4023-1.7773c0.40625-0.42188 0.64844-1.8242 0.51562-3.1445-0.13281-1.2969-0.55078-2.8203-0.9375-3.3711-0.38281-0.52734-1.4648-0.71875-2.3984-0.35938-0.92578 0.32422-2.4102 0.37109-3.3125 0.13281-0.91016-0.25391-3.3477-0.53906-5.4492-0.61328-2.0898-0.070313-4.9805 0.13281-6.4219 0.48047-1.4414 0.32422-3.3828 0.60156-4.3203 0.60156-0.92578 0-2.375 0.38281-3.2266 0.83984-0.85156 0.45703-2.3867 0.74219-3.4219 0.61328-1.0312-0.13281-3.168 0.94922-4.7539 2.3867-1.5703 1.4531-2.9648 5.1367-3.0977 8.2188-0.13281 3.0586-0.55078 5.7461-0.9375 5.9531l-0.83984 0.98438c-0.070313 0.32422-0.51563 1.2969-0.98438 2.1484-0.45703 0.86328-0.83984 1.9805-0.83984 2.4961l-1.0781 2.0156c-0.58984 0.60156-2.5781 1.8828-4.4023 2.8555-1.8359 0.98438-5.0898 1.7891-7.2344 1.7891-2.1367 0-4.3672 0.26562-4.9688 0.61328-0.58984 0.32422-5.0391 1.5703-9.8867 2.7617-4.8477 1.1875-9.3359 2.1602-9.9961 2.1602-0.64844 0-1.6211-1.0312-2.1484-2.2578-0.55078-1.2461-1.6328-2.2578-2.3984-2.2578l-2.2578-0.74219c-0.46875-0.42188-2.4375-0.74219-4.4023-0.74219-1.9688 0-3.9727-1.4023-4.4531-3.1562-0.49219-1.7266-1.5117-3.7422-2.2578-4.4883-0.74219-0.74219-1.6797-2.3867-2.0625-3.6602-0.37109-1.2617-2.5781-4.5703-4.8594-7.3086-2.3047-2.7617-4.5703-6.3711-5.0273-8.0273-0.46875-1.6445-1.6094-4.2852-2.5312-5.8555-0.92578-1.5703-1.7891-3.3828-1.9219-4.0312s-0.070312-6.9375 0.13281-13.98c0.21484-7.0312 0.49219-13.234 0.625-13.738l0.61328-1.6562c0.20312-0.38281 0.26562-1.9453 0.14453-3.457-0.13281-1.5234 0.33594-2.7734 1.0312-2.7734l1.6445-0.37109 0.66016-1.5117 0.83984-1.6328 0.5625-1.9219c0-0.78125-1.4297-1.6562-3.1914-1.9219 1.7539 0.26562 3.1914 0.070313 3.1914-0.48047 0-0.52734-0.58984-2.3047-1.3086-3.9375-0.71875-1.6328-1.3086-3.3242-1.3086-3.7812l-0.51562-1.5977-0.097656-1.5977 0.51562-1.4648-0.42187-0.61328-1.0781-0.19141-0.88672-1.2461 0.66016-0.67188 1.5977 0.45703c0.32422 0.035156 1.2227-0.97266 1.9688-2.2305 0.74219-1.2617 0.91016-2.4609 0.37109-2.6523l-0.5625-0.74219 1.3555-0.55078 1.8711-1.1289c0.51563-0.53906 2.125-1.6797 3.5625-2.4961 1.4414-0.81641 2.7344-1.5977 2.8555-1.7266l-0.42188-0.23828-0.9375-1.1406 0.23828-1.6328 1.4141-0.70703 1.2227 0.51563 0.32422 1.6328c0 0.51562 1.2461 0.28906 2.7617-0.51562 1.5234-0.79297 4.0312-2.5195 5.5781-3.8398 1.5469-1.3203 3.3125-2.6406 3.9375-2.9531l1.7773-1.3438 0.28906-1.1758-0.94922-0.53906-0.79297-0.73047-0.14453-1.4141 1.2227-0.98438 1.5 0.19141 0.51563 0.92578-0.097657 1.0938 0.046875 0.74219h0.51562l1.5977-1.0938 2.5938-0.875 1.8125-0.66016 1.0781-1.5586 0.48047-0.42188c0 0.28906 1.0547 0.49219 2.3398 0.48047 1.2852-0.023437 2.6406-0.35938 3-0.74219l0.79297-0.80469 0.17969 0.38281 0.20312 0.83984 0.19141 0.38281 1.3555 0.60156c0.73047 0.32422 3.1328 0.91016 5.3398 1.2969 2.2305 0.40625 4.2734 0.40625 4.5469 0l0.66016-1.2109 1.1289-0.51562c0.55078 0 1.6914 0.32422 2.543 0.74219 0.83984 0.40625 1.9219 1.0664 2.375 1.4531l1.5 0.17969 1.5977 0.67188 1.3203 2.0156 1.0312 1.3438 1.8242 0.99609 1.5 0.046874 0.57422-0.92578 0.50391-0.71875 0.88672-0.27734 0.61328-0.5625 0.9375 0.88672 1.7539 0.99609 0.78125-0.94922-0.42188-1.7773-0.42188-1.5c0-0.15625 0.78125 0.14453 1.7539 0.66016 0.94922 0.51562 1.957 1.1641 2.2578 1.4023l1.0195 0.74219 1.5117 1.2617 1.1289 2.1133 0.88672 0.38281 1.3555-1.043 0.66016-0.9375-0.19141-1.1758c-0.13281-0.28906-1.4414-1.1758-2.9141-1.9805-1.4648-0.78125-2.6641-1.7266-2.6641-2.0508l1.0312-1.6562 1.0312-1.3438-0.83984-0.66016-2.0156-0.37109-0.27734-0.71875 1.2461-1.2109 0.625-0.5625c0.13281 0 1.2734-0.51562 2.5781-1.1289 1.2852-0.625 3.9844-1.1172 5.9883-1.0781 2.0156 0.023437 4.1758 0.23828 4.7891 0.45703l1.1289-0.097656 0.46875-0.92578 0.66016-1.0938 0.19141-1.3438 0.46875-0.67187 0.42188 0.74219 0.61328 1.2227 1.0938 1.2227 0.50391 1.3555 0.23828 0.83984 0.14453 0.23828 0.19141 0.15625h0.61328l1.7891-1.2617 2.375-1.2617 1.7539-0.89844 1.5469 0.19141c0.46875 0.55078 2.3047 0.9375 4.1289 0.83984 1.8008-0.070312 3.4336 0.070313 3.6133 0.32422l1.3086 1.0781 2.2578 0.89844 1.5 0.26562 1.3086 1.0938 1.2617 1.5977 0.27734 1.4414c0.058594 0.53906 0.98438 1.1055 2.0625 1.2617 1.0938 0.19141 2.293 0.25391 2.6758 0.15625 0.38281-0.12109 2.1484-1.1406 3.8984-2.293 1.7539-1.1758 3.4922-2.1953 3.8398-2.3047l0.83984-0.17969c0.097656 0 0.92578 0.33594 1.8242 0.74219 0.91016 0.42187 1.8125 1.043 2.0156 1.4023l1.6445 1.8594 1.6914 2.1719c0.23828 0.51562 1.7148 1.9219 3.2891 3.1328 1.5703 1.2344 3.1797 2.6406 3.5625 3.1562 0.37109 0.51562 0.71875 2.1836 0.74219 3.707s-0.32422 4.1055-0.79297 5.7344c-0.46875 1.6211-0.83984 3.0977-0.83984 3.2773l0.51562 0.875 1.2227-0.19141 0.70703-0.45703 0.46875 0.97266 0.14453 1.7891-0.058593 2.4844 0.89844 2.5781 1.1289 1.3555 0.74219 0.66016 0.67188 0.48047 0.9375 0.26562 0.27734 1.6562 0.88672 1.2109 1.5469-0.32422 0.42188 0.20313-0.32422 0.83984-0.42188 1.7266 0.37109 1.8242 0.9375 1.5586 0.79297 1.3555 1.5977 1.0781 1.6914 1.1172 0.51562 0.99609 0.42188 1.2227 0.94922 1.2617 0.61328 1.9688 1.1289 1.8242c0.61328 0.25391 1.9219 0.10938 2.8906-0.32422 0.99609-0.44531 2.1719-1.1055 2.6406-1.4531l1.3086-1.3086c0.25391-0.37109 0.91016-1.8477 1.4531-3.3359 0.53906-1.4648 1.0664-4.5 1.1758-6.7422 0.097656-2.2578 0.046875-4.5586-0.14453-5.1719l-0.27734-2.375c0.023437-0.74219-0.50391-2.1133-1.1758-3.0586-0.67188-0.96094-1.8477-4.0312-2.6289-6.8516-0.76953-2.7969-1.3789-5.8906-1.3555-6.8867 0.023438-0.97266-0.79297-3.0586-1.8242-4.6328-1.0312-1.5859-2.6992-5.0742-3.707-7.7891-1.0078-2.7109-1.8477-5.3633-1.8828-5.9141-0.023438-0.52734-0.35938-1.957-0.74219-3.1328-0.37109-1.1992-0.68359-3.4062-0.64844-4.9219 0.011719-1.5234 0.21484-3.1211 0.42188-3.5273l0.83984-1.0781c0.25391-0.17969 0.55078-1.0781 0.64844-2.0156 0.10938-0.9375 0.35938-1.7266 0.5625-1.7656l0.48047-1.2344 0.875-1.5 1.3086-0.9375 0.66016-1.0312 0.79297-1.2734 0.625-1.3906 0.14453-1.1406 0.42188-0.23828 0.51562 0.46875 0.83984 0.19141 0.88672-0.875 0.51563-1.1406 1.0312-0.26562 1.4023-0.25391c0.30078-0.10938 1.332-0.85156 2.293-1.6797 0.94922-0.82813 1.9219-1.5977 2.1602-1.6914l1.2227-0.83984 1.5-0.80469 1.2227-0.69531 0.83984-1.8008c0.19141-0.66016 1.8828-2.7109 3.8047-4.5352 1.8945-1.8359 3.7422-3.3359 4.0664-3.3359l1.6562-0.35937 1.8242-0.32422 1.6445-0.19141c0.45703-0.13281 1.3438-1.1055 1.9688-2.1602 0.625-1.0664 1.8828-2.5078 2.8086-3.2539 0.92578-0.71875 1.8828-1.668 2.1133-2.1133 0.23828-0.43359 2.3633-0.98438 4.7383-1.2109 2.375-0.23828 4.5469-0.55078 4.8359-0.71875l0.69531-0.51562 0.37109-0.92578-0.22656-1.0547c-0.23828-0.16797-1.2461-0.23828-2.2578-0.13281-1.0078 0.097656-1.3438-0.32422-0.74219-0.92578l1.1289-2.3398-0.42188-1.6562 0.097656-0.98438 1.2227-0.42188 1.0312 0.92578 0.70703 1.1406 0.78125 0.42188 0.85156-0.097656 1.2617-0.92578 1.3555-1.6562 1.0312-1.4531 0.74219-1.5469v-1.1875l-1.4023-0.26562-1.6445 0.66016-0.63672 0.64062-0.37109-0.89844-0.48047-1.0195c-0.14453-0.16797-1.3672-0.42188-2.7109-0.61328-1.3438-0.17969-2.5664-0.73047-2.7344-1.2344l0.19141-0.17969 1.2227 0.83984h1.3203l1.5977-0.80469 1.3086-0.9375h0.65625l1.1289 0.25391 1.5 0.69531 0.5625-0.22656-0.74219-2.3047-0.42188-2.1133-0.37109-1.5-0.37109-1.6914-0.61328-1.4023-1.7773-0.19141-1.7891 0.61328c-0.40625 0.20312-1.6562-0.38281-2.7617-1.3203-1.1055-0.91016-2.3281-1.8008-2.7227-1.957l-1.4414-0.98437c-0.42188-0.38281-0.023438-0.48047 0.88672-0.19141 0.88672 0.27734 2.2578 1.0312 3.0469 1.6328l2.2812 1.1406 0.83984-0.46875-0.35938-0.97266-0.80469-0.89844-0.83984-0.98438 0.52734-0.15625 1.1289 0.48047 0.42188-0.37109 0.19141-1.3086-1.2227-2.3398-2.7344-2.4961-2.0156-1.8594-1.0781-1.1758-0.83984-1.5586-0.70703-1.3555-0.98438-0.9375-0.19141-1.5977 0.74219-1.2227c0.21484-0.21484 0.625-1.2617 0.88672-2.3398 0.28906-1.0938 0.58984-1.7773 0.66016-1.5469 0.085937 0.22656 0.035156 1.1289-0.097657 1.9688-0.13281 0.85156-0.35938 1.8242-0.50391 2.1602l-0.25391 1.1758c0.035156 0.3125 1.2461 1.2461 2.7227 2.0742 1.4766 0.81641 2.9297 1.2969 3.2383 1.0781 0.3125-0.23828 0.37109-2.4727 0.15625-4.9805-0.23828-2.4961-0.046875-5.2578 0.42188-6.1445 0.45703-0.875 1.5703-2.2812 2.4844-3.1562 0.89844-0.83984 1.7656-1.8125 1.9219-2.1484l0.83984-0.46875 0.55078 0.5625-0.60156 1.6914-1.1758 1.957c-0.3125 0.40625-0.71875 1.4297-0.88672 2.3047-0.19141 0.875-0.27734 1.8242-0.23828 2.1133l0.61328 1.1758 0.69531 1.5586-0.55078 1.1172-0.74219 0.70703 0.46875 1.4648 0.88672 1.2109 0.9375 0.71875 0.88672 1.2969 0.23828 1.5977 0.98438 0.94922 1.1289 0.45703c0 0.16797-0.71875 1.7539-1.5977 3.5742-0.875 1.7891-1.5977 3.6836-1.5977 4.1758l0.22656 0.88672 0.38281-0.13281c0.070312-0.097656 0.66016-1.1406 1.3086-2.3516 0.64844-1.2227 1.9453-3.0586 2.9023-4.0781 0.96094-1.0312 1.7656-2.0742 1.8242-2.3047 0.058594-0.22656 0.53906-1.1758 1.0781-2.1133 0.53906-0.91016 1.1172-2.125 1.2617-2.6758 0.15625-0.53906 0.26562-1.668 0.23828-2.5312-0.023437-0.83984-1.0938-3.457-2.3867-5.7969-1.2852-2.3516-2.4258-5.2578-2.5312-6.4336-0.10937-1.1992 1.0781-2.9531 2.6289-3.8984 1.5469-0.94922 2.6875-1.5234 2.543-1.2617-0.16797 0.25391-1.0664 1.043-2.0273 1.7383-0.94922 0.70703-1.9062 1.5469-2.1133 1.8711-0.21484 0.34766-0.035156 1.3555 0.37109 2.2578 0.40625 0.91016 1.0664 1.9062 1.4531 2.2188l1.8242 0.875 1.2617 0.80469 0.48047 0.99609 0.55078 0.74219 0.46875 0.035156 0.625-0.78125 0.64844-1.4141 0.89844-1.1758 1.3438-1.3086 1.2617-1.3555 0.66016-0.83984 0.57422-0.89844 0.5625-1.1172c0.085937-0.35938 0.76953-1.9219 1.5469-3.4805 0.75781-1.5352 1.4297-3.0859 1.4414-3.4219l-0.097657-0.74219-0.78125-0.42188-1.2344-0.27734-1.0781-0.46875-0.51562-0.83984c0-0.21484 0.67187-1.1406 1.4648-2.0508 0.79297-0.9375 1.3203-1.4141 1.1758-1.0938v1.5469c0.15625 0.52734 1.2109 0.94922 2.3398 0.94922s2.7227-0.27734 3.5156-0.625c0.79297-0.32422 2.3633-0.68359 3.4688-0.74219 1.1172-0.085937 4.1523-0.89844 6.7422-1.8359 2.6172-0.91016 4.5352-1.6797 4.2734-1.6797l-0.23828-0.25391 0.66016-0.45703c0.22656-0.13281-3.8398 0.22656-9.0586 0.78125-5.207 0.57422-9.5508 0.96094-9.6602 0.86328-0.10938-0.12109 2.6875-1.2344 6.1914-2.4961 3.5039-1.2617 8.3164-2.3398 10.703-2.3984 2.3633-0.046875 4.5859-0.20312 4.9219-0.32422l0.79297-0.32422 1.2617-1.0664 1.0312-2.0625 0.046875-1.2344 0.5625-0.035156 0.88672 1.1172 1.3086 1.043c0.49219 0 1.6328-0.50391 2.5312-1.1406 0.89844-0.625 1.8945-1.1172 2.207-1.1172l0.23828 0.27734 0.23828 0.78125 1.1758-0.097656c0.33594-0.32422 1.5234-0.69531 2.6289-0.78125 1.1172-0.12109 2.1836-0.40625 2.3398-0.67188l0.33594-1.0195-0.83984-1.4648-0.625-0.32422 0.57422 0.94922 0.17969 0.875-0.55078 0.74219-1.3086 0.28906-1.4531-0.23828-1.2227-0.89844-1.2344-1.6914-0.61328-1.6445-0.70703-1.2109-1.1758-0.67187-0.98437-0.17969-0.46875-0.38281 0.74219-0.70703 1.3086-1.1758 0.51562-1.6445-0.42188-2.3398-0.23828-1.7266 0.14453-0.53906 0.046875-0.17969 0.097656-0.25391c0.035156-0.097656 1.0664-1.5 2.293-3.1328 1.2461-1.6328 2.3398-3.3125 2.4375-3.7578l1.3672-1.8242 1.9062-0.875 1.2344-0.23828 0.60156-0.80469-0.17969-0.78125-0.32422-0.80469 0.50391-0.42188 0.67188 0.51562 1.2227 0.5625 1.8711-0.23828 1.6914-0.27734 1.1289-0.46875 0.23828-0.83984 0.83984-1.2109 0.98438-1.0938 0.097657-0.28906-0.035157-0.53906 0.26562-1.3203 0.9375-1.2344 0.51562 0.15625 0.20312 1.0195 0.74219 0.80469 1.3086 0.23828 1.1758-0.66016 0.66016-0.23828 0.92188 0.31641 1.1758-0.35938 1.4414-0.44531 2.0742-0.42188 1.5-0.63672 1.4023-1.1875c0.64844-0.49219 2.1016-1.0078 3.2383-1.1289 1.1406-0.13281 2.2188-0.99609 2.3867-1.9336 0.17969-0.91016 0.48047-1.8594 0.66016-2.1016l0.98438-0.42188c0.35938 0 1.3906-0.28906 2.3047-0.67187 0.88672-0.35938 2.3633-0.67188 3.2656-0.69531 0.89844-0.035156 1.668-0.5625 1.6914-1.1758l0.57422-1.6562 0.66016 0.74219 1.5352 1.0938 1.9805-0.48047 1.3555-0.42187 1.7383-1.1172c0.51562-0.55078 1.6562-1.3789 2.5312-1.8359 0.875-0.45703 1.7773-0.83984 2.0156-0.83984l1.5469-0.69531 1.4531-1.043 0.42188-0.78125-0.32422-1.5586 0.27734-0.25391 1.9805 1.1406 1.2461 0.61328c0 0.19141-1.0078 1.0195-2.2578 1.8828-1.2344 0.83984-2.375 1.9219-2.5312 2.375l0.046875 1.1758c0.17969 0.19141 2.293 0.15625 4.6914-0.097657 2.3984-0.23828 5.3984-0.26562 6.6719-0.085937 1.2617 0.17969 2.1719 0.45703 2.0156 0.60156-0.16797 0.16797-1.1523 0.49219-2.2188 0.74219-1.0547 0.25391-2.4727 1.2109-3.1445 2.1133-0.67188 0.91016-1.6211 1.2969-2.1133 0.89844l-1.4023-1.5469-0.98438-0.5625-1.6914 0.45703-2.293 0.71875-1.3555 0.74219-1.0312 0.66016c-0.42188 0.21484-2.9766 2.2578-5.6758 4.5469-2.7227 2.2812-5.0156 4.4883-5.1133 4.8711l-0.20312 1.3555-0.23828 1.7031 0.19141 1.957c0.23828 0.51562 1.5469 1.6562 2.9023 2.5312 1.3672 0.875 2.8906 1.6328 3.3711 1.6562l1.2734-0.51562 0.88672-0.99609 1.4883-0.5625c0.55078-0.070313 1.8125-0.81641 2.8203-1.6914 1.0078-0.83984 2.0391-1.9922 2.293-2.5312l0.83984-1.4648 1.0781-0.875 1.4648-1.3086 1.1758-1.6914 1.0664-0.78125 1.2227-0.67188 0.89844 0.13281 0.78125 1.0938 1.5 0.14453 1.3203-1.0781 0.88672-0.74219 1.9219-0.15625 2.207-0.30078 1.5352-0.38281 1.5586-0.66016c0.49219-0.15625 1.6797-0.71875 2.6289-1.2617 0.94922-0.53906 2.5195-1.1758 3.4688-1.4141 0.94922-0.23828 2.3867-0.94922 3.1914-1.5977 0.79297-0.63672 2.293-1.1875 3.3359-1.2109 1.0195-0.035157 2.207-0.23828 2.6289-0.46875l1.0664-0.79297-0.27734-0.625-1.2617-0.097656-0.13281-0.35938 0.27734-1.6562 0.42187-0.69531 1.5977 0.45703 1.6914-0.45703c0.40625-0.28906 1.6562-0.51562 2.7617-0.51562 1.1055 0 2.5078-0.32422 3.0977-0.71875l1.3555-0.69531 1.3086-1.2344 2.4375-2.1602 1.4531-1.5977-0.74219-0.64844-1.7773-0.52734c-0.52734-0.27734-1.9062-0.57422-3.0469-0.67188-1.1406-0.070313-2.0391-0.94922-2.0156-1.957 0.023438-1.0078 0.40625-2.1836 0.83984-2.6289 0.44531-0.43359 0.86328-1.5352 0.9375-2.4492 0.070312-0.89844 0.023438-1.7539-0.14453-1.9219l-0.27734-0.875-0.23828-0.25391-0.74219 0.61328-1.1289 0.23828c-0.33594 0-1.3672 0.70703-2.293 1.5586-0.92578 0.83984-2.6172 3.3359-3.7422 5.5312-1.1406 2.1836-2.3516 4.1992-2.7344 4.4531l-0.69531 1.2617c-0.035156 0.44531 0.19141 1.5234 0.45703 2.3984 0.28906 0.85156-0.35938 1.5352-1.4414 1.4883-1.0938-0.046875-2.0508-0.44531-2.1719-0.88672l-0.74219-1.3438-1.4414 0.097656-2.2188 1.1172-2.8086 0.66016-1.9219-0.14453-0.51562-0.97266c-0.046875-0.35938-1.043-0.61328-2.207-0.52734-1.1641 0.085938-2.3164-0.058594-2.5781-0.33594-0.25391-0.25391-2.207-0.74219-4.3203-1.1172-2.1016-0.35938-3.6953-1.1758-3.5156-1.8242l0.097656-1.4141c-0.13281-0.13281-1.3438-0.33594-2.7109-0.50391-1.3789-0.15625-2.6055-0.67188-2.7344-1.1289-0.13281-0.45703-0.94922-1.5352-1.8242-2.3984-0.875-0.83984-1.5703-2.7461-1.5469-4.2109 0.023437-1.4648-0.32422-2.8789-0.79297-3.0977l-2.207-0.25391c-0.75781 0.12109-0.58984-0.63672 0.37109-1.6445 0.96094-0.99609 2.1367-3.1445 2.6289-4.7383 0.49219-1.5977 0.38281-3.2539-0.23828-3.707-0.625-0.43359-2.7852-0.070312-4.8242 0.83984-2.0508 0.89844-3.9102 1.6445-4.1758 1.6445l-0.48047-0.79297-0.32422-1.6445c-0.17969-0.45703-1.2461-0.99609-2.3867-1.1758-1.1406-0.19141-2.7734-0.23828-3.6602-0.10938-0.88672 0.13281-1.9922-0.011719-2.4844-0.3125-0.49219-0.3125 1.1641-1.0078 3.6602-1.5469 2.5078-0.53906 5.2305-0.67188 6.0469-0.27734 0.82812 0.38281 2.4727 0.68359 3.6719 0.66016 1.1875-0.023437 3.4453-0.9375 5.0156-2.0273 1.5703-1.0781 3.4922-2.1367 4.2734-2.3398l1.957-1.6914c0.3125-0.71875 0.10938-2.1016-0.45703-3.0977-0.57422-0.97266-0.64844-1.9219-0.15625-2.1133 0.50391-0.17969-0.83984-1.3789-2.9414-2.6758-2.1367-1.2852-6.1797-2.3047-9.0234-2.2578-2.832 0.046874-11.375 2.543-18.996 5.5312-7.6094 2.9883-17.039 8.1953-20.953 11.543-3.9258 3.3477-7.8828 7.1875-8.8086 8.543-0.9375 1.332-2.6289 3.1094-3.7578 3.9375-1.1406 0.81641-3.2031 1.7031-4.5977 1.957-1.3906 0.25391-2.2578 0.20312-1.9219-0.13281l0.98438-0.625c0.20312 0 3.1914-3.0586 6.625-6.793 3.4219-3.7422 6.2383-7.0938 6.2383-7.4531l-0.43359-1.0781c-0.22656-0.23828-1.7539-1.0195-3.3594-1.7383-1.6445-0.73047-2.3867-1.3086-1.6914-1.3086 0.69531 0 2.5195 0.43359 4.0781 0.98438 1.5469 0.52734 3 0.70703 3.2266 0.35938 0.25391-0.32422 1.4414-1.3789 2.6875-2.3398 1.2461-0.94922 2.2578-2.1367 2.2578-2.6172l0.98438-1.3672c0.53906-0.25391 2.5078-1.9805 4.3672-3.8281 1.8359-1.8594 5.2812-3.6484 7.6328-3.9375 2.3516-0.3125 4.5352-0.53906 4.8359-0.48047l1.2617-0.61328 0.69531-1.1289c0-0.23828 0.70703-1.9219 1.5586-3.7422 0.83984-1.8359 2.0742-3.6367 2.7227-3.9844l1.7383-1.2227 1.5-1.043c0.51562-0.25391 8.5195-0.55078 17.773-0.66016 9.2539-0.10938 17.242-0.3125 17.734-0.46875 0.49219-0.15625 2.7617-0.15625 5.0625 0 2.3047 0.15625 5.1133 0.57422 6.2539 0.94922 1.1406 0.34766 6.2148 0.26562 11.293-0.20312 5.0742-0.46875 9.5508-0.98438 9.9375-1.1758l1.8828-1.6914c0.63672-0.74219 1.8945-1.8008 2.8086-2.3398 0.89844-0.53906 1.8594-1.0078 2.1484-1.0312zm-173.91 85.094c-1.5 1.2617-2.7461 2.5664-2.7617 2.8906l0.097656 1.3086c0.085937 0.38281 0.12109 1.5234 0.097656 2.5312s-0.35938 1.8594-0.74219 1.9219l-1.0312 0.32422-0.67187 0.27734-1.2227 0.94922c-0.48047 0.48047-1.7656 1.2461-2.8438 1.6914-1.0938 0.43359-5.9414 0.5625-10.789 0.26563-4.8477-0.26563-9.2031-0.38281-9.6602-0.23828l-1.2734 0.74219 0.27734 1.2344 0.88672 1.2109v1.7031l-1.1289 2.3398c-0.51562 0.61328-3 2.5195-5.5312 4.2227s-4.6328 3.0977-4.6914 3.0977l-0.23828 0.097656-0.46875 0.19141-0.37109 0.14453-0.37109 0.25391c-0.17969 0.085937-1.2734 0.43359-2.4375 0.74219-1.1641 0.30078-2.3867 0.71875-2.7344 0.875l-1.1758 0.32422c-0.30078 0-1.3789 0.33594-2.3867 0.74219-0.99609 0.42188-2.4102 1.2617-3.1445 1.8828-0.71875 0.61328-2.1602 1.4883-3.1914 1.9219-1.0195 0.44531-2.7617 0.9375-3.8398 1.1172-1.0781 0.19141-3.2383 0.21484-4.7773 0.058594-1.5469-0.16797-3.9727-0.71875-5.3867-1.2344-1.4297-0.50391-2.9766-1.2969-3.4805-1.7383l-0.69531-1.5352 0.42188-1.1289c0.13281-0.22656 0.42188-1.3555 0.64844-2.543 0.23828-1.1758 0.625-2.3984 0.85156-2.7109 0.23828-0.3125 1.3203-1.0547 2.4375-1.6562 1.1172-0.58984 2.4102-1.5469 2.9023-2.1133 0.48047-0.5625 0.86328-3.4219 0.83984-6.3359-0.035157-2.9023-0.35938-6.1797-0.74219-7.2461-0.38281-1.1055-0.71875-2.2188-0.71875-2.4961 0-0.28906-0.81641-0.625-1.8125-0.74219-1.0078-0.13281-2.4492 0.085938-3.2031 0.45703-0.74219 0.40625-2.0039 1.4531-2.7969 2.3516-0.80469 0.91016-2.1367 1.5117-2.9648 1.3672l-1.5469-1.3672c-0.023437-0.58984 1.0078-2.3633 2.293-3.9492 1.2969-1.5469 2.7852-3.9844 3.3242-5.375 0.55078-1.3906 0.97266-2.8203 0.9375-3.1914l-0.3125-1.5586-0.37109-2.375-1.5977-2.7617-2.6406-1.6914-1.9688-1.3555c-0.45703-0.52734-2.0898-1.3555-3.6133-1.8242-1.5234-0.49219-3.2383-0.89844-3.793-0.89844l-2.4844 0.51562-1.4023 1.0781 0.70703 1.4141-0.42188 1.0781-2.0625 0.69531-1.3203 1.8828-1.0195 1.957-1.4141 0.51562-1.2227-0.22656-0.70703 0.046876c-0.097657 0.13281-1.2734 0.94922-2.6289 1.8242-1.332 0.875-2.4844 2.6992-2.5312 4.0312-0.046874 1.332-0.53906 3.2539-1.0781 4.2617-0.53906 1.0078-1.0078 3.7188-1.0312 6.0469-0.023438 2.3281 0.17969 4.4648 0.46875 4.7773l1.1289 1.6562c0.33594 0.58984 0.50391 2.9023 0.38281 5.1719-0.13281 2.2305-0.67188 5.375-1.1875 6.9727s-1.5977 3.4062-2.3867 4.0312l-1.6445 1.1758-1.4023 1.2344-1.3633 1.2188c-0.085937 0.035157-0.96094-0.011719-1.9688-0.097656-1.0078-0.070313-2.0391-0.23828-2.3047-0.35938l-1.2227-0.94922c-0.40625-0.38281-1.1523-2.0039-1.6328-3.6133-0.50391-1.5977-1.0664-5.9141-1.2734-9.6016-0.20313-3.707 0.070312-8.3516 0.61328-10.367 0.53906-2.0156 1.3672-4.3789 1.8359-5.2578 0.45703-0.875 0.875-2.2422 0.92578-3l0.70703-2.293 0.57422-2.1602-0.57422-1.9219-1.0195-0.61328c-0.28906 0.023438-1.3438 0.74219-2.3398 1.6328-1.0078 0.875-1.8242 1.0312-1.8242 0.32422l0.97266-2.0508c0.53906-0.43359 1.9219-2.2305 3.0469-3.9961 1.1406-1.7539 2.1367-3.3477 2.207-3.5508l1.0781-1.0781 0.94922-1.3203 0.55078-1.6445c0.3125-0.57422 1.4531-1.0938 2.543-1.1758 1.0781-0.085937 2.2422 0.070313 2.5781 0.32422l1.5 0.46875 1.9219-1.2227c0.5625-0.67188 1.8242-1.2109 2.8203-1.2109 0.97266 0 2.8672-0.38281 4.2109-0.83984 1.3438-0.48047 3.0117-0.74219 3.7188-0.57422l1.6445 0.83984 1.6914 0.80469 2.1016-0.15625c0.44531-0.20312 2.3984-0.28906 4.3555-0.17969 1.9805 0.097656 3.6602 0.097656 3.7578 0 0.10938-0.12109-0.52734-0.71875-1.4023-1.3789-0.875-0.63672-1.5977-1.4766-1.5977-1.8594l-0.46875-1.5c-0.25391-0.44531-1.9453-0.97266-3.7422-1.1758-1.8008-0.20312-3.3711-0.45703-3.4688-0.57422l-0.23828-1.3438-0.23828-1.8359-0.83984-0.5625c-0.35938 0.046875-1.4648 0.42188-2.4375 0.80469-0.98438 0.37109-3.1797 0.60156-4.8828 0.46875-1.7031-0.13281-4.043 0.3125-5.207 0.97266-1.1641 0.68359-2.3984 1.3203-2.7617 1.4023-0.35938 0.12109-2.3633 0.13281-4.4531 0.058594-2.1016-0.070312-4.3203-0.5625-4.9805-1.0781l-1.6914-1.5977-0.61328-1.2344c-0.046875-0.30078-1.7891-0.73047-3.875-0.9375-2.1016-0.20312-3.707-0.82812-3.5742-1.4023l0.61328-1.3555 1.7383-1.0781 1.9219-1.2617 0.94922-1.6445-0.046874-1.2227c-0.25391-0.046875-1.2461 0.13281-2.2578 0.42188-1.0078 0.27734-2.8086 1.2461-4.0312 2.1719-1.2227 0.88672-2.4609 1.9805-2.7617 2.375-0.30078 0.42188-1.8008 1.3555-3.3242 2.0742-1.5234 0.71875-3.6016 1.3438-4.6094 1.4023-0.99609 0.058594-3.0703 0.66016-4.5977 1.3555-1.5234 0.69531-3.6484 1.3438-4.7383 1.4414-1.0781 0.12109-2.3398-0.035157-2.8086-0.32422l-1.2227-1.5352-0.74219-1.3555c-0.21484-0.19141-2.2695 0.27734-4.5977 1.0312-2.3281 0.75781-4.2617 1.3438-4.3203 1.3438l-1.1758-0.35938-0.92578-0.89844c0.070313-0.26562 2.8789-2.7969 6.2383-5.5781 3.3477-2.7852 7.9453-5.9414 10.223-7.043 2.2695-1.0781 4.8594-1.8945 5.7734-1.8125 0.88672 0.070312 2.0742-0.30078 2.6289-0.83984l1.957-1.5586 0.99609-1.3906 1.1758-2.2578 1.6914-1.5117 1.1289 0.67188 1.7266-0.42188 1.6094-1.4141 0.5625-1.6914 1.1289-1.4531 1.5977 0.625 1.1758 0.61328 0.79297-0.38281-0.26562-0.64844-1.043-0.85156v-1.2617l1.5977-0.69531 1.7891 0.60156 0.74219 1.0781 0.57422 0.046875 0.74219-0.42188 1.1289 0.46875 1.6914 0.67188c0.40625 0.097656 2.2578 0.20312 4.1172 0.22656 1.8594 0.023438 3.707 0.17969 4.0938 0.32422l2.1719 1.7031c0.79297 0.75781 2.125 2.5664 2.9414 3.9844 0.82812 1.4141 1.8711 2.9531 2.3398 3.4062l1.3555 1.1758c0.28906 0.19141 1.3789 0.44531 2.4492 0.57422 1.0547 0.13281 2.1484 0.10938 2.4375-0.046875l1.3555-0.27734 1.4023 0.27734 0.51562 1.7656 0.097656 2.1719c0.070313 0.35938 0.875 1.4414 1.7773 2.3984 0.89844 0.94922 1.5703 2.1953 1.5 2.7617l-0.83984 1.7656-0.17188 1.3672 1.7773 0.80469 0.88672 0.74219-0.32422 1.3086 0.37109 1.3906 1.2227 0.74219 1.8359 0.71875 1.2109 1.3555 0.74219 1.1172c0.30078 0.22656 7.8594 1.6328 16.789 3.1562 8.9297 1.5234 16.367 2.9531 16.559 3.1914l0.98438 0.89844 1.2227 1.6328 2.0508 2.5781 2.0742 2.2578 0.74219 1.9219 0.9375 2.0625 0.23828 1.2969-0.61328 1.8359-1.043 2.0625-1.6797 0.55078c-0.42188 0-1.9688-0.49219-3.4688-1.1172s-2.9297-1.4297-3.2031-1.7773c-0.25391-0.35938-1.1641-1.2109-2.0156-1.8828-0.83984-0.66016-1.8359-1.5703-2.207-2.0156l-1.3555-1.3086-1.2617-0.35937-0.70703 0.82812 0.79297 1.3203c0.51562 0.32422 1.3555 1.2969 1.8828 2.1602 0.50391 0.83984 0.88672 2.0625 0.82813 2.6641l-0.37109 1.4141-0.98438 1.6445-1.4023 2.1133-0.97266 1.3555c-0.16797 0.33594-0.45703 2.8906-0.67188 5.6758-0.21484 2.7852-0.58984 5.3984-0.82812 5.8203l-1.4648 1.4883-1.9219 1.1758-1.4531 0.86328-0.99609 1.1172c-0.25391 0.38281-0.48047 1.6328-0.50391 2.7617-0.023437 1.1289-0.25391 2.4375-0.46875 2.9141-0.23828 0.45703-1.2227 0.81641-2.2188 0.78125-0.96094-0.023438-2.0273 0.17969-2.3398 0.46875l-0.74219 1.3203 0.15625 1.2617c0.17969 0.25391 1.0938 0.69531 2.0156 0.97266 0.92578 0.28906 1.957 0.52734 2.293 0.52734 0.33594 0 3.0586-1.7383 6.0586-3.8398 2.9766-2.1367 5.6641-3.9258 5.9531-3.9961l0.83984-0.32422c0.17969-0.12109 2.4258-0.035157 5.0156 0.14453 2.5781 0.19141 4.8359 0.19141 5.0156 0l0.45703-0.92578c0.085938-0.34766 2.7109-0.89844 5.8203-1.2344 3.1094-0.33594 6.0859-0.80469 6.5625-1.0312l0.38281-1.043-0.52734-0.9375-0.42187-1.1172c-0.22656-0.43359-1.3672-0.78125-2.5312-0.74219-1.1641 0.023438-2.2578-0.25391-2.4375-0.625l-0.42188-1.1172 0.058594-1.0312 0.78125-1.0781 1.2344-1.2344c0.28906-0.38281 1.9688-1.4297 3.6953-2.3398 1.7383-0.89844 4.1875-1.6562 5.4492-1.6914 1.2617-0.023437 3.457-0.42187 4.8711-0.89844 1.4141-0.45703 2.8086-0.82812 3.0977-0.82812 0.28906 0 1.2734 0.26562 2.207 0.625 0.92578 0.32422 2.3633 0.69531 3.1914 0.78125l2.0625 0.058594 0.74219-0.67188-0.17969-0.88672-0.51562-0.74219c-0.085937-0.21484 0.83984-0.61328 2.0508-0.875 1.2227-0.28906 2.543-0.51562 2.9531-0.51562 0.42188 0 2.6523-1.0312 4.9805-2.2578 2.3164-1.2461 4.1641-1.8359 4.0781-1.3203-0.0625 0.51172-1.3359 2-2.8242 3.2617z"/>
</svg>
