<svg xmlns="http://www.w3.org/2000/svg" xmlns:xlink="http://www.w3.org/1999/xlink" version="1.1" x="0px" y="0px" viewBox="0 0 100 95" enable-background="new 0 0 100 100" xml:space="preserve"><g><path d="M32.982,38.8c-0.284-0.324,0.265-0.816,0.189-1.293c-0.116-0.724-0.68-0.637-1.14-1.108c-0.78-0.8-0.647-2.072-1.086-3.052   c-0.391-0.875-1.023-2.013-1.657-2.769c-0.597-0.711-1.58-1.103-2.115-1.727c0.245-0.119,0.396-0.362,0.625-0.488   c-0.557-0.456-1.228-0.846-0.866-1.57c0.2-0.399,1.225-1.159,1.604-1.186c-0.061,0.379-0.328,0.745-0.528,1.07   c1.112,0.702,0.801-2.295,0.706-2.832c-0.126,0.195-0.354,0.373-0.461,0.627c-0.759-0.071-0.649-1.479-0.425-2.011   c0.247,0.146,0.536,0.126,0.798,0.162c-0.083-0.227-0.135-0.497-0.346-0.699c0.971-0.321,0.284-0.775,0.559-1.319   c0.229-0.452,1.09-0.716,1.448-0.474c-0.066-0.366-0.298-1.363-0.058-1.632c0.382-0.429,1.242,0.048,0.919-0.927   c0.778-0.208,0.756-1.079,0.184-1.512c0.267-0.506,0.363-1.724,0.334-2.29c-0.013-0.282-0.587-2.741,0.559-1.762   c-0.079-0.63-0.082-0.808,0.207-1.261c0.256-0.401,0.827-0.572,1.038-0.944c0.288-0.506,0.082-0.838,0.527-1.279   c0.316-0.313,0.758-0.522,1.034-0.118c0.475-0.634,0.936-0.57,1.551-0.912c0.657-0.365,1.138-1.016,1.925-1.288   c-0.097,0.687-1.153,0.899-1.361,1.568c0.827-0.011,0.585,0.458,0.619,0.986c0.032,0.491-0.145,0.676,0.295,1.218   c0.367,0.452,0.898,0.855,0.93-0.276c0.014-0.473-0.474-0.829-0.644-1.271c0.545-0.391,1.674-0.511,2.319-0.577   c1.213-0.124,0.938,0.582,1.755,0.908c0.444,0.176,0.861-0.166,1.27-0.166c0.501-0.001,0.734,0.249,1.129,0.351   c0.992,0.254,1.815-0.233,2.835-0.15c-0.082,0.105-0.177,0.514-0.255,0.618c0.322,0,0.594-0.02,0.897-0.064   c-0.04,0.178,0.067,0.44,0.027,0.618c0.458,0.069,0.873-0.464,1.187-0.267c0.564,0.353-0.054,0.724-0.2,1.191   c-0.216,0.036-0.581,0.248-0.335,0.549c0.237,0.291,0.607-0.096,0.91-0.076c0.818,0.053,1.288,0.409,0.562,0.91   c0.708,0.127,0.919-0.584,1.585-0.192c0.32,0.189,0.158,0.743,0.776,0.952c-1.266,0.172,0.451,0.65,0.651,0.757   c0.282,0.151,0.293,0.486,0.597,0.604c0.419,0.164,1.017-0.055,1.455-0.053c1.567,0.006,3.491,0.361,3.895,1.995   c0.892,0.304,1.018,1.183,1.372,1.955c0.108,0.234,0.178,0.974,0.346,1.114c0.328,0.272,0.945,0.122,1.336,0.177   c-0.729,0.318-1.519,1.388-1.788,2.112c-0.605,0-0.427,0.78-0.741,1.201c-0.275-0.006-1.132,0.352-0.729,0.738   c0.244,0.235,1.304-0.408,1.557-0.536c-0.026,1,0.662,1.155,1.478,0.652c0.063,1.419,0.845,0.462,1.05-0.366   c0.268,0,0.46-0.167,0.707-0.214c-0.438-1.311,1.303-0.92,1.767-0.248c0.114-0.098,0.371-0.133,0.45-0.189   c0.083,0.401,0.432,0.463,0.832,0.374c0.1,0.455,0.492,0.588,0.925,0.554c-0.082,0.137-0.136,0.483-0.251,0.617   c0.755,0.191-0.088,0.709-0.094,1.205c0.605,0.006,0.936-0.752,1.45-0.992c0.235,0.231,0.742,0.009,1.029,0.081   c0.432,0.107,0.744,0.456,1.206,0.554c1.251,0.269,2.093-0.156,3.225,0.695c0.72,0.542,0.779,1.373,1.37,1.912   c0.325,0.296,1.674,0.704,2.148,0.356c0.274,0.861,0.32,1.764,0.275,2.671c-0.055,1.104-0.282,1.32-0.718,2.236   c-0.205,0.43-0.187,0.746-0.483,1.069c-0.219,0.24-0.687,0.439-0.92,0.756c-0.459,0.624-1.303,1.383-1.314,2.302   c-1.208-0.603-0.554,4.434-1.375,4.996c0.168,0.247,0.214,0.488,0.277,0.76c-0.904,0.729-0.188,1.797-0.617,2.678   c-0.314,0.644-0.884,1.519-1.579,1.845c0.017,0.405-0.04,0.843,0.256,1.161c-0.436,0.292-1.131,0.497-1.205,1.115   c-0.411-0.284-1.567-0.944-1.665,0.005c-0.715-0.024-0.716-0.315-1.463-0.016c-0.492,0.196-1.116,0.753-1.381,1.187   c-0.995-0.083-2.042,1.62-2.743,2.163c0.033-0.054,0.048-0.112,0.047-0.175c-0.258,0.197-0.426,0.531-0.357,0.815   c0.107-0.034,0.16-0.055,0.267-0.074c-0.254,0.456-0.052,1.242-0.058,1.814c-0.008,0.883,0.044,1.136-0.6,1.848   c-0.174,0.192-0.495,0.436-0.628,0.646c-0.148,0.232-0.134,0.646-0.34,0.856c-0.469,0.479-0.713,0.284-1.302,0.194   C60.4,60,59.813,60.991,59.375,61.96c-0.383,0.846-1.16,1.627-1.894,2.353c-0.817,0.809-1.786,0.91-2.889,0.718   c-1.105-0.193-1.397-1.199-2.106-1.842c-0.933,1.965,2.292,1.978,1.081,3.594c0.184,0.353,0.52,0.604,0.919,0.568   c-0.115,1.662-4.708,5.321-6.106,3.318c-0.199,0.503,0.025,1.257-0.07,1.835c-0.165,1.006-0.201,0.835-1.085,1.137   c-0.307,0.104-0.571,0.356-0.918,0.334c-0.315-0.02-0.454-0.563-0.857-0.431c-0.653,0.213-0.292,1.326-0.168,1.812   c0.126,0.031,0.211,0.094,0.337,0.125c-0.013,0.315-0.062,0.6-0.152,0.89c-0.146,0.469-0.443,0.77-0.573,1.402   c-0.042,0.205,0.128,0.416,0.096,0.646c-0.041,0.291-0.284,0.227-0.352,0.388c-0.051,0.122,0.062,0.576-0.033,0.637   c-0.256,0.165-0.423-0.114-0.632-0.01c-0.41,0.202-0.623,0.267-0.948,0.623c-2.192,2.411,1.989,1.545,1.58,2.879   c-0.292-0.057-0.541,0.067-0.801,0.117c-0.027-0.024-0.003,0.249-0.002,0.248c0.15,0.03,0.217,0.084,0.344,0.127   c-0.47,0.6-1.235,1.106-1.648,1.826c-0.276,0.48-0.281,1.204-1.002,1.375c0.009-0.275-0.17-0.421-0.203-0.557   c-0.097,0.069-0.397,0.369-0.452,0.449c0.197,0.048,0.329,0.244,0.466,0.3c-0.403,0.422-0.604,1.169-1.087,1.414   c0.129,0,0.345,0.085,0.507,0.081c-0.063,0.141-0.018,0.204-0.133,0.355c0.323,0.176,0.427,0.324,0.344,0.646   c0.206,0.133,0.248,0.295,0.438,0.39c-0.218,0.217-0.588,0.19-0.896,0.089c-0.184,0.429-0.752,0.706-1.101,1.027   c-0.552,0.507-0.508,0.556-0.686,1.341c-0.424,0.188-1.431,0.647-1.357-0.245c0.592-0.022,0.703-0.363,0.727-0.847   c0.044-0.873-0.291-0.359-0.559-0.735c-0.299-0.419-0.137-0.933-0.379-1.308c-0.217-0.337-0.804-0.485-0.925-0.001   c-0.383-0.131-0.427-0.565-0.462-0.994c-0.125,0.078-0.307,0.119-0.427,0.261c0.04-0.369,0.293-0.68,0.525-0.986   c-0.23-0.038-0.478-0.245-0.655-0.3c0.146-0.083,0.263-0.268,0.374-0.346c-0.119-0.026-0.307-0.174-0.417-0.201   c0.164-0.249,0.117-0.349,0.191-0.545c0.165-0.25,0.176-0.405-0.111-0.653c-0.021,0.081,0.006,0.169-0.038,0.241   c-0.215-0.428-0.291-0.955,0.29-1.004c-0.232-0.231-0.17-0.424-0.258-0.709c0.298-0.106,0.62-0.119,0.888-0.023   c0.187-0.241,0.239-0.517,0.194-0.808c-0.402-0.102-0.837-0.041-1.029,0.356c-0.109-0.414-0.16-1.044,0.112-1.388   c-0.442-0.206-1.096-0.117-0.9-0.813c0.721-0.358,1.831,0.504,1.473-0.833c0.737,0.125,0.766-0.451,0.254-0.753   c0.496-0.286,0.875-0.515,0.735-1.095c-0.179,0.042-0.437-0.06-0.618-0.028c-0.084-0.479,0.224-0.848,0.53-1.168   c-0.172-0.062-0.229-0.204-0.35-0.272c0.135-0.054,0.225-0.168,0.345-0.231c-0.448-0.538,0.173-0.527,0.206-0.729   c0.059-0.361-0.041-0.784-0.06-1.189c0.331-0.235,0.416-0.397,0.143-0.656c-0.163,0.178-0.433,0.315-0.559,0.533   c-0.02-0.061,0.007-0.16-0.006-0.231c-1.703,0.573-1.596-2.569-0.275-2.335c-0.237-0.686-0.449-1.445-0.815-2.113   c-0.382-0.696-0.53-0.025-0.276-0.88c0.09-0.302,0.532-0.878,0.713-1.047c0.095,0.18,0.308,0.304,0.384,0.466   c0.517-0.402,0.709-2.373,0.947-3.038c0.347-0.968,0.354-2.058,0.739-3.157c0.094,0.021,0.171,0.058,0.266,0.083   c0.215-0.625-0.001-2.54-0.366-3.118c0.848-0.468,0.169-1.476,0.003-2.128c1.08-0.368,1.257-3.303,1.393-4.151   c0.013-0.087,0.371-0.084,0.357-0.298c-0.01-0.163-0.211-0.237-0.217-0.347c-0.012-0.25-0.178-0.652-0.183-1.018   c-0.004-0.294-0.076-0.854,0.021-1.129c0.166-0.474,0.418-0.432,0.645-0.829c0.73-1.28-0.358-3.14-0.367-4.507   c-0.007-1.112-0.426-1.024-1.016-1.776c-0.51-0.65-0.518-1.094-1.289-1.477c-0.907-0.451-1.552-0.802-2.406-1.364   c-0.68-0.448-1.65-0.666-1.912-1.544c-0.083,0.099-0.173,0.278-0.212,0.415"/><path d="M41.386,90.794c0.357,2.559,2.261,1.589,3.923,2.53c-0.56,0.52-2.409,0.422-3.094,0.096   c-0.274,0.501-1.64,0.557-1.858-0.044c0.24-0.091,0.317-0.338,0.466-0.462c-0.404-0.145-0.565-0.495-0.438-0.904   c0.131-0.002,0.305-0.045,0.434-0.027c-0.055-0.663-0.653-0.331-1.081-0.183c-0.268-0.876,1.265-1.152,1.741-0.727"/><path d="M61.153,21.403c0.515,0.421,1.788,0.164,2.481,0.199c-0.022,0.249-0.703,1.428-0.91,1.563   c-0.403,0.263-1.804,0.382-1.743-0.269c0.246-0.215,0.319-0.177,0.185-0.546c0.035-0.089,0.15-0.101,0.18-0.208   c-0.171-0.217-0.091-0.324-0.175-0.545c0.208,0.103,0.406,0.018,0.628,0.083"/></g></svg>